ISO-10303-21;
HEADER;
/* Generated by software containing ST-Developer
 * from STEP Tools, Inc. (www.steptools.com) 
 */
/* OPTION: using custom renumber hook */

FILE_DESCRIPTION(
/* description */ ('STEP AP242 Edition 2',
'CAx-IF Rec.Pracs.---Representation and Presentation of Product Manufa
cturing Information (PMI)---4.0---2014-10-13',
'CAx-IF Rec.Pracs.---3D Tessellated Geometry---0.4---2014-09-14','2;1',
'CAx-IF Rec.Pracs.---User Defined Attributes---1.5---2016-08-15'),
/* implementation_level */ '2;1');

FILE_NAME(
/* name */ 'Box of Shocks - Base',
/* time_stamp */ '2026-06-10T17:50:35Z',
/* author */ (''),
/* organization */ (''),
/* preprocessor_version */ 'ST-DEVELOPER v20',
/* originating_system */ 'ONSHAPE BY PTC INC, 1.216',
/* authorisation */ '  ');

FILE_SCHEMA (('AP242_MANAGED_MODEL_BASED_3D_ENGINEERING_MIM_LF { 1 0 10303 442 3 1 4 }'));
ENDSEC;

DATA;
#10=SHAPE_REPRESENTATION_RELATIONSHIP('','',#1001,#11);
#11=ADVANCED_BREP_SHAPE_REPRESENTATION('',(#999),#1669);
#12=CYLINDRICAL_SURFACE('',#1064,0.005);
#13=CYLINDRICAL_SURFACE('',#1065,0.005);
#14=CYLINDRICAL_SURFACE('',#1066,0.005);
#15=CYLINDRICAL_SURFACE('',#1067,0.005);
#16=CYLINDRICAL_SURFACE('',#1068,0.005);
#17=CYLINDRICAL_SURFACE('',#1069,0.005);
#18=CYLINDRICAL_SURFACE('',#1070,0.005);
#19=CYLINDRICAL_SURFACE('',#1071,0.005);
#20=CYLINDRICAL_SURFACE('',#1072,0.00225);
#21=CYLINDRICAL_SURFACE('',#1075,0.00225);
#22=CYLINDRICAL_SURFACE('',#1078,0.00225);
#23=CYLINDRICAL_SURFACE('',#1081,0.00225);
#24=CYLINDRICAL_SURFACE('',#1084,0.001575);
#25=CYLINDRICAL_SURFACE('',#1085,0.001575);
#26=CYLINDRICAL_SURFACE('',#1086,0.001575);
#27=CYLINDRICAL_SURFACE('',#1087,0.001575);
#28=CYLINDRICAL_SURFACE('',#1089,0.003);
#29=CYLINDRICAL_SURFACE('',#1091,0.003);
#30=CYLINDRICAL_SURFACE('',#1095,0.003);
#31=CYLINDRICAL_SURFACE('',#1097,0.003);
#32=CYLINDRICAL_SURFACE('',#1100,0.005);
#33=CYLINDRICAL_SURFACE('',#1101,0.004);
#34=CYLINDRICAL_SURFACE('',#1102,0.0075);
#35=CIRCLE('',#1004,0.001575);
#36=CIRCLE('',#1005,0.001575);
#37=CIRCLE('',#1006,0.001575);
#38=CIRCLE('',#1007,0.001575);
#39=CIRCLE('',#1008,0.003);
#40=CIRCLE('',#1009,0.003);
#41=CIRCLE('',#1010,0.003);
#42=CIRCLE('',#1011,0.003);
#43=CIRCLE('',#1013,0.001575);
#44=CIRCLE('',#1014,0.001575);
#45=CIRCLE('',#1015,0.001575);
#46=CIRCLE('',#1016,0.001575);
#47=CIRCLE('',#1017,0.003);
#48=CIRCLE('',#1018,0.003);
#49=CIRCLE('',#1019,0.003);
#50=CIRCLE('',#1020,0.003);
#51=CIRCLE('',#1022,0.00225);
#52=CIRCLE('',#1023,0.00225);
#53=CIRCLE('',#1024,0.005);
#54=CIRCLE('',#1025,0.005);
#55=CIRCLE('',#1026,0.005);
#56=CIRCLE('',#1027,0.005);
#57=CIRCLE('',#1028,0.005);
#58=CIRCLE('',#1029,0.005);
#59=CIRCLE('',#1030,0.005);
#60=CIRCLE('',#1031,0.005);
#61=CIRCLE('',#1032,0.00225);
#62=CIRCLE('',#1033,0.00225);
#63=CIRCLE('',#1035,0.004);
#64=CIRCLE('',#1036,0.005);
#65=CIRCLE('',#1039,0.0075);
#66=CIRCLE('',#1041,0.005);
#67=CIRCLE('',#1042,0.005);
#68=CIRCLE('',#1043,0.005);
#69=CIRCLE('',#1044,0.005);
#70=CIRCLE('',#1045,0.005);
#71=CIRCLE('',#1046,0.005);
#72=CIRCLE('',#1047,0.005);
#73=CIRCLE('',#1048,0.005);
#74=CIRCLE('',#1050,0.004);
#75=CIRCLE('',#1051,0.005);
#76=CIRCLE('',#1054,0.0075);
#77=CIRCLE('',#1073,0.00225);
#78=CIRCLE('',#1076,0.00225);
#79=CIRCLE('',#1079,0.00225);
#80=CIRCLE('',#1082,0.00225);
#81=ORIENTED_EDGE('',*,*,#341,.F.);
#82=ORIENTED_EDGE('',*,*,#342,.T.);
#83=ORIENTED_EDGE('',*,*,#343,.T.);
#84=ORIENTED_EDGE('',*,*,#344,.T.);
#85=ORIENTED_EDGE('',*,*,#345,.F.);
#86=ORIENTED_EDGE('',*,*,#346,.F.);
#87=ORIENTED_EDGE('',*,*,#347,.F.);
#88=ORIENTED_EDGE('',*,*,#348,.F.);
#89=ORIENTED_EDGE('',*,*,#349,.T.);
#90=ORIENTED_EDGE('',*,*,#350,.T.);
#91=ORIENTED_EDGE('',*,*,#351,.F.);
#92=ORIENTED_EDGE('',*,*,#352,.T.);
#93=ORIENTED_EDGE('',*,*,#353,.F.);
#94=ORIENTED_EDGE('',*,*,#354,.T.);
#95=ORIENTED_EDGE('',*,*,#355,.T.);
#96=ORIENTED_EDGE('',*,*,#356,.F.);
#97=ORIENTED_EDGE('',*,*,#357,.F.);
#98=ORIENTED_EDGE('',*,*,#358,.T.);
#99=ORIENTED_EDGE('',*,*,#359,.F.);
#100=ORIENTED_EDGE('',*,*,#360,.T.);
#101=ORIENTED_EDGE('',*,*,#361,.T.);
#102=ORIENTED_EDGE('',*,*,#362,.T.);
#103=ORIENTED_EDGE('',*,*,#363,.T.);
#104=ORIENTED_EDGE('',*,*,#364,.T.);
#105=ORIENTED_EDGE('',*,*,#365,.T.);
#106=ORIENTED_EDGE('',*,*,#366,.T.);
#107=ORIENTED_EDGE('',*,*,#367,.F.);
#108=ORIENTED_EDGE('',*,*,#368,.T.);
#109=ORIENTED_EDGE('',*,*,#369,.T.);
#110=ORIENTED_EDGE('',*,*,#370,.T.);
#111=ORIENTED_EDGE('',*,*,#371,.T.);
#112=ORIENTED_EDGE('',*,*,#372,.F.);
#113=ORIENTED_EDGE('',*,*,#373,.T.);
#114=ORIENTED_EDGE('',*,*,#374,.F.);
#115=ORIENTED_EDGE('',*,*,#375,.F.);
#116=ORIENTED_EDGE('',*,*,#376,.T.);
#117=ORIENTED_EDGE('',*,*,#377,.T.);
#118=ORIENTED_EDGE('',*,*,#378,.F.);
#119=ORIENTED_EDGE('',*,*,#379,.T.);
#120=ORIENTED_EDGE('',*,*,#380,.F.);
#121=ORIENTED_EDGE('',*,*,#381,.T.);
#122=ORIENTED_EDGE('',*,*,#382,.F.);
#123=ORIENTED_EDGE('',*,*,#383,.T.);
#124=ORIENTED_EDGE('',*,*,#384,.T.);
#125=ORIENTED_EDGE('',*,*,#385,.T.);
#126=ORIENTED_EDGE('',*,*,#386,.T.);
#127=ORIENTED_EDGE('',*,*,#341,.T.);
#128=ORIENTED_EDGE('',*,*,#387,.T.);
#129=ORIENTED_EDGE('',*,*,#388,.T.);
#130=ORIENTED_EDGE('',*,*,#389,.T.);
#131=ORIENTED_EDGE('',*,*,#390,.F.);
#132=ORIENTED_EDGE('',*,*,#391,.T.);
#133=ORIENTED_EDGE('',*,*,#392,.T.);
#134=ORIENTED_EDGE('',*,*,#393,.T.);
#135=ORIENTED_EDGE('',*,*,#394,.F.);
#136=ORIENTED_EDGE('',*,*,#395,.T.);
#137=ORIENTED_EDGE('',*,*,#396,.T.);
#138=ORIENTED_EDGE('',*,*,#397,.T.);
#139=ORIENTED_EDGE('',*,*,#398,.F.);
#140=ORIENTED_EDGE('',*,*,#399,.T.);
#141=ORIENTED_EDGE('',*,*,#400,.T.);
#142=ORIENTED_EDGE('',*,*,#401,.T.);
#143=ORIENTED_EDGE('',*,*,#402,.T.);
#144=ORIENTED_EDGE('',*,*,#403,.T.);
#145=ORIENTED_EDGE('',*,*,#365,.F.);
#146=ORIENTED_EDGE('',*,*,#404,.T.);
#147=ORIENTED_EDGE('',*,*,#405,.F.);
#148=ORIENTED_EDGE('',*,*,#406,.T.);
#149=ORIENTED_EDGE('',*,*,#407,.F.);
#150=ORIENTED_EDGE('',*,*,#408,.F.);
#151=ORIENTED_EDGE('',*,*,#409,.F.);
#152=ORIENTED_EDGE('',*,*,#410,.T.);
#153=ORIENTED_EDGE('',*,*,#394,.T.);
#154=ORIENTED_EDGE('',*,*,#411,.T.);
#155=ORIENTED_EDGE('',*,*,#412,.T.);
#156=ORIENTED_EDGE('',*,*,#413,.T.);
#157=ORIENTED_EDGE('',*,*,#383,.F.);
#158=ORIENTED_EDGE('',*,*,#414,.T.);
#159=ORIENTED_EDGE('',*,*,#415,.F.);
#160=ORIENTED_EDGE('',*,*,#416,.F.);
#161=ORIENTED_EDGE('',*,*,#417,.T.);
#162=ORIENTED_EDGE('',*,*,#390,.T.);
#163=ORIENTED_EDGE('',*,*,#418,.T.);
#164=ORIENTED_EDGE('',*,*,#419,.T.);
#165=ORIENTED_EDGE('',*,*,#420,.T.);
#166=ORIENTED_EDGE('',*,*,#412,.F.);
#167=ORIENTED_EDGE('',*,*,#421,.T.);
#168=ORIENTED_EDGE('',*,*,#422,.T.);
#169=ORIENTED_EDGE('',*,*,#423,.T.);
#170=ORIENTED_EDGE('',*,*,#409,.T.);
#171=ORIENTED_EDGE('',*,*,#424,.T.);
#172=ORIENTED_EDGE('',*,*,#425,.T.);
#173=ORIENTED_EDGE('',*,*,#426,.T.);
#174=ORIENTED_EDGE('',*,*,#416,.T.);
#175=ORIENTED_EDGE('',*,*,#427,.T.);
#176=ORIENTED_EDGE('',*,*,#428,.T.);
#177=ORIENTED_EDGE('',*,*,#429,.T.);
#178=ORIENTED_EDGE('',*,*,#343,.F.);
#179=ORIENTED_EDGE('',*,*,#430,.T.);
#180=ORIENTED_EDGE('',*,*,#431,.F.);
#181=ORIENTED_EDGE('',*,*,#432,.F.);
#182=ORIENTED_EDGE('',*,*,#433,.T.);
#183=ORIENTED_EDGE('',*,*,#434,.T.);
#184=ORIENTED_EDGE('',*,*,#400,.F.);
#185=ORIENTED_EDGE('',*,*,#435,.T.);
#186=ORIENTED_EDGE('',*,*,#398,.T.);
#187=ORIENTED_EDGE('',*,*,#436,.T.);
#188=ORIENTED_EDGE('',*,*,#437,.F.);
#189=ORIENTED_EDGE('',*,*,#438,.T.);
#190=ORIENTED_EDGE('',*,*,#439,.T.);
#191=ORIENTED_EDGE('',*,*,#440,.T.);
#192=ORIENTED_EDGE('',*,*,#441,.T.);
#193=ORIENTED_EDGE('',*,*,#402,.F.);
#194=ORIENTED_EDGE('',*,*,#442,.T.);
#195=ORIENTED_EDGE('',*,*,#367,.T.);
#196=ORIENTED_EDGE('',*,*,#443,.T.);
#197=ORIENTED_EDGE('',*,*,#440,.F.);
#198=ORIENTED_EDGE('',*,*,#444,.T.);
#199=ORIENTED_EDGE('',*,*,#433,.F.);
#200=ORIENTED_EDGE('',*,*,#445,.T.);
#201=ORIENTED_EDGE('',*,*,#437,.T.);
#202=ORIENTED_EDGE('',*,*,#446,.T.);
#203=ORIENTED_EDGE('',*,*,#403,.F.);
#204=ORIENTED_EDGE('',*,*,#441,.F.);
#205=ORIENTED_EDGE('',*,*,#443,.F.);
#206=ORIENTED_EDGE('',*,*,#366,.F.);
#207=ORIENTED_EDGE('',*,*,#404,.F.);
#208=ORIENTED_EDGE('',*,*,#368,.F.);
#209=ORIENTED_EDGE('',*,*,#446,.F.);
#210=ORIENTED_EDGE('',*,*,#436,.F.);
#211=ORIENTED_EDGE('',*,*,#401,.F.);
#212=ORIENTED_EDGE('',*,*,#434,.F.);
#213=ORIENTED_EDGE('',*,*,#444,.F.);
#214=ORIENTED_EDGE('',*,*,#442,.F.);
#215=ORIENTED_EDGE('',*,*,#399,.F.);
#216=ORIENTED_EDGE('',*,*,#438,.F.);
#217=ORIENTED_EDGE('',*,*,#445,.F.);
#218=ORIENTED_EDGE('',*,*,#435,.F.);
#219=ORIENTED_EDGE('',*,*,#388,.F.);
#220=ORIENTED_EDGE('',*,*,#447,.T.);
#221=ORIENTED_EDGE('',*,*,#428,.F.);
#222=ORIENTED_EDGE('',*,*,#448,.T.);
#223=ORIENTED_EDGE('',*,*,#385,.F.);
#224=ORIENTED_EDGE('',*,*,#449,.T.);
#225=ORIENTED_EDGE('',*,*,#419,.F.);
#226=ORIENTED_EDGE('',*,*,#450,.T.);
#227=ORIENTED_EDGE('',*,*,#425,.F.);
#228=ORIENTED_EDGE('',*,*,#451,.T.);
#229=ORIENTED_EDGE('',*,*,#392,.F.);
#230=ORIENTED_EDGE('',*,*,#452,.T.);
#231=ORIENTED_EDGE('',*,*,#396,.F.);
#232=ORIENTED_EDGE('',*,*,#453,.T.);
#233=ORIENTED_EDGE('',*,*,#422,.F.);
#234=ORIENTED_EDGE('',*,*,#454,.T.);
#235=ORIENTED_EDGE('',*,*,#420,.F.);
#236=ORIENTED_EDGE('',*,*,#449,.F.);
#237=ORIENTED_EDGE('',*,*,#384,.F.);
#238=ORIENTED_EDGE('',*,*,#413,.F.);
#239=ORIENTED_EDGE('',*,*,#386,.F.);
#240=ORIENTED_EDGE('',*,*,#450,.F.);
#241=ORIENTED_EDGE('',*,*,#430,.F.);
#242=ORIENTED_EDGE('',*,*,#342,.F.);
#243=ORIENTED_EDGE('',*,*,#423,.F.);
#244=ORIENTED_EDGE('',*,*,#453,.F.);
#245=ORIENTED_EDGE('',*,*,#395,.F.);
#246=ORIENTED_EDGE('',*,*,#410,.F.);
#247=ORIENTED_EDGE('',*,*,#397,.F.);
#248=ORIENTED_EDGE('',*,*,#454,.F.);
#249=ORIENTED_EDGE('',*,*,#421,.F.);
#250=ORIENTED_EDGE('',*,*,#414,.F.);
#251=ORIENTED_EDGE('',*,*,#393,.F.);
#252=ORIENTED_EDGE('',*,*,#451,.F.);
#253=ORIENTED_EDGE('',*,*,#424,.F.);
#254=ORIENTED_EDGE('',*,*,#411,.F.);
#255=ORIENTED_EDGE('',*,*,#426,.F.);
#256=ORIENTED_EDGE('',*,*,#452,.F.);
#257=ORIENTED_EDGE('',*,*,#391,.F.);
#258=ORIENTED_EDGE('',*,*,#417,.F.);
#259=ORIENTED_EDGE('',*,*,#429,.F.);
#260=ORIENTED_EDGE('',*,*,#447,.F.);
#261=ORIENTED_EDGE('',*,*,#387,.F.);
#262=ORIENTED_EDGE('',*,*,#344,.F.);
#263=ORIENTED_EDGE('',*,*,#389,.F.);
#264=ORIENTED_EDGE('',*,*,#448,.F.);
#265=ORIENTED_EDGE('',*,*,#427,.F.);
#266=ORIENTED_EDGE('',*,*,#418,.F.);
#267=ORIENTED_EDGE('',*,*,#455,.F.);
#268=ORIENTED_EDGE('',*,*,#382,.T.);
#269=ORIENTED_EDGE('',*,*,#455,.T.);
#270=ORIENTED_EDGE('',*,*,#456,.T.);
#271=ORIENTED_EDGE('',*,*,#381,.F.);
#272=ORIENTED_EDGE('',*,*,#456,.F.);
#273=ORIENTED_EDGE('',*,*,#457,.F.);
#274=ORIENTED_EDGE('',*,*,#405,.T.);
#275=ORIENTED_EDGE('',*,*,#457,.T.);
#276=ORIENTED_EDGE('',*,*,#458,.T.);
#277=ORIENTED_EDGE('',*,*,#406,.F.);
#278=ORIENTED_EDGE('',*,*,#458,.F.);
#279=ORIENTED_EDGE('',*,*,#345,.T.);
#280=ORIENTED_EDGE('',*,*,#364,.F.);
#281=ORIENTED_EDGE('',*,*,#346,.T.);
#282=ORIENTED_EDGE('',*,*,#363,.F.);
#283=ORIENTED_EDGE('',*,*,#347,.T.);
#284=ORIENTED_EDGE('',*,*,#362,.F.);
#285=ORIENTED_EDGE('',*,*,#348,.T.);
#286=ORIENTED_EDGE('',*,*,#361,.F.);
#287=ORIENTED_EDGE('',*,*,#459,.T.);
#288=ORIENTED_EDGE('',*,*,#349,.F.);
#289=ORIENTED_EDGE('',*,*,#460,.F.);
#290=ORIENTED_EDGE('',*,*,#370,.F.);
#291=ORIENTED_EDGE('',*,*,#460,.T.);
#292=ORIENTED_EDGE('',*,*,#360,.F.);
#293=ORIENTED_EDGE('',*,*,#461,.F.);
#294=ORIENTED_EDGE('',*,*,#371,.F.);
#295=ORIENTED_EDGE('',*,*,#372,.T.);
#296=ORIENTED_EDGE('',*,*,#461,.T.);
#297=ORIENTED_EDGE('',*,*,#359,.T.);
#298=ORIENTED_EDGE('',*,*,#462,.F.);
#299=ORIENTED_EDGE('',*,*,#462,.T.);
#300=ORIENTED_EDGE('',*,*,#358,.F.);
#301=ORIENTED_EDGE('',*,*,#463,.F.);
#302=ORIENTED_EDGE('',*,*,#373,.F.);
#303=ORIENTED_EDGE('',*,*,#374,.T.);
#304=ORIENTED_EDGE('',*,*,#463,.T.);
#305=ORIENTED_EDGE('',*,*,#357,.T.);
#306=ORIENTED_EDGE('',*,*,#464,.F.);
#307=ORIENTED_EDGE('',*,*,#375,.T.);
#308=ORIENTED_EDGE('',*,*,#464,.T.);
#309=ORIENTED_EDGE('',*,*,#356,.T.);
#310=ORIENTED_EDGE('',*,*,#465,.F.);
#311=ORIENTED_EDGE('',*,*,#465,.T.);
#312=ORIENTED_EDGE('',*,*,#355,.F.);
#313=ORIENTED_EDGE('',*,*,#466,.F.);
#314=ORIENTED_EDGE('',*,*,#376,.F.);
#315=ORIENTED_EDGE('',*,*,#466,.T.);
#316=ORIENTED_EDGE('',*,*,#354,.F.);
#317=ORIENTED_EDGE('',*,*,#467,.F.);
#318=ORIENTED_EDGE('',*,*,#377,.F.);
#319=ORIENTED_EDGE('',*,*,#378,.T.);
#320=ORIENTED_EDGE('',*,*,#467,.T.);
#321=ORIENTED_EDGE('',*,*,#353,.T.);
#322=ORIENTED_EDGE('',*,*,#468,.F.);
#323=ORIENTED_EDGE('',*,*,#468,.T.);
#324=ORIENTED_EDGE('',*,*,#352,.F.);
#325=ORIENTED_EDGE('',*,*,#469,.F.);
#326=ORIENTED_EDGE('',*,*,#379,.F.);
#327=ORIENTED_EDGE('',*,*,#380,.T.);
#328=ORIENTED_EDGE('',*,*,#469,.T.);
#329=ORIENTED_EDGE('',*,*,#351,.T.);
#330=ORIENTED_EDGE('',*,*,#470,.F.);
#331=ORIENTED_EDGE('',*,*,#470,.T.);
#332=ORIENTED_EDGE('',*,*,#350,.F.);
#333=ORIENTED_EDGE('',*,*,#459,.F.);
#334=ORIENTED_EDGE('',*,*,#369,.F.);
#335=ORIENTED_EDGE('',*,*,#432,.T.);
#336=ORIENTED_EDGE('',*,*,#408,.T.);
#337=ORIENTED_EDGE('',*,*,#431,.T.);
#338=ORIENTED_EDGE('',*,*,#407,.T.);
#339=ORIENTED_EDGE('',*,*,#415,.T.);
#340=ORIENTED_EDGE('',*,*,#439,.F.);
#341=EDGE_CURVE('',#471,#472,#565,.T.);
#342=EDGE_CURVE('',#471,#473,#566,.F.);
#343=EDGE_CURVE('',#473,#474,#567,.T.);
#344=EDGE_CURVE('',#474,#472,#568,.T.);
#345=EDGE_CURVE('',#475,#475,#35,.T.);
#346=EDGE_CURVE('',#476,#476,#36,.T.);
#347=EDGE_CURVE('',#477,#477,#37,.T.);
#348=EDGE_CURVE('',#478,#478,#38,.T.);
#349=EDGE_CURVE('',#479,#480,#569,.T.);
#350=EDGE_CURVE('',#480,#481,#570,.T.);
#351=EDGE_CURVE('',#482,#481,#571,.T.);
#352=EDGE_CURVE('',#482,#483,#39,.T.);
#353=EDGE_CURVE('',#484,#483,#572,.T.);
#354=EDGE_CURVE('',#484,#485,#40,.T.);
#355=EDGE_CURVE('',#485,#486,#573,.T.);
#356=EDGE_CURVE('',#487,#486,#574,.T.);
#357=EDGE_CURVE('',#488,#487,#575,.T.);
#358=EDGE_CURVE('',#488,#489,#41,.T.);
#359=EDGE_CURVE('',#490,#489,#576,.T.);
#360=EDGE_CURVE('',#490,#479,#42,.T.);
#361=EDGE_CURVE('',#491,#491,#43,.F.);
#362=EDGE_CURVE('',#492,#492,#44,.F.);
#363=EDGE_CURVE('',#493,#493,#45,.F.);
#364=EDGE_CURVE('',#494,#494,#46,.F.);
#365=EDGE_CURVE('',#495,#496,#577,.T.);
#366=EDGE_CURVE('',#496,#497,#578,.T.);
#367=EDGE_CURVE('',#498,#497,#579,.T.);
#368=EDGE_CURVE('',#498,#495,#580,.T.);
#369=EDGE_CURVE('',#499,#500,#581,.T.);
#370=EDGE_CURVE('',#500,#501,#582,.T.);
#371=EDGE_CURVE('',#501,#502,#47,.T.);
#372=EDGE_CURVE('',#503,#502,#583,.T.);
#373=EDGE_CURVE('',#503,#504,#48,.T.);
#374=EDGE_CURVE('',#505,#504,#584,.T.);
#375=EDGE_CURVE('',#506,#505,#585,.T.);
#376=EDGE_CURVE('',#506,#507,#586,.T.);
#377=EDGE_CURVE('',#507,#508,#49,.T.);
#378=EDGE_CURVE('',#509,#508,#587,.T.);
#379=EDGE_CURVE('',#509,#510,#50,.T.);
#380=EDGE_CURVE('',#499,#510,#588,.T.);
#381=EDGE_CURVE('',#511,#511,#51,.T.);
#382=EDGE_CURVE('',#512,#512,#52,.T.);
#383=EDGE_CURVE('',#513,#514,#589,.T.);
#384=EDGE_CURVE('',#514,#515,#53,.T.);
#385=EDGE_CURVE('',#515,#516,#590,.F.);
#386=EDGE_CURVE('',#516,#471,#54,.T.);
#387=EDGE_CURVE('',#472,#517,#55,.T.);
#388=EDGE_CURVE('',#517,#518,#591,.T.);
#389=EDGE_CURVE('',#518,#519,#56,.T.);
#390=EDGE_CURVE('',#520,#519,#592,.T.);
#391=EDGE_CURVE('',#520,#521,#57,.T.);
#392=EDGE_CURVE('',#521,#522,#593,.F.);
#393=EDGE_CURVE('',#522,#523,#58,.T.);
#394=EDGE_CURVE('',#524,#523,#594,.T.);
#395=EDGE_CURVE('',#524,#525,#59,.T.);
#396=EDGE_CURVE('',#525,#526,#595,.T.);
#397=EDGE_CURVE('',#526,#513,#60,.T.);
#398=EDGE_CURVE('',#527,#528,#596,.T.);
#399=EDGE_CURVE('',#527,#529,#597,.T.);
#400=EDGE_CURVE('',#529,#530,#598,.T.);
#401=EDGE_CURVE('',#530,#531,#599,.F.);
#402=EDGE_CURVE('',#531,#532,#600,.T.);
#403=EDGE_CURVE('',#532,#496,#601,.T.);
#404=EDGE_CURVE('',#495,#528,#602,.F.);
#405=EDGE_CURVE('',#533,#533,#61,.T.);
#406=EDGE_CURVE('',#534,#534,#62,.T.);
#407=EDGE_CURVE('',#535,#535,#63,.T.);
#408=EDGE_CURVE('',#536,#536,#64,.T.);
#409=EDGE_CURVE('',#537,#538,#603,.T.);
#410=EDGE_CURVE('',#537,#524,#604,.T.);
#411=EDGE_CURVE('',#523,#538,#605,.F.);
#412=EDGE_CURVE('',#539,#540,#606,.T.);
#413=EDGE_CURVE('',#540,#514,#607,.F.);
#414=EDGE_CURVE('',#513,#539,#608,.T.);
#415=EDGE_CURVE('',#541,#541,#65,.T.);
#416=EDGE_CURVE('',#542,#543,#609,.T.);
#417=EDGE_CURVE('',#542,#520,#610,.F.);
#418=EDGE_CURVE('',#519,#543,#611,.T.);
#419=EDGE_CURVE('',#544,#545,#612,.F.);
#420=EDGE_CURVE('',#545,#540,#66,.F.);
#421=EDGE_CURVE('',#539,#546,#67,.F.);
#422=EDGE_CURVE('',#546,#547,#613,.T.);
#423=EDGE_CURVE('',#547,#537,#68,.F.);
#424=EDGE_CURVE('',#538,#548,#69,.F.);
#425=EDGE_CURVE('',#548,#549,#614,.F.);
#426=EDGE_CURVE('',#549,#542,#70,.F.);
#427=EDGE_CURVE('',#543,#550,#71,.F.);
#428=EDGE_CURVE('',#550,#551,#615,.T.);
#429=EDGE_CURVE('',#551,#474,#72,.F.);
#430=EDGE_CURVE('',#473,#544,#73,.F.);
#431=EDGE_CURVE('',#552,#552,#74,.F.);
#432=EDGE_CURVE('',#553,#553,#75,.F.);
#433=EDGE_CURVE('',#554,#555,#616,.T.);
#434=EDGE_CURVE('',#555,#530,#617,.T.);
#435=EDGE_CURVE('',#529,#554,#618,.T.);
#436=EDGE_CURVE('',#528,#556,#619,.T.);
#437=EDGE_CURVE('',#557,#556,#620,.T.);
#438=EDGE_CURVE('',#557,#527,#621,.T.);
#439=EDGE_CURVE('',#558,#558,#76,.T.);
#440=EDGE_CURVE('',#559,#560,#622,.T.);
#441=EDGE_CURVE('',#560,#532,#623,.T.);
#442=EDGE_CURVE('',#531,#559,#624,.T.);
#443=EDGE_CURVE('',#497,#560,#625,.T.);
#444=EDGE_CURVE('',#559,#555,#626,.F.);
#445=EDGE_CURVE('',#554,#557,#627,.T.);
#446=EDGE_CURVE('',#556,#498,#628,.F.);
#447=EDGE_CURVE('',#517,#551,#629,.F.);
#448=EDGE_CURVE('',#550,#518,#630,.F.);
#449=EDGE_CURVE('',#515,#545,#631,.F.);
#450=EDGE_CURVE('',#544,#516,#632,.F.);
#451=EDGE_CURVE('',#548,#522,#633,.F.);
#452=EDGE_CURVE('',#521,#549,#634,.F.);
#453=EDGE_CURVE('',#525,#547,#635,.F.);
#454=EDGE_CURVE('',#546,#526,#636,.F.);
#455=EDGE_CURVE('',#561,#561,#77,.T.);
#456=EDGE_CURVE('',#562,#562,#78,.T.);
#457=EDGE_CURVE('',#563,#563,#79,.T.);
#458=EDGE_CURVE('',#564,#564,#80,.T.);
#459=EDGE_CURVE('',#500,#480,#637,.T.);
#460=EDGE_CURVE('',#501,#479,#638,.T.);
#461=EDGE_CURVE('',#502,#490,#639,.T.);
#462=EDGE_CURVE('',#503,#489,#640,.T.);
#463=EDGE_CURVE('',#504,#488,#641,.T.);
#464=EDGE_CURVE('',#505,#487,#642,.T.);
#465=EDGE_CURVE('',#506,#486,#643,.T.);
#466=EDGE_CURVE('',#507,#485,#644,.T.);
#467=EDGE_CURVE('',#508,#484,#645,.T.);
#468=EDGE_CURVE('',#509,#483,#646,.T.);
#469=EDGE_CURVE('',#510,#482,#647,.T.);
#470=EDGE_CURVE('',#499,#481,#648,.T.);
#471=VERTEX_POINT('',#1392);
#472=VERTEX_POINT('',#1393);
#473=VERTEX_POINT('',#1395);
#474=VERTEX_POINT('',#1397);
#475=VERTEX_POINT('',#1400);
#476=VERTEX_POINT('',#1402);
#477=VERTEX_POINT('',#1404);
#478=VERTEX_POINT('',#1406);
#479=VERTEX_POINT('',#1408);
#480=VERTEX_POINT('',#1409);
#481=VERTEX_POINT('',#1411);
#482=VERTEX_POINT('',#1413);
#483=VERTEX_POINT('',#1415);
#484=VERTEX_POINT('',#1417);
#485=VERTEX_POINT('',#1419);
#486=VERTEX_POINT('',#1421);
#487=VERTEX_POINT('',#1423);
#488=VERTEX_POINT('',#1425);
#489=VERTEX_POINT('',#1427);
#490=VERTEX_POINT('',#1429);
#491=VERTEX_POINT('',#1433);
#492=VERTEX_POINT('',#1435);
#493=VERTEX_POINT('',#1437);
#494=VERTEX_POINT('',#1439);
#495=VERTEX_POINT('',#1441);
#496=VERTEX_POINT('',#1442);
#497=VERTEX_POINT('',#1444);
#498=VERTEX_POINT('',#1446);
#499=VERTEX_POINT('',#1449);
#500=VERTEX_POINT('',#1450);
#501=VERTEX_POINT('',#1452);
#502=VERTEX_POINT('',#1454);
#503=VERTEX_POINT('',#1456);
#504=VERTEX_POINT('',#1458);
#505=VERTEX_POINT('',#1460);
#506=VERTEX_POINT('',#1462);
#507=VERTEX_POINT('',#1464);
#508=VERTEX_POINT('',#1466);
#509=VERTEX_POINT('',#1468);
#510=VERTEX_POINT('',#1470);
#511=VERTEX_POINT('',#1474);
#512=VERTEX_POINT('',#1476);
#513=VERTEX_POINT('',#1478);
#514=VERTEX_POINT('',#1479);
#515=VERTEX_POINT('',#1481);
#516=VERTEX_POINT('',#1483);
#517=VERTEX_POINT('',#1486);
#518=VERTEX_POINT('',#1488);
#519=VERTEX_POINT('',#1490);
#520=VERTEX_POINT('',#1492);
#521=VERTEX_POINT('',#1494);
#522=VERTEX_POINT('',#1496);
#523=VERTEX_POINT('',#1498);
#524=VERTEX_POINT('',#1500);
#525=VERTEX_POINT('',#1502);
#526=VERTEX_POINT('',#1504);
#527=VERTEX_POINT('',#1507);
#528=VERTEX_POINT('',#1508);
#529=VERTEX_POINT('',#1510);
#530=VERTEX_POINT('',#1512);
#531=VERTEX_POINT('',#1514);
#532=VERTEX_POINT('',#1516);
#533=VERTEX_POINT('',#1520);
#534=VERTEX_POINT('',#1522);
#535=VERTEX_POINT('',#1525);
#536=VERTEX_POINT('',#1527);
#537=VERTEX_POINT('',#1529);
#538=VERTEX_POINT('',#1530);
#539=VERTEX_POINT('',#1535);
#540=VERTEX_POINT('',#1536);
#541=VERTEX_POINT('',#1541);
#542=VERTEX_POINT('',#1543);
#543=VERTEX_POINT('',#1544);
#544=VERTEX_POINT('',#1549);
#545=VERTEX_POINT('',#1550);
#546=VERTEX_POINT('',#1553);
#547=VERTEX_POINT('',#1555);
#548=VERTEX_POINT('',#1558);
#549=VERTEX_POINT('',#1560);
#550=VERTEX_POINT('',#1563);
#551=VERTEX_POINT('',#1565);
#552=VERTEX_POINT('',#1570);
#553=VERTEX_POINT('',#1572);
#554=VERTEX_POINT('',#1574);
#555=VERTEX_POINT('',#1575);
#556=VERTEX_POINT('',#1580);
#557=VERTEX_POINT('',#1582);
#558=VERTEX_POINT('',#1586);
#559=VERTEX_POINT('',#1588);
#560=VERTEX_POINT('',#1589);
#561=VERTEX_POINT('',#1623);
#562=VERTEX_POINT('',#1627);
#563=VERTEX_POINT('',#1631);
#564=VERTEX_POINT('',#1635);
#565=LINE('',#1391,#649);
#566=LINE('',#1394,#650);
#567=LINE('',#1396,#651);
#568=LINE('',#1398,#652);
#569=LINE('',#1407,#653);
#570=LINE('',#1410,#654);
#571=LINE('',#1412,#655);
#572=LINE('',#1416,#656);
#573=LINE('',#1420,#657);
#574=LINE('',#1422,#658);
#575=LINE('',#1424,#659);
#576=LINE('',#1428,#660);
#577=LINE('',#1440,#661);
#578=LINE('',#1443,#662);
#579=LINE('',#1445,#663);
#580=LINE('',#1447,#664);
#581=LINE('',#1448,#665);
#582=LINE('',#1451,#666);
#583=LINE('',#1455,#667);
#584=LINE('',#1459,#668);
#585=LINE('',#1461,#669);
#586=LINE('',#1463,#670);
#587=LINE('',#1467,#671);
#588=LINE('',#1471,#672);
#589=LINE('',#1477,#673);
#590=LINE('',#1482,#674);
#591=LINE('',#1487,#675);
#592=LINE('',#1491,#676);
#593=LINE('',#1495,#677);
#594=LINE('',#1499,#678);
#595=LINE('',#1503,#679);
#596=LINE('',#1506,#680);
#597=LINE('',#1509,#681);
#598=LINE('',#1511,#682);
#599=LINE('',#1513,#683);
#600=LINE('',#1515,#684);
#601=LINE('',#1517,#685);
#602=LINE('',#1518,#686);
#603=LINE('',#1528,#687);
#604=LINE('',#1531,#688);
#605=LINE('',#1532,#689);
#606=LINE('',#1534,#690);
#607=LINE('',#1537,#691);
#608=LINE('',#1538,#692);
#609=LINE('',#1542,#693);
#610=LINE('',#1545,#694);
#611=LINE('',#1546,#695);
#612=LINE('',#1548,#696);
#613=LINE('',#1554,#697);
#614=LINE('',#1559,#698);
#615=LINE('',#1564,#699);
#616=LINE('',#1573,#700);
#617=LINE('',#1576,#701);
#618=LINE('',#1577,#702);
#619=LINE('',#1579,#703);
#620=LINE('',#1581,#704);
#621=LINE('',#1583,#705);
#622=LINE('',#1587,#706);
#623=LINE('',#1590,#707);
#624=LINE('',#1591,#708);
#625=LINE('',#1593,#709);
#626=LINE('',#1594,#710);
#627=LINE('',#1595,#711);
#628=LINE('',#1596,#712);
#629=LINE('',#1602,#713);
#630=LINE('',#1603,#714);
#631=LINE('',#1605,#715);
#632=LINE('',#1606,#716);
#633=LINE('',#1608,#717);
#634=LINE('',#1609,#718);
#635=LINE('',#1611,#719);
#636=LINE('',#1612,#720);
#637=LINE('',#1642,#721);
#638=LINE('',#1643,#722);
#639=LINE('',#1645,#723);
#640=LINE('',#1647,#724);
#641=LINE('',#1649,#725);
#642=LINE('',#1651,#726);
#643=LINE('',#1653,#727);
#644=LINE('',#1655,#728);
#645=LINE('',#1657,#729);
#646=LINE('',#1659,#730);
#647=LINE('',#1661,#731);
#648=LINE('',#1663,#732);
#649=VECTOR('',#1107,1.);
#650=VECTOR('',#1108,1.);
#651=VECTOR('',#1109,1.);
#652=VECTOR('',#1110,1.);
#653=VECTOR('',#1119,1.);
#654=VECTOR('',#1120,1.);
#655=VECTOR('',#1121,1.);
#656=VECTOR('',#1124,1.);
#657=VECTOR('',#1127,1.);
#658=VECTOR('',#1128,1.);
#659=VECTOR('',#1129,1.);
#660=VECTOR('',#1132,1.);
#661=VECTOR('',#1145,1.);
#662=VECTOR('',#1146,1.);
#663=VECTOR('',#1147,1.);
#664=VECTOR('',#1148,1.);
#665=VECTOR('',#1149,1.);
#666=VECTOR('',#1150,1.);
#667=VECTOR('',#1153,1.);
#668=VECTOR('',#1156,1.);
#669=VECTOR('',#1157,1.);
#670=VECTOR('',#1158,1.);
#671=VECTOR('',#1161,1.);
#672=VECTOR('',#1164,1.);
#673=VECTOR('',#1171,1.);
#674=VECTOR('',#1174,1.);
#675=VECTOR('',#1179,1.);
#676=VECTOR('',#1182,1.);
#677=VECTOR('',#1185,1.);
#678=VECTOR('',#1188,1.);
#679=VECTOR('',#1191,1.);
#680=VECTOR('',#1194,1.);
#681=VECTOR('',#1195,1.);
#682=VECTOR('',#1196,1.);
#683=VECTOR('',#1197,1.);
#684=VECTOR('',#1198,1.);
#685=VECTOR('',#1199,1.);
#686=VECTOR('',#1200,1.);
#687=VECTOR('',#1211,1.);
#688=VECTOR('',#1212,1.);
#689=VECTOR('',#1213,1.);
#690=VECTOR('',#1216,1.);
#691=VECTOR('',#1217,1.);
#692=VECTOR('',#1218,1.);
#693=VECTOR('',#1223,1.);
#694=VECTOR('',#1224,1.);
#695=VECTOR('',#1225,1.);
#696=VECTOR('',#1228,1.);
#697=VECTOR('',#1233,1.);
#698=VECTOR('',#1238,1.);
#699=VECTOR('',#1243,1.);
#700=VECTOR('',#1254,1.);
#701=VECTOR('',#1255,1.);
#702=VECTOR('',#1256,1.);
#703=VECTOR('',#1259,1.);
#704=VECTOR('',#1260,1.);
#705=VECTOR('',#1261,1.);
#706=VECTOR('',#1266,1.);
#707=VECTOR('',#1267,1.);
#708=VECTOR('',#1268,1.);
#709=VECTOR('',#1271,1.);
#710=VECTOR('',#1272,1.);
#711=VECTOR('',#1273,1.);
#712=VECTOR('',#1274,1.);
#713=VECTOR('',#1285,1.);
#714=VECTOR('',#1286,1.);
#715=VECTOR('',#1289,1.);
#716=VECTOR('',#1290,1.);
#717=VECTOR('',#1293,1.);
#718=VECTOR('',#1294,1.);
#719=VECTOR('',#1297,1.);
#720=VECTOR('',#1298,1.);
#721=VECTOR('',#1349,1.);
#722=VECTOR('',#1350,1.);
#723=VECTOR('',#1353,1.);
#724=VECTOR('',#1356,1.);
#725=VECTOR('',#1359,1.);
#726=VECTOR('',#1362,1.);
#727=VECTOR('',#1365,1.);
#728=VECTOR('',#1368,1.);
#729=VECTOR('',#1371,1.);
#730=VECTOR('',#1374,1.);
#731=VECTOR('',#1377,1.);
#732=VECTOR('',#1380,1.);
#733=EDGE_LOOP('',(#81,#82,#83,#84));
#734=EDGE_LOOP('',(#85));
#735=EDGE_LOOP('',(#86));
#736=EDGE_LOOP('',(#87));
#737=EDGE_LOOP('',(#88));
#738=EDGE_LOOP('',(#89,#90,#91,#92,#93,#94,#95,#96,#97,#98,#99,#100));
#739=EDGE_LOOP('',(#101));
#740=EDGE_LOOP('',(#102));
#741=EDGE_LOOP('',(#103));
#742=EDGE_LOOP('',(#104));
#743=EDGE_LOOP('',(#105,#106,#107,#108));
#744=EDGE_LOOP('',(#109,#110,#111,#112,#113,#114,#115,#116,#117,#118,#119,
#120));
#745=EDGE_LOOP('',(#121));
#746=EDGE_LOOP('',(#122));
#747=EDGE_LOOP('',(#123,#124,#125,#126,#127,#128,#129,#130,#131,#132,#133,
#134,#135,#136,#137,#138));
#748=EDGE_LOOP('',(#139,#140,#141,#142,#143,#144,#145,#146));
#749=EDGE_LOOP('',(#147));
#750=EDGE_LOOP('',(#148));
#751=EDGE_LOOP('',(#149));
#752=EDGE_LOOP('',(#150));
#753=EDGE_LOOP('',(#151,#152,#153,#154));
#754=EDGE_LOOP('',(#155,#156,#157,#158));
#755=EDGE_LOOP('',(#159));
#756=EDGE_LOOP('',(#160,#161,#162,#163));
#757=EDGE_LOOP('',(#164,#165,#166,#167,#168,#169,#170,#171,#172,#173,#174,
#175,#176,#177,#178,#179));
#758=EDGE_LOOP('',(#180));
#759=EDGE_LOOP('',(#181));
#760=EDGE_LOOP('',(#182,#183,#184,#185));
#761=EDGE_LOOP('',(#186,#187,#188,#189));
#762=EDGE_LOOP('',(#190));
#763=EDGE_LOOP('',(#191,#192,#193,#194));
#764=EDGE_LOOP('',(#195,#196,#197,#198,#199,#200,#201,#202));
#765=EDGE_LOOP('',(#203,#204,#205,#206));
#766=EDGE_LOOP('',(#207,#208,#209,#210));
#767=EDGE_LOOP('',(#211,#212,#213,#214));
#768=EDGE_LOOP('',(#215,#216,#217,#218));
#769=EDGE_LOOP('',(#219,#220,#221,#222));
#770=EDGE_LOOP('',(#223,#224,#225,#226));
#771=EDGE_LOOP('',(#227,#228,#229,#230));
#772=EDGE_LOOP('',(#231,#232,#233,#234));
#773=EDGE_LOOP('',(#235,#236,#237,#238));
#774=EDGE_LOOP('',(#239,#240,#241,#242));
#775=EDGE_LOOP('',(#243,#244,#245,#246));
#776=EDGE_LOOP('',(#247,#248,#249,#250));
#777=EDGE_LOOP('',(#251,#252,#253,#254));
#778=EDGE_LOOP('',(#255,#256,#257,#258));
#779=EDGE_LOOP('',(#259,#260,#261,#262));
#780=EDGE_LOOP('',(#263,#264,#265,#266));
#781=EDGE_LOOP('',(#267));
#782=EDGE_LOOP('',(#268));
#783=EDGE_LOOP('',(#269));
#784=EDGE_LOOP('',(#270));
#785=EDGE_LOOP('',(#271));
#786=EDGE_LOOP('',(#272));
#787=EDGE_LOOP('',(#273));
#788=EDGE_LOOP('',(#274));
#789=EDGE_LOOP('',(#275));
#790=EDGE_LOOP('',(#276));
#791=EDGE_LOOP('',(#277));
#792=EDGE_LOOP('',(#278));
#793=EDGE_LOOP('',(#279));
#794=EDGE_LOOP('',(#280));
#795=EDGE_LOOP('',(#281));
#796=EDGE_LOOP('',(#282));
#797=EDGE_LOOP('',(#283));
#798=EDGE_LOOP('',(#284));
#799=EDGE_LOOP('',(#285));
#800=EDGE_LOOP('',(#286));
#801=EDGE_LOOP('',(#287,#288,#289,#290));
#802=EDGE_LOOP('',(#291,#292,#293,#294));
#803=EDGE_LOOP('',(#295,#296,#297,#298));
#804=EDGE_LOOP('',(#299,#300,#301,#302));
#805=EDGE_LOOP('',(#303,#304,#305,#306));
#806=EDGE_LOOP('',(#307,#308,#309,#310));
#807=EDGE_LOOP('',(#311,#312,#313,#314));
#808=EDGE_LOOP('',(#315,#316,#317,#318));
#809=EDGE_LOOP('',(#319,#320,#321,#322));
#810=EDGE_LOOP('',(#323,#324,#325,#326));
#811=EDGE_LOOP('',(#327,#328,#329,#330));
#812=EDGE_LOOP('',(#331,#332,#333,#334));
#813=EDGE_LOOP('',(#335));
#814=EDGE_LOOP('',(#336));
#815=EDGE_LOOP('',(#337));
#816=EDGE_LOOP('',(#338));
#817=EDGE_LOOP('',(#339));
#818=EDGE_LOOP('',(#340));
#819=FACE_BOUND('',#733,.T.);
#820=FACE_BOUND('',#734,.T.);
#821=FACE_BOUND('',#735,.T.);
#822=FACE_BOUND('',#736,.T.);
#823=FACE_BOUND('',#737,.T.);
#824=FACE_BOUND('',#738,.T.);
#825=FACE_BOUND('',#739,.T.);
#826=FACE_BOUND('',#740,.T.);
#827=FACE_BOUND('',#741,.T.);
#828=FACE_BOUND('',#742,.T.);
#829=FACE_BOUND('',#743,.T.);
#830=FACE_BOUND('',#744,.T.);
#831=FACE_BOUND('',#745,.T.);
#832=FACE_BOUND('',#746,.T.);
#833=FACE_BOUND('',#747,.T.);
#834=FACE_BOUND('',#748,.T.);
#835=FACE_BOUND('',#749,.T.);
#836=FACE_BOUND('',#750,.T.);
#837=FACE_BOUND('',#751,.T.);
#838=FACE_BOUND('',#752,.T.);
#839=FACE_BOUND('',#753,.T.);
#840=FACE_BOUND('',#754,.T.);
#841=FACE_BOUND('',#755,.T.);
#842=FACE_BOUND('',#756,.T.);
#843=FACE_BOUND('',#757,.T.);
#844=FACE_BOUND('',#758,.T.);
#845=FACE_BOUND('',#759,.T.);
#846=FACE_BOUND('',#760,.T.);
#847=FACE_BOUND('',#761,.T.);
#848=FACE_BOUND('',#762,.T.);
#849=FACE_BOUND('',#763,.T.);
#850=FACE_BOUND('',#764,.T.);
#851=FACE_BOUND('',#765,.T.);
#852=FACE_BOUND('',#766,.T.);
#853=FACE_BOUND('',#767,.T.);
#854=FACE_BOUND('',#768,.T.);
#855=FACE_BOUND('',#769,.T.);
#856=FACE_BOUND('',#770,.T.);
#857=FACE_BOUND('',#771,.T.);
#858=FACE_BOUND('',#772,.T.);
#859=FACE_BOUND('',#773,.T.);
#860=FACE_BOUND('',#774,.T.);
#861=FACE_BOUND('',#775,.T.);
#862=FACE_BOUND('',#776,.T.);
#863=FACE_BOUND('',#777,.T.);
#864=FACE_BOUND('',#778,.T.);
#865=FACE_BOUND('',#779,.T.);
#866=FACE_BOUND('',#780,.T.);
#867=FACE_BOUND('',#781,.T.);
#868=FACE_BOUND('',#782,.T.);
#869=FACE_BOUND('',#783,.T.);
#870=FACE_BOUND('',#784,.T.);
#871=FACE_BOUND('',#785,.T.);
#872=FACE_BOUND('',#786,.T.);
#873=FACE_BOUND('',#787,.T.);
#874=FACE_BOUND('',#788,.T.);
#875=FACE_BOUND('',#789,.T.);
#876=FACE_BOUND('',#790,.T.);
#877=FACE_BOUND('',#791,.T.);
#878=FACE_BOUND('',#792,.T.);
#879=FACE_BOUND('',#793,.T.);
#880=FACE_BOUND('',#794,.T.);
#881=FACE_BOUND('',#795,.T.);
#882=FACE_BOUND('',#796,.T.);
#883=FACE_BOUND('',#797,.T.);
#884=FACE_BOUND('',#798,.T.);
#885=FACE_BOUND('',#799,.T.);
#886=FACE_BOUND('',#800,.T.);
#887=FACE_BOUND('',#801,.T.);
#888=FACE_BOUND('',#802,.T.);
#889=FACE_BOUND('',#803,.T.);
#890=FACE_BOUND('',#804,.T.);
#891=FACE_BOUND('',#805,.T.);
#892=FACE_BOUND('',#806,.T.);
#893=FACE_BOUND('',#807,.T.);
#894=FACE_BOUND('',#808,.T.);
#895=FACE_BOUND('',#809,.T.);
#896=FACE_BOUND('',#810,.T.);
#897=FACE_BOUND('',#811,.T.);
#898=FACE_BOUND('',#812,.T.);
#899=FACE_BOUND('',#813,.T.);
#900=FACE_BOUND('',#814,.T.);
#901=FACE_BOUND('',#815,.T.);
#902=FACE_BOUND('',#816,.T.);
#903=FACE_BOUND('',#817,.T.);
#904=FACE_BOUND('',#818,.T.);
#905=PLANE('',#1003);
#906=PLANE('',#1012);
#907=PLANE('',#1021);
#908=PLANE('',#1034);
#909=PLANE('',#1037);
#910=PLANE('',#1038);
#911=PLANE('',#1040);
#912=PLANE('',#1049);
#913=PLANE('',#1052);
#914=PLANE('',#1053);
#915=PLANE('',#1055);
#916=PLANE('',#1056);
#917=PLANE('',#1057);
#918=PLANE('',#1058);
#919=PLANE('',#1059);
#920=PLANE('',#1060);
#921=PLANE('',#1061);
#922=PLANE('',#1062);
#923=PLANE('',#1063);
#924=PLANE('',#1074);
#925=PLANE('',#1077);
#926=PLANE('',#1080);
#927=PLANE('',#1083);
#928=PLANE('',#1088);
#929=PLANE('',#1090);
#930=PLANE('',#1092);
#931=PLANE('',#1093);
#932=PLANE('',#1094);
#933=PLANE('',#1096);
#934=PLANE('',#1098);
#935=PLANE('',#1099);
#936=ADVANCED_FACE('',(#819,#820,#821,#822,#823,#824),#905,.F.);
#937=ADVANCED_FACE('',(#825,#826,#827,#828,#829,#830),#906,.T.);
#938=ADVANCED_FACE('',(#831,#832,#833,#834,#835,#836),#907,.T.);
#939=ADVANCED_FACE('',(#837,#838,#839),#908,.T.);
#940=ADVANCED_FACE('',(#840),#909,.F.);
#941=ADVANCED_FACE('',(#841,#842),#910,.T.);
#942=ADVANCED_FACE('',(#843),#911,.F.);
#943=ADVANCED_FACE('',(#844,#845,#846),#912,.F.);
#944=ADVANCED_FACE('',(#847),#913,.T.);
#945=ADVANCED_FACE('',(#848,#849),#914,.F.);
#946=ADVANCED_FACE('',(#850),#915,.T.);
#947=ADVANCED_FACE('',(#851),#916,.F.);
#948=ADVANCED_FACE('',(#852),#917,.T.);
#949=ADVANCED_FACE('',(#853),#918,.T.);
#950=ADVANCED_FACE('',(#854),#919,.F.);
#951=ADVANCED_FACE('',(#855),#920,.T.);
#952=ADVANCED_FACE('',(#856),#921,.F.);
#953=ADVANCED_FACE('',(#857),#922,.F.);
#954=ADVANCED_FACE('',(#858),#923,.T.);
#955=ADVANCED_FACE('',(#859),#12,.T.);
#956=ADVANCED_FACE('',(#860),#13,.T.);
#957=ADVANCED_FACE('',(#861),#14,.T.);
#958=ADVANCED_FACE('',(#862),#15,.T.);
#959=ADVANCED_FACE('',(#863),#16,.T.);
#960=ADVANCED_FACE('',(#864),#17,.T.);
#961=ADVANCED_FACE('',(#865),#18,.T.);
#962=ADVANCED_FACE('',(#866),#19,.T.);
#963=ADVANCED_FACE('',(#867,#868),#20,.F.);
#964=ADVANCED_FACE('',(#869),#924,.T.);
#965=ADVANCED_FACE('',(#870,#871),#21,.F.);
#966=ADVANCED_FACE('',(#872),#925,.T.);
#967=ADVANCED_FACE('',(#873,#874),#22,.F.);
#968=ADVANCED_FACE('',(#875),#926,.T.);
#969=ADVANCED_FACE('',(#876,#877),#23,.F.);
#970=ADVANCED_FACE('',(#878),#927,.T.);
#971=ADVANCED_FACE('',(#879,#880),#24,.F.);
#972=ADVANCED_FACE('',(#881,#882),#25,.F.);
#973=ADVANCED_FACE('',(#883,#884),#26,.F.);
#974=ADVANCED_FACE('',(#885,#886),#27,.F.);
#975=ADVANCED_FACE('',(#887),#928,.T.);
#976=ADVANCED_FACE('',(#888),#28,.T.);
#977=ADVANCED_FACE('',(#889),#929,.F.);
#978=ADVANCED_FACE('',(#890),#29,.T.);
#979=ADVANCED_FACE('',(#891),#930,.F.);
#980=ADVANCED_FACE('',(#892),#931,.F.);
#981=ADVANCED_FACE('',(#893),#932,.T.);
#982=ADVANCED_FACE('',(#894),#30,.T.);
#983=ADVANCED_FACE('',(#895),#933,.F.);
#984=ADVANCED_FACE('',(#896),#31,.T.);
#985=ADVANCED_FACE('',(#897),#934,.F.);
#986=ADVANCED_FACE('',(#898),#935,.T.);
#987=ADVANCED_FACE('',(#899,#900),#32,.F.);
#988=ADVANCED_FACE('',(#901,#902),#33,.F.);
#989=ADVANCED_FACE('',(#903,#904),#34,.F.);
#990=CLOSED_SHELL('',(#936,#937,#938,#939,#940,#941,#942,#943,#944,#945,
#946,#947,#948,#949,#950,#951,#952,#953,#954,#955,#956,#957,#958,#959,#960,
#961,#962,#963,#964,#965,#966,#967,#968,#969,#970,#971,#972,#973,#974,#975,
#976,#977,#978,#979,#980,#981,#982,#983,#984,#985,#986,#987,#988,#989));
#991=STYLED_ITEM('',(#992),#999);
#992=PRESENTATION_STYLE_ASSIGNMENT((#993));
#993=SURFACE_STYLE_USAGE(.BOTH.,#994);
#994=SURFACE_SIDE_STYLE('',(#995));
#995=SURFACE_STYLE_FILL_AREA(#996);
#996=FILL_AREA_STYLE('',(#997));
#997=FILL_AREA_STYLE_COLOUR('',#998);
#998=COLOUR_RGB('',0.615686274509804,0.811764705882353,0.929411764705882);
#999=MANIFOLD_SOLID_BREP('Base',#990);
#1000=SHAPE_DEFINITION_REPRESENTATION(#1674,#1001);
#1001=SHAPE_REPRESENTATION('Base',(#1002),#1669);
#1002=AXIS2_PLACEMENT_3D('',#1389,#1103,#1104);
#1003=AXIS2_PLACEMENT_3D('',#1390,#1105,#1106);
#1004=AXIS2_PLACEMENT_3D('',#1399,#1111,#1112);
#1005=AXIS2_PLACEMENT_3D('',#1401,#1113,#1114);
#1006=AXIS2_PLACEMENT_3D('',#1403,#1115,#1116);
#1007=AXIS2_PLACEMENT_3D('',#1405,#1117,#1118);
#1008=AXIS2_PLACEMENT_3D('',#1414,#1122,#1123);
#1009=AXIS2_PLACEMENT_3D('',#1418,#1125,#1126);
#1010=AXIS2_PLACEMENT_3D('',#1426,#1130,#1131);
#1011=AXIS2_PLACEMENT_3D('',#1430,#1133,#1134);
#1012=AXIS2_PLACEMENT_3D('',#1431,#1135,#1136);
#1013=AXIS2_PLACEMENT_3D('',#1432,#1137,#1138);
#1014=AXIS2_PLACEMENT_3D('',#1434,#1139,#1140);
#1015=AXIS2_PLACEMENT_3D('',#1436,#1141,#1142);
#1016=AXIS2_PLACEMENT_3D('',#1438,#1143,#1144);
#1017=AXIS2_PLACEMENT_3D('',#1453,#1151,#1152);
#1018=AXIS2_PLACEMENT_3D('',#1457,#1154,#1155);
#1019=AXIS2_PLACEMENT_3D('',#1465,#1159,#1160);
#1020=AXIS2_PLACEMENT_3D('',#1469,#1162,#1163);
#1021=AXIS2_PLACEMENT_3D('',#1472,#1165,#1166);
#1022=AXIS2_PLACEMENT_3D('',#1473,#1167,#1168);
#1023=AXIS2_PLACEMENT_3D('',#1475,#1169,#1170);
#1024=AXIS2_PLACEMENT_3D('',#1480,#1172,#1173);
#1025=AXIS2_PLACEMENT_3D('',#1484,#1175,#1176);
#1026=AXIS2_PLACEMENT_3D('',#1485,#1177,#1178);
#1027=AXIS2_PLACEMENT_3D('',#1489,#1180,#1181);
#1028=AXIS2_PLACEMENT_3D('',#1493,#1183,#1184);
#1029=AXIS2_PLACEMENT_3D('',#1497,#1186,#1187);
#1030=AXIS2_PLACEMENT_3D('',#1501,#1189,#1190);
#1031=AXIS2_PLACEMENT_3D('',#1505,#1192,#1193);
#1032=AXIS2_PLACEMENT_3D('',#1519,#1201,#1202);
#1033=AXIS2_PLACEMENT_3D('',#1521,#1203,#1204);
#1034=AXIS2_PLACEMENT_3D('',#1523,#1205,#1206);
#1035=AXIS2_PLACEMENT_3D('',#1524,#1207,#1208);
#1036=AXIS2_PLACEMENT_3D('',#1526,#1209,#1210);
#1037=AXIS2_PLACEMENT_3D('',#1533,#1214,#1215);
#1038=AXIS2_PLACEMENT_3D('',#1539,#1219,#1220);
#1039=AXIS2_PLACEMENT_3D('',#1540,#1221,#1222);
#1040=AXIS2_PLACEMENT_3D('',#1547,#1226,#1227);
#1041=AXIS2_PLACEMENT_3D('',#1551,#1229,#1230);
#1042=AXIS2_PLACEMENT_3D('',#1552,#1231,#1232);
#1043=AXIS2_PLACEMENT_3D('',#1556,#1234,#1235);
#1044=AXIS2_PLACEMENT_3D('',#1557,#1236,#1237);
#1045=AXIS2_PLACEMENT_3D('',#1561,#1239,#1240);
#1046=AXIS2_PLACEMENT_3D('',#1562,#1241,#1242);
#1047=AXIS2_PLACEMENT_3D('',#1566,#1244,#1245);
#1048=AXIS2_PLACEMENT_3D('',#1567,#1246,#1247);
#1049=AXIS2_PLACEMENT_3D('',#1568,#1248,#1249);
#1050=AXIS2_PLACEMENT_3D('',#1569,#1250,#1251);
#1051=AXIS2_PLACEMENT_3D('',#1571,#1252,#1253);
#1052=AXIS2_PLACEMENT_3D('',#1578,#1257,#1258);
#1053=AXIS2_PLACEMENT_3D('',#1584,#1262,#1263);
#1054=AXIS2_PLACEMENT_3D('',#1585,#1264,#1265);
#1055=AXIS2_PLACEMENT_3D('',#1592,#1269,#1270);
#1056=AXIS2_PLACEMENT_3D('',#1597,#1275,#1276);
#1057=AXIS2_PLACEMENT_3D('',#1598,#1277,#1278);
#1058=AXIS2_PLACEMENT_3D('',#1599,#1279,#1280);
#1059=AXIS2_PLACEMENT_3D('',#1600,#1281,#1282);
#1060=AXIS2_PLACEMENT_3D('',#1601,#1283,#1284);
#1061=AXIS2_PLACEMENT_3D('',#1604,#1287,#1288);
#1062=AXIS2_PLACEMENT_3D('',#1607,#1291,#1292);
#1063=AXIS2_PLACEMENT_3D('',#1610,#1295,#1296);
#1064=AXIS2_PLACEMENT_3D('',#1613,#1299,#1300);
#1065=AXIS2_PLACEMENT_3D('',#1614,#1301,#1302);
#1066=AXIS2_PLACEMENT_3D('',#1615,#1303,#1304);
#1067=AXIS2_PLACEMENT_3D('',#1616,#1305,#1306);
#1068=AXIS2_PLACEMENT_3D('',#1617,#1307,#1308);
#1069=AXIS2_PLACEMENT_3D('',#1618,#1309,#1310);
#1070=AXIS2_PLACEMENT_3D('',#1619,#1311,#1312);
#1071=AXIS2_PLACEMENT_3D('',#1620,#1313,#1314);
#1072=AXIS2_PLACEMENT_3D('',#1621,#1315,#1316);
#1073=AXIS2_PLACEMENT_3D('',#1622,#1317,#1318);
#1074=AXIS2_PLACEMENT_3D('',#1624,#1319,#1320);
#1075=AXIS2_PLACEMENT_3D('',#1625,#1321,#1322);
#1076=AXIS2_PLACEMENT_3D('',#1626,#1323,#1324);
#1077=AXIS2_PLACEMENT_3D('',#1628,#1325,#1326);
#1078=AXIS2_PLACEMENT_3D('',#1629,#1327,#1328);
#1079=AXIS2_PLACEMENT_3D('',#1630,#1329,#1330);
#1080=AXIS2_PLACEMENT_3D('',#1632,#1331,#1332);
#1081=AXIS2_PLACEMENT_3D('',#1633,#1333,#1334);
#1082=AXIS2_PLACEMENT_3D('',#1634,#1335,#1336);
#1083=AXIS2_PLACEMENT_3D('',#1636,#1337,#1338);
#1084=AXIS2_PLACEMENT_3D('',#1637,#1339,#1340);
#1085=AXIS2_PLACEMENT_3D('',#1638,#1341,#1342);
#1086=AXIS2_PLACEMENT_3D('',#1639,#1343,#1344);
#1087=AXIS2_PLACEMENT_3D('',#1640,#1345,#1346);
#1088=AXIS2_PLACEMENT_3D('',#1641,#1347,#1348);
#1089=AXIS2_PLACEMENT_3D('',#1644,#1351,#1352);
#1090=AXIS2_PLACEMENT_3D('',#1646,#1354,#1355);
#1091=AXIS2_PLACEMENT_3D('',#1648,#1357,#1358);
#1092=AXIS2_PLACEMENT_3D('',#1650,#1360,#1361);
#1093=AXIS2_PLACEMENT_3D('',#1652,#1363,#1364);
#1094=AXIS2_PLACEMENT_3D('',#1654,#1366,#1367);
#1095=AXIS2_PLACEMENT_3D('',#1656,#1369,#1370);
#1096=AXIS2_PLACEMENT_3D('',#1658,#1372,#1373);
#1097=AXIS2_PLACEMENT_3D('',#1660,#1375,#1376);
#1098=AXIS2_PLACEMENT_3D('',#1662,#1378,#1379);
#1099=AXIS2_PLACEMENT_3D('',#1664,#1381,#1382);
#1100=AXIS2_PLACEMENT_3D('',#1665,#1383,#1384);
#1101=AXIS2_PLACEMENT_3D('',#1666,#1385,#1386);
#1102=AXIS2_PLACEMENT_3D('',#1667,#1387,#1388);
#1103=DIRECTION('',(0.,0.,1.));
#1104=DIRECTION('',(1.,0.,0.));
#1105=DIRECTION('',(0.,1.,0.));
#1106=DIRECTION('',(0.,0.,1.));
#1107=DIRECTION('',(1.,0.,0.));
#1108=DIRECTION('',(0.,0.,1.));
#1109=DIRECTION('',(1.,0.,0.));
#1110=DIRECTION('',(0.,0.,1.));
#1111=DIRECTION('',(0.,-1.,0.));
#1112=DIRECTION('',(0.,0.,-1.));
#1113=DIRECTION('',(0.,-1.,0.));
#1114=DIRECTION('',(0.,0.,-1.));
#1115=DIRECTION('',(0.,-1.,0.));
#1116=DIRECTION('',(0.,0.,-1.));
#1117=DIRECTION('',(0.,-1.,0.));
#1118=DIRECTION('',(0.,0.,-1.));
#1119=DIRECTION('',(-1.,0.,0.));
#1120=DIRECTION('',(-2.83199840778023E-16,0.,1.));
#1121=DIRECTION('',(-1.,0.,0.));
#1122=DIRECTION('',(0.,-1.,0.));
#1123=DIRECTION('',(0.,0.,-1.));
#1124=DIRECTION('',(-1.,0.,0.));
#1125=DIRECTION('',(0.,-1.,0.));
#1126=DIRECTION('',(0.,0.,-1.));
#1127=DIRECTION('',(1.,0.,0.));
#1128=DIRECTION('',(-2.83199840778023E-16,0.,1.));
#1129=DIRECTION('',(1.,0.,0.));
#1130=DIRECTION('',(0.,-1.,0.));
#1131=DIRECTION('',(0.,0.,-1.));
#1132=DIRECTION('',(1.,0.,0.));
#1133=DIRECTION('',(0.,-1.,0.));
#1134=DIRECTION('',(0.,0.,-1.));
#1135=DIRECTION('',(0.,1.,0.));
#1136=DIRECTION('',(0.,0.,1.));
#1137=DIRECTION('',(0.,1.,0.));
#1138=DIRECTION('',(0.,0.,1.));
#1139=DIRECTION('',(0.,1.,0.));
#1140=DIRECTION('',(0.,0.,1.));
#1141=DIRECTION('',(0.,1.,0.));
#1142=DIRECTION('',(0.,0.,1.));
#1143=DIRECTION('',(0.,1.,0.));
#1144=DIRECTION('',(0.,0.,1.));
#1145=DIRECTION('',(1.,0.,0.));
#1146=DIRECTION('',(0.,0.,-1.));
#1147=DIRECTION('',(1.,0.,0.));
#1148=DIRECTION('',(0.,0.,1.));
#1149=DIRECTION('',(2.83199840778023E-16,0.,-1.));
#1150=DIRECTION('',(1.,0.,0.));
#1151=DIRECTION('',(0.,1.,0.));
#1152=DIRECTION('',(0.,0.,1.));
#1153=DIRECTION('',(-1.,0.,0.));
#1154=DIRECTION('',(0.,1.,0.));
#1155=DIRECTION('',(0.,0.,1.));
#1156=DIRECTION('',(-1.,0.,0.));
#1157=DIRECTION('',(2.83199840778023E-16,0.,-1.));
#1158=DIRECTION('',(-1.,0.,0.));
#1159=DIRECTION('',(0.,1.,0.));
#1160=DIRECTION('',(0.,0.,1.));
#1161=DIRECTION('',(1.,0.,0.));
#1162=DIRECTION('',(0.,1.,0.));
#1163=DIRECTION('',(0.,0.,1.));
#1164=DIRECTION('',(1.,0.,0.));
#1165=DIRECTION('',(0.,0.,1.));
#1166=DIRECTION('',(1.,0.,0.));
#1167=DIRECTION('',(0.,0.,-1.));
#1168=DIRECTION('',(1.,0.,0.));
#1169=DIRECTION('',(0.,0.,1.));
#1170=DIRECTION('',(1.,0.,0.));
#1171=DIRECTION('',(-1.38777878078144E-16,-1.,0.));
#1172=DIRECTION('',(0.,0.,1.));
#1173=DIRECTION('',(1.,0.,0.));
#1174=DIRECTION('',(-0.707106781186547,0.707106781186548,0.));
#1175=DIRECTION('',(0.,0.,1.));
#1176=DIRECTION('',(1.,0.,0.));
#1177=DIRECTION('',(0.,0.,1.));
#1178=DIRECTION('',(1.,0.,0.));
#1179=DIRECTION('',(0.70710678118655,0.707106781186545,0.));
#1180=DIRECTION('',(0.,0.,1.));
#1181=DIRECTION('',(1.,0.,0.));
#1182=DIRECTION('',(-1.38777878078144E-16,-1.,0.));
#1183=DIRECTION('',(0.,0.,1.));
#1184=DIRECTION('',(1.,0.,0.));
#1185=DIRECTION('',(0.707106781186549,-0.707106781186547,0.));
#1186=DIRECTION('',(0.,0.,1.));
#1187=DIRECTION('',(1.,0.,0.));
#1188=DIRECTION('',(1.,0.,0.));
#1189=DIRECTION('',(0.,0.,1.));
#1190=DIRECTION('',(1.,0.,0.));
#1191=DIRECTION('',(-0.707106781186548,-0.707106781186547,0.));
#1192=DIRECTION('',(0.,0.,1.));
#1193=DIRECTION('',(1.,0.,0.));
#1194=DIRECTION('',(-1.38777878078144E-16,-1.,0.));
#1195=DIRECTION('',(0.707106781186548,0.707106781186547,0.));
#1196=DIRECTION('',(1.,0.,0.));
#1197=DIRECTION('',(-0.707106781186548,0.707106781186547,0.));
#1198=DIRECTION('',(-1.38777878078144E-16,-1.,0.));
#1199=DIRECTION('',(-0.707106781186548,-0.707106781186547,0.));
#1200=DIRECTION('',(0.707106781186548,-0.707106781186547,0.));
#1201=DIRECTION('',(0.,0.,1.));
#1202=DIRECTION('',(1.,0.,0.));
#1203=DIRECTION('',(0.,0.,-1.));
#1204=DIRECTION('',(1.,0.,0.));
#1205=DIRECTION('',(0.,1.,0.));
#1206=DIRECTION('',(0.,0.,1.));
#1207=DIRECTION('',(0.,1.,0.));
#1208=DIRECTION('',(0.,0.,1.));
#1209=DIRECTION('',(0.,1.,0.));
#1210=DIRECTION('',(0.,0.,1.));
#1211=DIRECTION('',(1.,0.,0.));
#1212=DIRECTION('',(0.,0.,1.));
#1213=DIRECTION('',(0.,0.,1.));
#1214=DIRECTION('',(1.,-1.38777878078144E-16,0.));
#1215=DIRECTION('',(1.38777878078144E-16,1.,0.));
#1216=DIRECTION('',(-1.38777878078144E-16,-1.,0.));
#1217=DIRECTION('',(0.,0.,-1.));
#1218=DIRECTION('',(0.,0.,-1.));
#1219=DIRECTION('',(1.,-1.38777878078144E-16,0.));
#1220=DIRECTION('',(1.38777878078144E-16,1.,0.));
#1221=DIRECTION('',(1.,-1.38777878078144E-16,0.));
#1222=DIRECTION('',(1.38777878078144E-16,1.,0.));
#1223=DIRECTION('',(-1.38777878078144E-16,-1.,0.));
#1224=DIRECTION('',(0.,0.,-1.));
#1225=DIRECTION('',(0.,0.,-1.));
#1226=DIRECTION('',(0.,0.,1.));
#1227=DIRECTION('',(1.,0.,0.));
#1228=DIRECTION('',(0.707106781186547,-0.707106781186548,0.));
#1229=DIRECTION('',(0.,0.,1.));
#1230=DIRECTION('',(1.,0.,0.));
#1231=DIRECTION('',(0.,0.,1.));
#1232=DIRECTION('',(1.,0.,0.));
#1233=DIRECTION('',(0.707106781186548,0.707106781186547,0.));
#1234=DIRECTION('',(0.,0.,1.));
#1235=DIRECTION('',(1.,0.,0.));
#1236=DIRECTION('',(0.,0.,1.));
#1237=DIRECTION('',(1.,0.,0.));
#1238=DIRECTION('',(-0.707106781186549,0.707106781186547,0.));
#1239=DIRECTION('',(0.,0.,1.));
#1240=DIRECTION('',(1.,0.,0.));
#1241=DIRECTION('',(0.,0.,1.));
#1242=DIRECTION('',(1.,0.,0.));
#1243=DIRECTION('',(-0.70710678118655,-0.707106781186545,0.));
#1244=DIRECTION('',(0.,0.,1.));
#1245=DIRECTION('',(1.,0.,0.));
#1246=DIRECTION('',(0.,0.,1.));
#1247=DIRECTION('',(1.,0.,0.));
#1248=DIRECTION('',(0.,1.,0.));
#1249=DIRECTION('',(0.,0.,1.));
#1250=DIRECTION('',(0.,1.,0.));
#1251=DIRECTION('',(0.,0.,1.));
#1252=DIRECTION('',(0.,1.,0.));
#1253=DIRECTION('',(0.,0.,1.));
#1254=DIRECTION('',(1.,0.,0.));
#1255=DIRECTION('',(0.,0.,1.));
#1256=DIRECTION('',(0.,0.,-1.));
#1257=DIRECTION('',(1.,-1.38777878078144E-16,0.));
#1258=DIRECTION('',(1.38777878078144E-16,1.,0.));
#1259=DIRECTION('',(0.,0.,-1.));
#1260=DIRECTION('',(-1.38777878078144E-16,-1.,0.));
#1261=DIRECTION('',(0.,0.,1.));
#1262=DIRECTION('',(1.,-1.38777878078144E-16,0.));
#1263=DIRECTION('',(1.38777878078144E-16,1.,0.));
#1264=DIRECTION('',(1.,-1.38777878078144E-16,0.));
#1265=DIRECTION('',(1.38777878078144E-16,1.,0.));
#1266=DIRECTION('',(-1.38777878078144E-16,-1.,0.));
#1267=DIRECTION('',(0.,0.,1.));
#1268=DIRECTION('',(0.,0.,-1.));
#1269=DIRECTION('',(0.,0.,1.));
#1270=DIRECTION('',(1.,0.,0.));
#1271=DIRECTION('',(0.707106781186548,0.707106781186547,0.));
#1272=DIRECTION('',(0.707106781186548,-0.707106781186547,0.));
#1273=DIRECTION('',(-0.707106781186548,-0.707106781186547,0.));
#1274=DIRECTION('',(-0.707106781186548,0.707106781186547,0.));
#1275=DIRECTION('',(0.707106781186547,-0.707106781186548,0.));
#1276=DIRECTION('',(0.,0.,-1.));
#1277=DIRECTION('',(0.707106781186547,0.707106781186548,0.));
#1278=DIRECTION('',(0.,0.,1.));
#1279=DIRECTION('',(-0.707106781186547,-0.707106781186548,0.));
#1280=DIRECTION('',(0.,0.,1.));
#1281=DIRECTION('',(-0.707106781186547,0.707106781186548,0.));
#1282=DIRECTION('',(0.,0.,-1.));
#1283=DIRECTION('',(0.707106781186545,-0.70710678118655,0.));
#1284=DIRECTION('',(0.,0.,1.));
#1285=DIRECTION('',(0.,0.,1.));
#1286=DIRECTION('',(0.,0.,-1.));
#1287=DIRECTION('',(0.707106781186548,0.707106781186547,0.));
#1288=DIRECTION('',(0.,0.,-1.));
#1289=DIRECTION('',(0.,0.,1.));
#1290=DIRECTION('',(0.,0.,-1.));
#1291=DIRECTION('',(-0.707106781186547,-0.707106781186549,0.));
#1292=DIRECTION('',(0.,0.,-1.));
#1293=DIRECTION('',(0.,0.,-1.));
#1294=DIRECTION('',(0.,0.,1.));
#1295=DIRECTION('',(-0.707106781186547,0.707106781186548,0.));
#1296=DIRECTION('',(0.,0.,1.));
#1297=DIRECTION('',(0.,0.,1.));
#1298=DIRECTION('',(0.,0.,-1.));
#1299=DIRECTION('',(0.,0.,1.));
#1300=DIRECTION('',(1.,0.,0.));
#1301=DIRECTION('',(0.,0.,-1.));
#1302=DIRECTION('',(-1.,0.,0.));
#1303=DIRECTION('',(0.,0.,1.));
#1304=DIRECTION('',(1.,0.,0.));
#1305=DIRECTION('',(0.,0.,1.));
#1306=DIRECTION('',(1.,0.,0.));
#1307=DIRECTION('',(0.,0.,1.));
#1308=DIRECTION('',(1.,0.,0.));
#1309=DIRECTION('',(0.,0.,-1.));
#1310=DIRECTION('',(-1.,0.,0.));
#1311=DIRECTION('',(0.,0.,-1.));
#1312=DIRECTION('',(-1.,0.,0.));
#1313=DIRECTION('',(0.,0.,-1.));
#1314=DIRECTION('',(-1.,0.,0.));
#1315=DIRECTION('',(0.,0.,1.));
#1316=DIRECTION('',(1.,0.,0.));
#1317=DIRECTION('',(0.,0.,1.));
#1318=DIRECTION('',(1.,0.,0.));
#1319=DIRECTION('',(0.,0.,1.));
#1320=DIRECTION('',(1.,0.,0.));
#1321=DIRECTION('',(0.,0.,1.));
#1322=DIRECTION('',(1.,0.,0.));
#1323=DIRECTION('',(0.,0.,-1.));
#1324=DIRECTION('',(1.,0.,0.));
#1325=DIRECTION('',(0.,0.,1.));
#1326=DIRECTION('',(1.,0.,0.));
#1327=DIRECTION('',(0.,0.,1.));
#1328=DIRECTION('',(1.,0.,0.));
#1329=DIRECTION('',(0.,0.,1.));
#1330=DIRECTION('',(1.,0.,0.));
#1331=DIRECTION('',(0.,0.,1.));
#1332=DIRECTION('',(1.,0.,0.));
#1333=DIRECTION('',(0.,0.,1.));
#1334=DIRECTION('',(1.,0.,0.));
#1335=DIRECTION('',(0.,0.,-1.));
#1336=DIRECTION('',(1.,0.,0.));
#1337=DIRECTION('',(0.,0.,1.));
#1338=DIRECTION('',(1.,0.,0.));
#1339=DIRECTION('',(0.,-1.,0.));
#1340=DIRECTION('',(0.,0.,-1.));
#1341=DIRECTION('',(0.,-1.,0.));
#1342=DIRECTION('',(0.,0.,-1.));
#1343=DIRECTION('',(0.,-1.,0.));
#1344=DIRECTION('',(0.,0.,-1.));
#1345=DIRECTION('',(0.,-1.,0.));
#1346=DIRECTION('',(0.,0.,-1.));
#1347=DIRECTION('',(0.,0.,1.));
#1348=DIRECTION('',(1.,0.,0.));
#1349=DIRECTION('',(0.,-1.,0.));
#1350=DIRECTION('',(0.,-1.,0.));
#1351=DIRECTION('',(0.,-1.,0.));
#1352=DIRECTION('',(0.,0.,-1.));
#1353=DIRECTION('',(0.,-1.,0.));
#1354=DIRECTION('',(0.,0.,-1.));
#1355=DIRECTION('',(-1.,0.,0.));
#1356=DIRECTION('',(0.,-1.,0.));
#1357=DIRECTION('',(0.,-1.,0.));
#1358=DIRECTION('',(0.,0.,-1.));
#1359=DIRECTION('',(0.,-1.,0.));
#1360=DIRECTION('',(0.,0.,-1.));
#1361=DIRECTION('',(-1.,0.,0.));
#1362=DIRECTION('',(0.,-1.,0.));
#1363=DIRECTION('',(1.,0.,2.83199840778023E-16));
#1364=DIRECTION('',(2.83199840778023E-16,0.,-1.));
#1365=DIRECTION('',(0.,-1.,0.));
#1366=DIRECTION('',(0.,0.,-1.));
#1367=DIRECTION('',(-1.,0.,0.));
#1368=DIRECTION('',(0.,-1.,0.));
#1369=DIRECTION('',(0.,-1.,0.));
#1370=DIRECTION('',(0.,0.,-1.));
#1371=DIRECTION('',(0.,-1.,0.));
#1372=DIRECTION('',(0.,0.,1.));
#1373=DIRECTION('',(1.,0.,0.));
#1374=DIRECTION('',(0.,-1.,0.));
#1375=DIRECTION('',(0.,-1.,0.));
#1376=DIRECTION('',(0.,0.,-1.));
#1377=DIRECTION('',(0.,-1.,0.));
#1378=DIRECTION('',(0.,0.,1.));
#1379=DIRECTION('',(1.,0.,0.));
#1380=DIRECTION('',(0.,-1.,0.));
#1381=DIRECTION('',(1.,0.,2.83199840778023E-16));
#1382=DIRECTION('',(2.83199840778023E-16,0.,-1.));
#1383=DIRECTION('',(0.,1.,0.));
#1384=DIRECTION('',(0.,0.,1.));
#1385=DIRECTION('',(0.,1.,0.));
#1386=DIRECTION('',(0.,0.,1.));
#1387=DIRECTION('',(1.,-1.38777878078144E-16,0.));
#1388=DIRECTION('',(1.38777878078144E-16,1.,0.));
#1389=CARTESIAN_POINT('',(0.,0.,0.));
#1390=CARTESIAN_POINT('',(0.,-0.05,0.1));
#1391=CARTESIAN_POINT('',(0.,-0.05,0.1));
#1392=CARTESIAN_POINT('',(-0.0804289321881345,-0.05,0.1));
#1393=CARTESIAN_POINT('',(0.0804289321881345,-0.05,0.1));
#1394=CARTESIAN_POINT('',(-0.0804289321881345,-0.05,0.));
#1395=CARTESIAN_POINT('',(-0.0804289321881345,-0.05,0.));
#1396=CARTESIAN_POINT('',(0.,-0.05,0.));
#1397=CARTESIAN_POINT('',(0.0804289321881345,-0.05,0.));
#1398=CARTESIAN_POINT('',(0.0804289321881345,-0.05,0.1));
#1399=CARTESIAN_POINT('',(-0.0466026821744423,-0.05,0.0852673662838844));
#1400=CARTESIAN_POINT('',(-0.0466026821744423,-0.05,0.0836923662838844));
#1401=CARTESIAN_POINT('',(-0.0466026821744423,-0.05,0.0302673662838844));
#1402=CARTESIAN_POINT('',(-0.0466026821744423,-0.05,0.0286923662838844));
#1403=CARTESIAN_POINT('',(0.0463973178255577,-0.05,0.0302673662838844));
#1404=CARTESIAN_POINT('',(0.0463973178255577,-0.05,0.0286923662838844));
#1405=CARTESIAN_POINT('',(0.0463973178255577,-0.05,0.0852673662838844));
#1406=CARTESIAN_POINT('',(0.0463973178255577,-0.05,0.0836923662838844));
#1407=CARTESIAN_POINT('',(-0.04775,-0.05,0.0332656084974242));
#1408=CARTESIAN_POINT('',(-0.0465,-0.05,0.0332656084974242));
#1409=CARTESIAN_POINT('',(-0.049,-0.05,0.0332656084974242));
#1410=CARTESIAN_POINT('',(-0.049,-0.05,0.0577673662838844));
#1411=CARTESIAN_POINT('',(-0.049,-0.05,0.0822691240703447));
#1412=CARTESIAN_POINT('',(-0.04775,-0.05,0.0822691240703447));
#1413=CARTESIAN_POINT('',(-0.0465,-0.05,0.0822691240703446));
#1414=CARTESIAN_POINT('',(-0.0466026821744423,-0.05,0.0852673662838844));
#1415=CARTESIAN_POINT('',(-0.04404937549486,-0.05,0.0868423662838844));
#1416=CARTESIAN_POINT('',(-0.000102682174442321,-0.05,0.0868423662838844));
#1417=CARTESIAN_POINT('',(0.0438440111459753,-0.05,0.0868423662838844));
#1418=CARTESIAN_POINT('',(0.0463973178255577,-0.05,0.0852673662838844));
#1419=CARTESIAN_POINT('',(0.0465,-0.05,0.0822691240703447));
#1420=CARTESIAN_POINT('',(0.04775,-0.05,0.0822691240703447));
#1421=CARTESIAN_POINT('',(0.049,-0.05,0.0822691240703447));
#1422=CARTESIAN_POINT('',(0.049,-0.05,0.0577673662838844));
#1423=CARTESIAN_POINT('',(0.049,-0.05,0.0332656084974242));
#1424=CARTESIAN_POINT('',(0.04775,-0.05,0.0332656084974242));
#1425=CARTESIAN_POINT('',(0.0465,-0.05,0.0332656084974242));
#1426=CARTESIAN_POINT('',(0.0463973178255577,-0.05,0.0302673662838844));
#1427=CARTESIAN_POINT('',(0.0438440111459753,-0.05,0.0286923662838844));
#1428=CARTESIAN_POINT('',(-0.000102682174442321,-0.05,0.0286923662838844));
#1429=CARTESIAN_POINT('',(-0.04404937549486,-0.05,0.0286923662838844));
#1430=CARTESIAN_POINT('',(-0.0466026821744423,-0.05,0.0302673662838844));
#1431=CARTESIAN_POINT('',(0.,-0.0425,0.1));
#1432=CARTESIAN_POINT('',(0.0463973178255577,-0.0425,0.0852673662838844));
#1433=CARTESIAN_POINT('',(0.0463973178255577,-0.0425,0.0868423662838844));
#1434=CARTESIAN_POINT('',(0.0463973178255577,-0.0425,0.0302673662838844));
#1435=CARTESIAN_POINT('',(0.0463973178255577,-0.0425,0.0318423662838844));
#1436=CARTESIAN_POINT('',(-0.0466026821744423,-0.0425,0.0302673662838844));
#1437=CARTESIAN_POINT('',(-0.0466026821744423,-0.0425,0.0318423662838844));
#1438=CARTESIAN_POINT('',(-0.0466026821744423,-0.0425,0.0852673662838844));
#1439=CARTESIAN_POINT('',(-0.0466026821744423,-0.0425,0.0868423662838844));
#1440=CARTESIAN_POINT('',(0.,-0.0425,0.1));
#1441=CARTESIAN_POINT('',(-0.075,-0.0425,0.1));
#1442=CARTESIAN_POINT('',(0.075,-0.0425,0.1));
#1443=CARTESIAN_POINT('',(0.075,-0.0425,0.1));
#1444=CARTESIAN_POINT('',(0.075,-0.0425,0.0075));
#1445=CARTESIAN_POINT('',(0.,-0.0425,0.0075));
#1446=CARTESIAN_POINT('',(-0.075,-0.0425,0.0075));
#1447=CARTESIAN_POINT('',(-0.075,-0.0425,0.1));
#1448=CARTESIAN_POINT('',(-0.049,-0.0425,0.1));
#1449=CARTESIAN_POINT('',(-0.049,-0.0425,0.0822691240703447));
#1450=CARTESIAN_POINT('',(-0.049,-0.0425,0.0332656084974242));
#1451=CARTESIAN_POINT('',(0.,-0.0425,0.0332656084974242));
#1452=CARTESIAN_POINT('',(-0.0465,-0.0425,0.0332656084974242));
#1453=CARTESIAN_POINT('',(-0.0466026821744423,-0.0425,0.0302673662838844));
#1454=CARTESIAN_POINT('',(-0.04404937549486,-0.0425,0.0286923662838844));
#1455=CARTESIAN_POINT('',(0.,-0.0425,0.0286923662838844));
#1456=CARTESIAN_POINT('',(0.0438440111459753,-0.0425,0.0286923662838844));
#1457=CARTESIAN_POINT('',(0.0463973178255577,-0.0425,0.0302673662838844));
#1458=CARTESIAN_POINT('',(0.0465,-0.0425,0.0332656084974242));
#1459=CARTESIAN_POINT('',(0.,-0.0425,0.0332656084974242));
#1460=CARTESIAN_POINT('',(0.049,-0.0425,0.0332656084974242));
#1461=CARTESIAN_POINT('',(0.049,-0.0425,0.1));
#1462=CARTESIAN_POINT('',(0.049,-0.0425,0.0822691240703447));
#1463=CARTESIAN_POINT('',(0.,-0.0425,0.0822691240703447));
#1464=CARTESIAN_POINT('',(0.0465,-0.0425,0.0822691240703447));
#1465=CARTESIAN_POINT('',(0.0463973178255577,-0.0425,0.0852673662838844));
#1466=CARTESIAN_POINT('',(0.0438440111459753,-0.0425,0.0868423662838844));
#1467=CARTESIAN_POINT('',(0.,-0.0425,0.0868423662838844));
#1468=CARTESIAN_POINT('',(-0.04404937549486,-0.0425,0.0868423662838844));
#1469=CARTESIAN_POINT('',(-0.0466026821744423,-0.0425,0.0852673662838844));
#1470=CARTESIAN_POINT('',(-0.0465,-0.0425,0.0822691240703446));
#1471=CARTESIAN_POINT('',(0.,-0.0425,0.0822691240703447));
#1472=CARTESIAN_POINT('',(1.38777878078145E-17,1.38777878078145E-17,0.1));
#1473=CARTESIAN_POINT('',(-0.0827144660940673,0.0427144660940672,0.1));
#1474=CARTESIAN_POINT('',(-0.0804644660940673,0.0427144660940672,0.1));
#1475=CARTESIAN_POINT('',(-0.0827144660940673,-0.0427144660940672,0.1));
#1476=CARTESIAN_POINT('',(-0.0804644660940673,-0.0427144660940672,0.1));
#1477=CARTESIAN_POINT('',(-0.09,3.46944695195361E-17,0.1));
#1478=CARTESIAN_POINT('',(-0.09,0.0404289321881346,0.1));
#1479=CARTESIAN_POINT('',(-0.09,-0.0404289321881346,0.1));
#1480=CARTESIAN_POINT('',(-0.085,-0.0404289321881346,0.1));
#1481=CARTESIAN_POINT('',(-0.0885355339059327,-0.0439644660940673,0.1));
#1482=CARTESIAN_POINT('',(-0.06625,-0.06625,0.1));
#1483=CARTESIAN_POINT('',(-0.0839644660940672,-0.0485355339059327,0.1));
#1484=CARTESIAN_POINT('',(-0.0804289321881345,-0.045,0.1));
#1485=CARTESIAN_POINT('',(0.0804289321881345,-0.045,0.1));
#1486=CARTESIAN_POINT('',(0.0839644660940673,-0.0485355339059328,0.1));
#1487=CARTESIAN_POINT('',(0.06625,-0.06625,0.1));
#1488=CARTESIAN_POINT('',(0.0885355339059327,-0.0439644660940673,0.1));
#1489=CARTESIAN_POINT('',(0.085,-0.0404289321881346,0.1));
#1490=CARTESIAN_POINT('',(0.09,-0.0404289321881346,0.1));
#1491=CARTESIAN_POINT('',(0.09,0.,0.1));
#1492=CARTESIAN_POINT('',(0.09,0.0404289321881346,0.1));
#1493=CARTESIAN_POINT('',(0.085,0.0404289321881346,0.1));
#1494=CARTESIAN_POINT('',(0.0885355339059328,0.0439644660940673,0.1));
#1495=CARTESIAN_POINT('',(0.06625,0.06625,0.1));
#1496=CARTESIAN_POINT('',(0.0839644660940673,0.0485355339059328,0.1));
#1497=CARTESIAN_POINT('',(0.0804289321881345,0.045,0.1));
#1498=CARTESIAN_POINT('',(0.0804289321881345,0.05,0.1));
#1499=CARTESIAN_POINT('',(0.,0.05,0.1));
#1500=CARTESIAN_POINT('',(-0.0804289321881345,0.05,0.1));
#1501=CARTESIAN_POINT('',(-0.0804289321881345,0.045,0.1));
#1502=CARTESIAN_POINT('',(-0.0839644660940672,0.0485355339059327,0.1));
#1503=CARTESIAN_POINT('',(-0.06625,0.06625,0.1));
#1504=CARTESIAN_POINT('',(-0.0885355339059327,0.0439644660940672,0.1));
#1505=CARTESIAN_POINT('',(-0.085,0.0404289321881346,0.1));
#1506=CARTESIAN_POINT('',(-0.0825,3.365363543395E-17,0.1));
#1507=CARTESIAN_POINT('',(-0.0825,0.035,0.1));
#1508=CARTESIAN_POINT('',(-0.0825,-0.035,0.1));
#1509=CARTESIAN_POINT('',(-0.075,0.0425,0.1));
#1510=CARTESIAN_POINT('',(-0.075,0.0425,0.1));
#1511=CARTESIAN_POINT('',(0.,0.0425,0.1));
#1512=CARTESIAN_POINT('',(0.075,0.0425,0.1));
#1513=CARTESIAN_POINT('',(0.0825,0.035,0.1));
#1514=CARTESIAN_POINT('',(0.0825,0.035,0.1));
#1515=CARTESIAN_POINT('',(0.0825,1.04083408558608E-18,0.1));
#1516=CARTESIAN_POINT('',(0.0825,-0.035,0.1));
#1517=CARTESIAN_POINT('',(0.075,-0.0425,0.1));
#1518=CARTESIAN_POINT('',(-0.0825,-0.035,0.1));
#1519=CARTESIAN_POINT('',(0.0827144660940673,0.0427144660940673,0.1));
#1520=CARTESIAN_POINT('',(0.0849644660940673,0.0427144660940673,0.1));
#1521=CARTESIAN_POINT('',(0.0827144660940673,-0.0427144660940672,0.1));
#1522=CARTESIAN_POINT('',(0.0849644660940673,-0.0427144660940672,0.1));
#1523=CARTESIAN_POINT('',(0.,0.05,0.1));
#1524=CARTESIAN_POINT('',(0.0684289321881345,0.05,0.012));
#1525=CARTESIAN_POINT('',(0.0684289321881345,0.05,0.016));
#1526=CARTESIAN_POINT('',(0.,0.05,0.05));
#1527=CARTESIAN_POINT('',(0.,0.05,0.055));
#1528=CARTESIAN_POINT('',(0.,0.05,0.));
#1529=CARTESIAN_POINT('',(-0.0804289321881345,0.05,0.));
#1530=CARTESIAN_POINT('',(0.0804289321881345,0.05,0.));
#1531=CARTESIAN_POINT('',(-0.0804289321881345,0.05,0.1));
#1532=CARTESIAN_POINT('',(0.0804289321881345,0.05,0.1));
#1533=CARTESIAN_POINT('',(-0.09,3.46944695195361E-17,0.1));
#1534=CARTESIAN_POINT('',(-0.09,3.46944695195361E-17,0.));
#1535=CARTESIAN_POINT('',(-0.09,0.0404289321881346,0.));
#1536=CARTESIAN_POINT('',(-0.09,-0.0404289321881346,0.));
#1537=CARTESIAN_POINT('',(-0.09,-0.0404289321881346,0.1));
#1538=CARTESIAN_POINT('',(-0.09,0.0404289321881346,0.));
#1539=CARTESIAN_POINT('',(0.09,0.,0.1));
#1540=CARTESIAN_POINT('',(0.09,-0.0254289321881345,0.085));
#1541=CARTESIAN_POINT('',(0.09,-0.0179289321881345,0.085));
#1542=CARTESIAN_POINT('',(0.09,0.,0.));
#1543=CARTESIAN_POINT('',(0.09,0.0404289321881346,0.));
#1544=CARTESIAN_POINT('',(0.09,-0.0404289321881346,0.));
#1545=CARTESIAN_POINT('',(0.09,0.0404289321881346,0.1));
#1546=CARTESIAN_POINT('',(0.09,-0.0404289321881346,0.1));
#1547=CARTESIAN_POINT('',(1.38777878078145E-17,1.38777878078145E-17,0.));
#1548=CARTESIAN_POINT('',(-0.0825,-0.05,0.));
#1549=CARTESIAN_POINT('',(-0.0839644660940672,-0.0485355339059327,0.));
#1550=CARTESIAN_POINT('',(-0.0885355339059327,-0.0439644660940672,0.));
#1551=CARTESIAN_POINT('',(-0.085,-0.0404289321881346,0.));
#1552=CARTESIAN_POINT('',(-0.085,0.0404289321881346,0.));
#1553=CARTESIAN_POINT('',(-0.0885355339059327,0.0439644660940672,0.));
#1554=CARTESIAN_POINT('',(-0.09,0.0425,0.));
#1555=CARTESIAN_POINT('',(-0.0839644660940672,0.0485355339059327,0.));
#1556=CARTESIAN_POINT('',(-0.0804289321881345,0.045,0.));
#1557=CARTESIAN_POINT('',(0.0804289321881345,0.045,0.));
#1558=CARTESIAN_POINT('',(0.0839644660940673,0.0485355339059328,0.));
#1559=CARTESIAN_POINT('',(0.0825,0.05,0.));
#1560=CARTESIAN_POINT('',(0.0885355339059327,0.0439644660940673,0.));
#1561=CARTESIAN_POINT('',(0.085,0.0404289321881346,0.));
#1562=CARTESIAN_POINT('',(0.085,-0.0404289321881346,0.));
#1563=CARTESIAN_POINT('',(0.0885355339059327,-0.0439644660940673,0.));
#1564=CARTESIAN_POINT('',(0.09,-0.0425,0.));
#1565=CARTESIAN_POINT('',(0.0839644660940673,-0.0485355339059328,0.));
#1566=CARTESIAN_POINT('',(0.0804289321881345,-0.045,0.));
#1567=CARTESIAN_POINT('',(-0.0804289321881345,-0.045,0.));
#1568=CARTESIAN_POINT('',(0.,0.0425,0.1));
#1569=CARTESIAN_POINT('',(0.0684289321881345,0.0425,0.012));
#1570=CARTESIAN_POINT('',(0.0684289321881345,0.0425,0.016));
#1571=CARTESIAN_POINT('',(0.,0.0425,0.05));
#1572=CARTESIAN_POINT('',(0.,0.0425,0.055));
#1573=CARTESIAN_POINT('',(0.,0.0425,0.0075));
#1574=CARTESIAN_POINT('',(-0.075,0.0425,0.0075));
#1575=CARTESIAN_POINT('',(0.075,0.0425,0.0075));
#1576=CARTESIAN_POINT('',(0.075,0.0425,0.1));
#1577=CARTESIAN_POINT('',(-0.075,0.0425,0.1));
#1578=CARTESIAN_POINT('',(-0.0825,3.365363543395E-17,0.1));
#1579=CARTESIAN_POINT('',(-0.0825,-0.035,0.0075));
#1580=CARTESIAN_POINT('',(-0.0825,-0.035,0.0075));
#1581=CARTESIAN_POINT('',(-0.0825,3.365363543395E-17,0.0075));
#1582=CARTESIAN_POINT('',(-0.0825,0.035,0.0075));
#1583=CARTESIAN_POINT('',(-0.0825,0.035,0.1));
#1584=CARTESIAN_POINT('',(0.0825,1.04083408558608E-18,0.1));
#1585=CARTESIAN_POINT('',(0.0825,-0.0254289321881345,0.085));
#1586=CARTESIAN_POINT('',(0.0825,-0.0179289321881345,0.085));
#1587=CARTESIAN_POINT('',(0.0825,1.04083408558608E-18,0.0075));
#1588=CARTESIAN_POINT('',(0.0825,0.035,0.0075));
#1589=CARTESIAN_POINT('',(0.0825,-0.035,0.0075));
#1590=CARTESIAN_POINT('',(0.0825,-0.035,0.1));
#1591=CARTESIAN_POINT('',(0.0825,0.035,0.0075));
#1592=CARTESIAN_POINT('',(1.38777878078145E-17,1.38777878078145E-17,0.0075));
#1593=CARTESIAN_POINT('',(0.05875,-0.05875,0.0075));
#1594=CARTESIAN_POINT('',(0.05875,0.05875,0.0075));
#1595=CARTESIAN_POINT('',(-0.05875,0.05875,0.0075));
#1596=CARTESIAN_POINT('',(-0.05875,-0.05875,0.0075));
#1597=CARTESIAN_POINT('',(0.075,-0.0425,0.1));
#1598=CARTESIAN_POINT('',(-0.0825,-0.035,0.1));
#1599=CARTESIAN_POINT('',(0.0825,0.035,0.1));
#1600=CARTESIAN_POINT('',(-0.075,0.0425,0.1));
#1601=CARTESIAN_POINT('',(0.09,-0.0425,0.1));
#1602=CARTESIAN_POINT('',(0.0839644660940673,-0.0485355339059328,0.));
#1603=CARTESIAN_POINT('',(0.0885355339059327,-0.0439644660940673,0.1));
#1604=CARTESIAN_POINT('',(-0.0825,-0.05,0.1));
#1605=CARTESIAN_POINT('',(-0.0885355339059327,-0.0439644660940672,0.));
#1606=CARTESIAN_POINT('',(-0.0839644660940672,-0.0485355339059327,0.1));
#1607=CARTESIAN_POINT('',(0.0825,0.05,0.1));
#1608=CARTESIAN_POINT('',(0.0839644660940673,0.0485355339059328,0.1));
#1609=CARTESIAN_POINT('',(0.0885355339059327,0.0439644660940673,0.1));
#1610=CARTESIAN_POINT('',(-0.09,0.0425,0.1));
#1611=CARTESIAN_POINT('',(-0.0839644660940672,0.0485355339059327,0.1));
#1612=CARTESIAN_POINT('',(-0.0885355339059327,0.0439644660940672,0.1));
#1613=CARTESIAN_POINT('',(-0.085,-0.0404289321881346,0.1));
#1614=CARTESIAN_POINT('',(-0.0804289321881345,-0.045,0.1));
#1615=CARTESIAN_POINT('',(-0.0804289321881345,0.045,0.1));
#1616=CARTESIAN_POINT('',(-0.085,0.0404289321881346,0.1));
#1617=CARTESIAN_POINT('',(0.0804289321881345,0.045,0.1));
#1618=CARTESIAN_POINT('',(0.085,0.0404289321881346,0.1));
#1619=CARTESIAN_POINT('',(0.0804289321881345,-0.045,0.1));
#1620=CARTESIAN_POINT('',(0.085,-0.0404289321881346,0.1));
#1621=CARTESIAN_POINT('',(-0.0827144660940673,-0.0427144660940672,0.0925));
#1622=CARTESIAN_POINT('',(-0.0827144660940673,-0.0427144660940672,0.0925));
#1623=CARTESIAN_POINT('',(-0.0804644660940673,-0.0427144660940672,0.0925));
#1624=CARTESIAN_POINT('',(1.38777878078145E-17,0.,0.0925));
#1625=CARTESIAN_POINT('',(-0.0827144660940673,0.0427144660940672,0.0925));
#1626=CARTESIAN_POINT('',(-0.0827144660940673,0.0427144660940672,0.0925));
#1627=CARTESIAN_POINT('',(-0.0804644660940673,0.0427144660940672,0.0925));
#1628=CARTESIAN_POINT('',(1.38777878078145E-17,0.,0.0925));
#1629=CARTESIAN_POINT('',(0.0827144660940673,0.0427144660940673,0.0925));
#1630=CARTESIAN_POINT('',(0.0827144660940673,0.0427144660940673,0.0925));
#1631=CARTESIAN_POINT('',(0.0849644660940673,0.0427144660940673,0.0925));
#1632=CARTESIAN_POINT('',(1.38777878078145E-17,0.,0.0925));
#1633=CARTESIAN_POINT('',(0.0827144660940673,-0.0427144660940672,0.0925));
#1634=CARTESIAN_POINT('',(0.0827144660940673,-0.0427144660940672,0.0925));
#1635=CARTESIAN_POINT('',(0.0849644660940673,-0.0427144660940672,0.0925));
#1636=CARTESIAN_POINT('',(1.38777878078145E-17,0.,0.0925));
#1637=CARTESIAN_POINT('',(-0.0466026821744423,0.050002,0.0852673662838844));
#1638=CARTESIAN_POINT('',(-0.0466026821744423,0.050002,0.0302673662838844));
#1639=CARTESIAN_POINT('',(0.0463973178255577,0.050002,0.0302673662838844));
#1640=CARTESIAN_POINT('',(0.0463973178255577,0.050002,0.0852673662838844));
#1641=CARTESIAN_POINT('',(-0.04775,-0.025,0.0332656084974242));
#1642=CARTESIAN_POINT('',(-0.049,-0.025,0.0332656084974242));
#1643=CARTESIAN_POINT('',(-0.0465,-0.025,0.0332656084974242));
#1644=CARTESIAN_POINT('',(-0.0466026821744423,-0.025,0.0302673662838844));
#1645=CARTESIAN_POINT('',(-0.04404937549486,-0.025,0.0286923662838844));
#1646=CARTESIAN_POINT('',(-0.000102682174442321,-0.025,0.0286923662838844));
#1647=CARTESIAN_POINT('',(0.0438440111459753,-0.025,0.0286923662838844));
#1648=CARTESIAN_POINT('',(0.0463973178255577,-0.025,0.0302673662838844));
#1649=CARTESIAN_POINT('',(0.0465,-0.025,0.0332656084974242));
#1650=CARTESIAN_POINT('',(0.04775,-0.025,0.0332656084974242));
#1651=CARTESIAN_POINT('',(0.049,-0.025,0.0332656084974242));
#1652=CARTESIAN_POINT('',(0.049,-0.025,0.0577673662838844));
#1653=CARTESIAN_POINT('',(0.049,-0.025,0.0822691240703447));
#1654=CARTESIAN_POINT('',(0.04775,-0.025,0.0822691240703447));
#1655=CARTESIAN_POINT('',(0.0465,-0.025,0.0822691240703447));
#1656=CARTESIAN_POINT('',(0.0463973178255577,-0.025,0.0852673662838844));
#1657=CARTESIAN_POINT('',(0.0438440111459753,-0.025,0.0868423662838844));
#1658=CARTESIAN_POINT('',(-0.000102682174442321,-0.025,0.0868423662838844));
#1659=CARTESIAN_POINT('',(-0.04404937549486,-0.025,0.0868423662838844));
#1660=CARTESIAN_POINT('',(-0.0466026821744423,-0.025,0.0852673662838844));
#1661=CARTESIAN_POINT('',(-0.0465,-0.025,0.0822691240703446));
#1662=CARTESIAN_POINT('',(-0.04775,-0.025,0.0822691240703447));
#1663=CARTESIAN_POINT('',(-0.049,-0.025,0.0822691240703447));
#1664=CARTESIAN_POINT('',(-0.049,-0.025,0.0577673662838844));
#1665=CARTESIAN_POINT('',(0.,-0.050002,0.05));
#1666=CARTESIAN_POINT('',(0.0684289321881345,-0.050002,0.012));
#1667=CARTESIAN_POINT('',(0.065,-0.0254289321881345,0.085));
#1668=MECHANICAL_DESIGN_GEOMETRIC_PRESENTATION_REPRESENTATION('',(#991),
#1669);
#1669=(
GEOMETRIC_REPRESENTATION_CONTEXT(3)
GLOBAL_UNCERTAINTY_ASSIGNED_CONTEXT((#1670))
GLOBAL_UNIT_ASSIGNED_CONTEXT((#1673,#1672,#1671))
REPRESENTATION_CONTEXT('Base','TOP_LEVEL_ASSEMBLY_PART')
);
#1670=UNCERTAINTY_MEASURE_WITH_UNIT(LENGTH_MEASURE(1.E-8),#1673,
'DISTANCE_ACCURACY_VALUE','Maximum Tolerance applied to model');
#1671=(
NAMED_UNIT(*)
SI_UNIT($,.STERADIAN.)
SOLID_ANGLE_UNIT()
);
#1672=(
NAMED_UNIT(*)
PLANE_ANGLE_UNIT()
SI_UNIT($,.RADIAN.)
);
#1673=(
LENGTH_UNIT()
NAMED_UNIT(*)
SI_UNIT($,.METRE.)
);
#1674=PRODUCT_DEFINITION_SHAPE('','',#1675);
#1675=PRODUCT_DEFINITION('','',#1677,#1676);
#1676=PRODUCT_DEFINITION_CONTEXT('',#1683,'design');
#1677=PRODUCT_DEFINITION_FORMATION_WITH_SPECIFIED_SOURCE('','',#1679,
 .NOT_KNOWN.);
#1678=PRODUCT_RELATED_PRODUCT_CATEGORY('','',(#1679));
#1679=PRODUCT('Base','Base','Base',(#1681));
#1680=PRODUCT_CATEGORY('','');
#1681=PRODUCT_CONTEXT('',#1683,'mechanical');
#1682=APPLICATION_PROTOCOL_DEFINITION('international standard',
'ap242_managed_model_based_3d_engineering',2020,#1683);
#1683=APPLICATION_CONTEXT('managed model based 3d engineering');
ENDSEC;
END-ISO-10303-21;
