ISO-10303-21;
HEADER;
/* Generated by software containing ST-Developer
 * from STEP Tools, Inc. (www.steptools.com) 
 */
/* OPTION: using custom renumber hook */

FILE_DESCRIPTION(
/* description */ ('STEP AP242 Edition 2',
'CAx-IF Rec.Pracs.---Representation and Presentation of Product Manufa
cturing Information (PMI)---4.0---2014-10-13',
'CAx-IF Rec.Pracs.---3D Tessellated Geometry---0.4---2014-09-14','2;1',
'CAx-IF Rec.Pracs.---User Defined Attributes---1.5---2016-08-15'),
/* implementation_level */ '2;1');

FILE_NAME(
/* name */ 'Smart Scalpel - Mechanical Retraction - Lid',
/* time_stamp */ '2026-06-10T17:54:31Z',
/* author */ (''),
/* organization */ (''),
/* preprocessor_version */ 'ST-DEVELOPER v20',
/* originating_system */ 'ONSHAPE BY PTC INC, 1.216',
/* authorisation */ '  ');

FILE_SCHEMA (('AP242_MANAGED_MODEL_BASED_3D_ENGINEERING_MIM_LF { 1 0 10303 442 3 1 4 }'));
ENDSEC;

DATA;
#10=SHAPE_REPRESENTATION_RELATIONSHIP('','',#459,#11);
#11=ADVANCED_BREP_SHAPE_REPRESENTATION('',(#457),#737);
#12=CYLINDRICAL_SURFACE('',#478,0.0004);
#13=CYLINDRICAL_SURFACE('',#481,0.0004);
#14=CYLINDRICAL_SURFACE('',#485,0.0004);
#15=CYLINDRICAL_SURFACE('',#488,0.0004);
#16=CIRCLE('',#462,0.0004);
#17=CIRCLE('',#463,0.0004);
#18=CIRCLE('',#464,0.0004);
#19=CIRCLE('',#465,0.0004);
#20=CIRCLE('',#479,0.0004);
#21=CIRCLE('',#482,0.0004);
#22=CIRCLE('',#486,0.0004);
#23=CIRCLE('',#489,0.0004);
#24=ORIENTED_EDGE('',*,*,#144,.F.);
#25=ORIENTED_EDGE('',*,*,#145,.F.);
#26=ORIENTED_EDGE('',*,*,#146,.T.);
#27=ORIENTED_EDGE('',*,*,#147,.F.);
#28=ORIENTED_EDGE('',*,*,#148,.F.);
#29=ORIENTED_EDGE('',*,*,#149,.F.);
#30=ORIENTED_EDGE('',*,*,#150,.T.);
#31=ORIENTED_EDGE('',*,*,#151,.T.);
#32=ORIENTED_EDGE('',*,*,#152,.T.);
#33=ORIENTED_EDGE('',*,*,#153,.T.);
#34=ORIENTED_EDGE('',*,*,#154,.F.);
#35=ORIENTED_EDGE('',*,*,#155,.T.);
#36=ORIENTED_EDGE('',*,*,#156,.F.);
#37=ORIENTED_EDGE('',*,*,#157,.T.);
#38=ORIENTED_EDGE('',*,*,#158,.T.);
#39=ORIENTED_EDGE('',*,*,#159,.T.);
#40=ORIENTED_EDGE('',*,*,#160,.T.);
#41=ORIENTED_EDGE('',*,*,#161,.T.);
#42=ORIENTED_EDGE('',*,*,#162,.T.);
#43=ORIENTED_EDGE('',*,*,#163,.F.);
#44=ORIENTED_EDGE('',*,*,#148,.T.);
#45=ORIENTED_EDGE('',*,*,#164,.F.);
#46=ORIENTED_EDGE('',*,*,#165,.T.);
#47=ORIENTED_EDGE('',*,*,#166,.T.);
#48=ORIENTED_EDGE('',*,*,#149,.T.);
#49=ORIENTED_EDGE('',*,*,#166,.F.);
#50=ORIENTED_EDGE('',*,*,#167,.T.);
#51=ORIENTED_EDGE('',*,*,#168,.T.);
#52=ORIENTED_EDGE('',*,*,#169,.F.);
#53=ORIENTED_EDGE('',*,*,#170,.F.);
#54=ORIENTED_EDGE('',*,*,#164,.T.);
#55=ORIENTED_EDGE('',*,*,#151,.F.);
#56=ORIENTED_EDGE('',*,*,#168,.F.);
#57=ORIENTED_EDGE('',*,*,#171,.F.);
#58=ORIENTED_EDGE('',*,*,#169,.T.);
#59=ORIENTED_EDGE('',*,*,#150,.F.);
#60=ORIENTED_EDGE('',*,*,#172,.T.);
#61=ORIENTED_EDGE('',*,*,#173,.T.);
#62=ORIENTED_EDGE('',*,*,#174,.F.);
#63=ORIENTED_EDGE('',*,*,#175,.T.);
#64=ORIENTED_EDGE('',*,*,#176,.F.);
#65=ORIENTED_EDGE('',*,*,#177,.T.);
#66=ORIENTED_EDGE('',*,*,#178,.T.);
#67=ORIENTED_EDGE('',*,*,#179,.T.);
#68=ORIENTED_EDGE('',*,*,#167,.F.);
#69=ORIENTED_EDGE('',*,*,#165,.F.);
#70=ORIENTED_EDGE('',*,*,#170,.T.);
#71=ORIENTED_EDGE('',*,*,#171,.T.);
#72=ORIENTED_EDGE('',*,*,#176,.T.);
#73=ORIENTED_EDGE('',*,*,#180,.T.);
#74=ORIENTED_EDGE('',*,*,#158,.F.);
#75=ORIENTED_EDGE('',*,*,#181,.T.);
#76=ORIENTED_EDGE('',*,*,#154,.T.);
#77=ORIENTED_EDGE('',*,*,#182,.T.);
#78=ORIENTED_EDGE('',*,*,#172,.F.);
#79=ORIENTED_EDGE('',*,*,#183,.T.);
#80=ORIENTED_EDGE('',*,*,#174,.T.);
#81=ORIENTED_EDGE('',*,*,#184,.T.);
#82=ORIENTED_EDGE('',*,*,#152,.F.);
#83=ORIENTED_EDGE('',*,*,#185,.T.);
#84=ORIENTED_EDGE('',*,*,#186,.T.);
#85=ORIENTED_EDGE('',*,*,#156,.T.);
#86=ORIENTED_EDGE('',*,*,#187,.T.);
#87=ORIENTED_EDGE('',*,*,#178,.F.);
#88=ORIENTED_EDGE('',*,*,#155,.F.);
#89=ORIENTED_EDGE('',*,*,#183,.F.);
#90=ORIENTED_EDGE('',*,*,#179,.F.);
#91=ORIENTED_EDGE('',*,*,#187,.F.);
#92=ORIENTED_EDGE('',*,*,#157,.F.);
#93=ORIENTED_EDGE('',*,*,#186,.F.);
#94=ORIENTED_EDGE('',*,*,#177,.F.);
#95=ORIENTED_EDGE('',*,*,#181,.F.);
#96=ORIENTED_EDGE('',*,*,#144,.T.);
#97=ORIENTED_EDGE('',*,*,#188,.F.);
#98=ORIENTED_EDGE('',*,*,#189,.F.);
#99=ORIENTED_EDGE('',*,*,#190,.T.);
#100=ORIENTED_EDGE('',*,*,#147,.T.);
#101=ORIENTED_EDGE('',*,*,#191,.F.);
#102=ORIENTED_EDGE('',*,*,#192,.F.);
#103=ORIENTED_EDGE('',*,*,#188,.T.);
#104=ORIENTED_EDGE('',*,*,#146,.F.);
#105=ORIENTED_EDGE('',*,*,#193,.F.);
#106=ORIENTED_EDGE('',*,*,#194,.T.);
#107=ORIENTED_EDGE('',*,*,#191,.T.);
#108=ORIENTED_EDGE('',*,*,#145,.T.);
#109=ORIENTED_EDGE('',*,*,#190,.F.);
#110=ORIENTED_EDGE('',*,*,#195,.F.);
#111=ORIENTED_EDGE('',*,*,#193,.T.);
#112=ORIENTED_EDGE('',*,*,#189,.T.);
#113=ORIENTED_EDGE('',*,*,#192,.T.);
#114=ORIENTED_EDGE('',*,*,#194,.F.);
#115=ORIENTED_EDGE('',*,*,#195,.T.);
#116=ORIENTED_EDGE('',*,*,#161,.F.);
#117=ORIENTED_EDGE('',*,*,#196,.F.);
#118=ORIENTED_EDGE('',*,*,#197,.T.);
#119=ORIENTED_EDGE('',*,*,#198,.T.);
#120=ORIENTED_EDGE('',*,*,#160,.F.);
#121=ORIENTED_EDGE('',*,*,#199,.F.);
#122=ORIENTED_EDGE('',*,*,#200,.T.);
#123=ORIENTED_EDGE('',*,*,#196,.T.);
#124=ORIENTED_EDGE('',*,*,#163,.T.);
#125=ORIENTED_EDGE('',*,*,#201,.F.);
#126=ORIENTED_EDGE('',*,*,#202,.F.);
#127=ORIENTED_EDGE('',*,*,#199,.T.);
#128=ORIENTED_EDGE('',*,*,#162,.F.);
#129=ORIENTED_EDGE('',*,*,#198,.F.);
#130=ORIENTED_EDGE('',*,*,#203,.T.);
#131=ORIENTED_EDGE('',*,*,#201,.T.);
#132=ORIENTED_EDGE('',*,*,#197,.F.);
#133=ORIENTED_EDGE('',*,*,#200,.F.);
#134=ORIENTED_EDGE('',*,*,#202,.T.);
#135=ORIENTED_EDGE('',*,*,#203,.F.);
#136=ORIENTED_EDGE('',*,*,#173,.F.);
#137=ORIENTED_EDGE('',*,*,#182,.F.);
#138=ORIENTED_EDGE('',*,*,#153,.F.);
#139=ORIENTED_EDGE('',*,*,#184,.F.);
#140=ORIENTED_EDGE('',*,*,#175,.F.);
#141=ORIENTED_EDGE('',*,*,#185,.F.);
#142=ORIENTED_EDGE('',*,*,#159,.F.);
#143=ORIENTED_EDGE('',*,*,#180,.F.);
#144=EDGE_CURVE('',#204,#205,#244,.T.);
#145=EDGE_CURVE('',#206,#204,#16,.T.);
#146=EDGE_CURVE('',#206,#207,#245,.T.);
#147=EDGE_CURVE('',#205,#207,#17,.T.);
#148=EDGE_CURVE('',#208,#209,#246,.T.);
#149=EDGE_CURVE('',#210,#208,#247,.T.);
#150=EDGE_CURVE('',#210,#211,#248,.T.);
#151=EDGE_CURVE('',#211,#209,#249,.T.);
#152=EDGE_CURVE('',#212,#213,#250,.T.);
#153=EDGE_CURVE('',#213,#214,#251,.T.);
#154=EDGE_CURVE('',#215,#214,#252,.T.);
#155=EDGE_CURVE('',#215,#216,#253,.F.);
#156=EDGE_CURVE('',#217,#216,#254,.T.);
#157=EDGE_CURVE('',#217,#218,#255,.T.);
#158=EDGE_CURVE('',#218,#219,#256,.T.);
#159=EDGE_CURVE('',#219,#212,#257,.F.);
#160=EDGE_CURVE('',#220,#221,#18,.T.);
#161=EDGE_CURVE('',#221,#222,#258,.T.);
#162=EDGE_CURVE('',#222,#223,#19,.T.);
#163=EDGE_CURVE('',#220,#223,#259,.T.);
#164=EDGE_CURVE('',#224,#209,#260,.T.);
#165=EDGE_CURVE('',#224,#225,#261,.T.);
#166=EDGE_CURVE('',#225,#208,#262,.T.);
#167=EDGE_CURVE('',#225,#226,#263,.T.);
#168=EDGE_CURVE('',#226,#210,#264,.T.);
#169=EDGE_CURVE('',#227,#211,#265,.T.);
#170=EDGE_CURVE('',#224,#227,#266,.T.);
#171=EDGE_CURVE('',#227,#226,#267,.T.);
#172=EDGE_CURVE('',#228,#229,#268,.T.);
#173=EDGE_CURVE('',#229,#230,#269,.T.);
#174=EDGE_CURVE('',#231,#230,#270,.T.);
#175=EDGE_CURVE('',#231,#232,#271,.F.);
#176=EDGE_CURVE('',#233,#232,#272,.T.);
#177=EDGE_CURVE('',#233,#234,#273,.T.);
#178=EDGE_CURVE('',#234,#235,#274,.T.);
#179=EDGE_CURVE('',#235,#228,#275,.F.);
#180=EDGE_CURVE('',#232,#219,#276,.T.);
#181=EDGE_CURVE('',#218,#233,#277,.T.);
#182=EDGE_CURVE('',#214,#229,#278,.T.);
#183=EDGE_CURVE('',#228,#215,#279,.T.);
#184=EDGE_CURVE('',#230,#213,#280,.T.);
#185=EDGE_CURVE('',#212,#231,#281,.T.);
#186=EDGE_CURVE('',#234,#217,#282,.T.);
#187=EDGE_CURVE('',#216,#235,#283,.T.);
#188=EDGE_CURVE('',#236,#205,#284,.T.);
#189=EDGE_CURVE('',#237,#236,#285,.T.);
#190=EDGE_CURVE('',#237,#204,#286,.T.);
#191=EDGE_CURVE('',#238,#207,#287,.T.);
#192=EDGE_CURVE('',#236,#238,#20,.T.);
#193=EDGE_CURVE('',#239,#206,#288,.T.);
#194=EDGE_CURVE('',#239,#238,#289,.T.);
#195=EDGE_CURVE('',#239,#237,#21,.T.);
#196=EDGE_CURVE('',#240,#221,#290,.T.);
#197=EDGE_CURVE('',#240,#241,#291,.T.);
#198=EDGE_CURVE('',#241,#222,#292,.T.);
#199=EDGE_CURVE('',#242,#220,#293,.T.);
#200=EDGE_CURVE('',#242,#240,#22,.T.);
#201=EDGE_CURVE('',#243,#223,#294,.T.);
#202=EDGE_CURVE('',#242,#243,#295,.T.);
#203=EDGE_CURVE('',#241,#243,#23,.T.);
#204=VERTEX_POINT('',#614);
#205=VERTEX_POINT('',#615);
#206=VERTEX_POINT('',#617);
#207=VERTEX_POINT('',#619);
#208=VERTEX_POINT('',#622);
#209=VERTEX_POINT('',#623);
#210=VERTEX_POINT('',#625);
#211=VERTEX_POINT('',#627);
#212=VERTEX_POINT('',#630);
#213=VERTEX_POINT('',#631);
#214=VERTEX_POINT('',#633);
#215=VERTEX_POINT('',#635);
#216=VERTEX_POINT('',#637);
#217=VERTEX_POINT('',#639);
#218=VERTEX_POINT('',#641);
#219=VERTEX_POINT('',#643);
#220=VERTEX_POINT('',#646);
#221=VERTEX_POINT('',#647);
#222=VERTEX_POINT('',#649);
#223=VERTEX_POINT('',#651);
#224=VERTEX_POINT('',#655);
#225=VERTEX_POINT('',#657);
#226=VERTEX_POINT('',#661);
#227=VERTEX_POINT('',#665);
#228=VERTEX_POINT('',#671);
#229=VERTEX_POINT('',#672);
#230=VERTEX_POINT('',#674);
#231=VERTEX_POINT('',#676);
#232=VERTEX_POINT('',#678);
#233=VERTEX_POINT('',#680);
#234=VERTEX_POINT('',#682);
#235=VERTEX_POINT('',#684);
#236=VERTEX_POINT('',#702);
#237=VERTEX_POINT('',#704);
#238=VERTEX_POINT('',#708);
#239=VERTEX_POINT('',#712);
#240=VERTEX_POINT('',#719);
#241=VERTEX_POINT('',#721);
#242=VERTEX_POINT('',#725);
#243=VERTEX_POINT('',#729);
#244=LINE('',#613,#296);
#245=LINE('',#618,#297);
#246=LINE('',#621,#298);
#247=LINE('',#624,#299);
#248=LINE('',#626,#300);
#249=LINE('',#628,#301);
#250=LINE('',#629,#302);
#251=LINE('',#632,#303);
#252=LINE('',#634,#304);
#253=LINE('',#636,#305);
#254=LINE('',#638,#306);
#255=LINE('',#640,#307);
#256=LINE('',#642,#308);
#257=LINE('',#644,#309);
#258=LINE('',#648,#310);
#259=LINE('',#652,#311);
#260=LINE('',#654,#312);
#261=LINE('',#656,#313);
#262=LINE('',#658,#314);
#263=LINE('',#660,#315);
#264=LINE('',#662,#316);
#265=LINE('',#664,#317);
#266=LINE('',#666,#318);
#267=LINE('',#668,#319);
#268=LINE('',#670,#320);
#269=LINE('',#673,#321);
#270=LINE('',#675,#322);
#271=LINE('',#677,#323);
#272=LINE('',#679,#324);
#273=LINE('',#681,#325);
#274=LINE('',#683,#326);
#275=LINE('',#685,#327);
#276=LINE('',#687,#328);
#277=LINE('',#688,#329);
#278=LINE('',#690,#330);
#279=LINE('',#691,#331);
#280=LINE('',#693,#332);
#281=LINE('',#694,#333);
#282=LINE('',#696,#334);
#283=LINE('',#697,#335);
#284=LINE('',#701,#336);
#285=LINE('',#703,#337);
#286=LINE('',#705,#338);
#287=LINE('',#707,#339);
#288=LINE('',#711,#340);
#289=LINE('',#713,#341);
#290=LINE('',#718,#342);
#291=LINE('',#720,#343);
#292=LINE('',#722,#344);
#293=LINE('',#724,#345);
#294=LINE('',#728,#346);
#295=LINE('',#730,#347);
#296=VECTOR('',#497,1.);
#297=VECTOR('',#500,1.);
#298=VECTOR('',#503,1.);
#299=VECTOR('',#504,1.);
#300=VECTOR('',#505,1.);
#301=VECTOR('',#506,1.);
#302=VECTOR('',#507,1.);
#303=VECTOR('',#508,1.);
#304=VECTOR('',#509,1.);
#305=VECTOR('',#510,1.);
#306=VECTOR('',#511,1.);
#307=VECTOR('',#512,1.);
#308=VECTOR('',#513,1.);
#309=VECTOR('',#514,1.);
#310=VECTOR('',#517,1.);
#311=VECTOR('',#520,1.);
#312=VECTOR('',#523,1.);
#313=VECTOR('',#524,1.);
#314=VECTOR('',#525,1.);
#315=VECTOR('',#528,1.);
#316=VECTOR('',#529,1.);
#317=VECTOR('',#532,1.);
#318=VECTOR('',#533,1.);
#319=VECTOR('',#536,1.);
#320=VECTOR('',#539,1.);
#321=VECTOR('',#540,1.);
#322=VECTOR('',#541,1.);
#323=VECTOR('',#542,1.);
#324=VECTOR('',#543,1.);
#325=VECTOR('',#544,1.);
#326=VECTOR('',#545,1.);
#327=VECTOR('',#546,1.);
#328=VECTOR('',#549,1.);
#329=VECTOR('',#550,1.);
#330=VECTOR('',#553,1.);
#331=VECTOR('',#554,1.);
#332=VECTOR('',#557,1.);
#333=VECTOR('',#558,1.);
#334=VECTOR('',#561,1.);
#335=VECTOR('',#562,1.);
#336=VECTOR('',#569,1.);
#337=VECTOR('',#570,1.);
#338=VECTOR('',#571,1.);
#339=VECTOR('',#574,1.);
#340=VECTOR('',#579,1.);
#341=VECTOR('',#580,1.);
#342=VECTOR('',#589,1.);
#343=VECTOR('',#590,1.);
#344=VECTOR('',#591,1.);
#345=VECTOR('',#594,1.);
#346=VECTOR('',#599,1.);
#347=VECTOR('',#600,1.);
#348=EDGE_LOOP('',(#24,#25,#26,#27));
#349=EDGE_LOOP('',(#28,#29,#30,#31));
#350=EDGE_LOOP('',(#32,#33,#34,#35,#36,#37,#38,#39));
#351=EDGE_LOOP('',(#40,#41,#42,#43));
#352=EDGE_LOOP('',(#44,#45,#46,#47));
#353=EDGE_LOOP('',(#48,#49,#50,#51));
#354=EDGE_LOOP('',(#52,#53,#54,#55));
#355=EDGE_LOOP('',(#56,#57,#58,#59));
#356=EDGE_LOOP('',(#60,#61,#62,#63,#64,#65,#66,#67));
#357=EDGE_LOOP('',(#68,#69,#70,#71));
#358=EDGE_LOOP('',(#72,#73,#74,#75));
#359=EDGE_LOOP('',(#76,#77,#78,#79));
#360=EDGE_LOOP('',(#80,#81,#82,#83));
#361=EDGE_LOOP('',(#84,#85,#86,#87));
#362=EDGE_LOOP('',(#88,#89,#90,#91));
#363=EDGE_LOOP('',(#92,#93,#94,#95));
#364=EDGE_LOOP('',(#96,#97,#98,#99));
#365=EDGE_LOOP('',(#100,#101,#102,#103));
#366=EDGE_LOOP('',(#104,#105,#106,#107));
#367=EDGE_LOOP('',(#108,#109,#110,#111));
#368=EDGE_LOOP('',(#112,#113,#114,#115));
#369=EDGE_LOOP('',(#116,#117,#118,#119));
#370=EDGE_LOOP('',(#120,#121,#122,#123));
#371=EDGE_LOOP('',(#124,#125,#126,#127));
#372=EDGE_LOOP('',(#128,#129,#130,#131));
#373=EDGE_LOOP('',(#132,#133,#134,#135));
#374=EDGE_LOOP('',(#136,#137,#138,#139));
#375=EDGE_LOOP('',(#140,#141,#142,#143));
#376=FACE_BOUND('',#348,.T.);
#377=FACE_BOUND('',#349,.T.);
#378=FACE_BOUND('',#350,.T.);
#379=FACE_BOUND('',#351,.T.);
#380=FACE_BOUND('',#352,.T.);
#381=FACE_BOUND('',#353,.T.);
#382=FACE_BOUND('',#354,.T.);
#383=FACE_BOUND('',#355,.T.);
#384=FACE_BOUND('',#356,.T.);
#385=FACE_BOUND('',#357,.T.);
#386=FACE_BOUND('',#358,.T.);
#387=FACE_BOUND('',#359,.T.);
#388=FACE_BOUND('',#360,.T.);
#389=FACE_BOUND('',#361,.T.);
#390=FACE_BOUND('',#362,.T.);
#391=FACE_BOUND('',#363,.T.);
#392=FACE_BOUND('',#364,.T.);
#393=FACE_BOUND('',#365,.T.);
#394=FACE_BOUND('',#366,.T.);
#395=FACE_BOUND('',#367,.T.);
#396=FACE_BOUND('',#368,.T.);
#397=FACE_BOUND('',#369,.T.);
#398=FACE_BOUND('',#370,.T.);
#399=FACE_BOUND('',#371,.T.);
#400=FACE_BOUND('',#372,.T.);
#401=FACE_BOUND('',#373,.T.);
#402=FACE_BOUND('',#374,.T.);
#403=FACE_BOUND('',#375,.T.);
#404=PLANE('',#461);
#405=PLANE('',#466);
#406=PLANE('',#467);
#407=PLANE('',#468);
#408=PLANE('',#469);
#409=PLANE('',#470);
#410=PLANE('',#471);
#411=PLANE('',#472);
#412=PLANE('',#473);
#413=PLANE('',#474);
#414=PLANE('',#475);
#415=PLANE('',#476);
#416=PLANE('',#477);
#417=PLANE('',#480);
#418=PLANE('',#483);
#419=PLANE('',#484);
#420=PLANE('',#487);
#421=PLANE('',#490);
#422=PLANE('',#491);
#423=PLANE('',#492);
#424=ADVANCED_FACE('',(#376,#377,#378,#379),#404,.F.);
#425=ADVANCED_FACE('',(#380),#405,.T.);
#426=ADVANCED_FACE('',(#381),#406,.T.);
#427=ADVANCED_FACE('',(#382),#407,.F.);
#428=ADVANCED_FACE('',(#383),#408,.F.);
#429=ADVANCED_FACE('',(#384,#385),#409,.T.);
#430=ADVANCED_FACE('',(#386),#410,.T.);
#431=ADVANCED_FACE('',(#387),#411,.F.);
#432=ADVANCED_FACE('',(#388),#412,.T.);
#433=ADVANCED_FACE('',(#389),#413,.F.);
#434=ADVANCED_FACE('',(#390),#414,.F.);
#435=ADVANCED_FACE('',(#391),#415,.T.);
#436=ADVANCED_FACE('',(#392),#416,.F.);
#437=ADVANCED_FACE('',(#393),#12,.T.);
#438=ADVANCED_FACE('',(#394),#417,.T.);
#439=ADVANCED_FACE('',(#395),#13,.T.);
#440=ADVANCED_FACE('',(#396),#418,.T.);
#441=ADVANCED_FACE('',(#397),#419,.T.);
#442=ADVANCED_FACE('',(#398),#14,.T.);
#443=ADVANCED_FACE('',(#399),#420,.F.);
#444=ADVANCED_FACE('',(#400),#15,.T.);
#445=ADVANCED_FACE('',(#401),#421,.T.);
#446=ADVANCED_FACE('',(#402),#422,.T.);
#447=ADVANCED_FACE('',(#403),#423,.F.);
#448=CLOSED_SHELL('',(#424,#425,#426,#427,#428,#429,#430,#431,#432,#433,
#434,#435,#436,#437,#438,#439,#440,#441,#442,#443,#444,#445,#446,#447));
#449=STYLED_ITEM('',(#450),#457);
#450=PRESENTATION_STYLE_ASSIGNMENT((#451));
#451=SURFACE_STYLE_USAGE(.BOTH.,#452);
#452=SURFACE_SIDE_STYLE('',(#453));
#453=SURFACE_STYLE_FILL_AREA(#454);
#454=FILL_AREA_STYLE('',(#455));
#455=FILL_AREA_STYLE_COLOUR('',#456);
#456=COLOUR_RGB('',0.615686274509804,0.811764705882353,0.929411764705882);
#457=MANIFOLD_SOLID_BREP('Lid',#448);
#458=SHAPE_DEFINITION_REPRESENTATION(#742,#459);
#459=SHAPE_REPRESENTATION('Lid',(#460),#737);
#460=AXIS2_PLACEMENT_3D('',#611,#493,#494);
#461=AXIS2_PLACEMENT_3D('',#612,#495,#496);
#462=AXIS2_PLACEMENT_3D('',#616,#498,#499);
#463=AXIS2_PLACEMENT_3D('',#620,#501,#502);
#464=AXIS2_PLACEMENT_3D('',#645,#515,#516);
#465=AXIS2_PLACEMENT_3D('',#650,#518,#519);
#466=AXIS2_PLACEMENT_3D('',#653,#521,#522);
#467=AXIS2_PLACEMENT_3D('',#659,#526,#527);
#468=AXIS2_PLACEMENT_3D('',#663,#530,#531);
#469=AXIS2_PLACEMENT_3D('',#667,#534,#535);
#470=AXIS2_PLACEMENT_3D('',#669,#537,#538);
#471=AXIS2_PLACEMENT_3D('',#686,#547,#548);
#472=AXIS2_PLACEMENT_3D('',#689,#551,#552);
#473=AXIS2_PLACEMENT_3D('',#692,#555,#556);
#474=AXIS2_PLACEMENT_3D('',#695,#559,#560);
#475=AXIS2_PLACEMENT_3D('',#698,#563,#564);
#476=AXIS2_PLACEMENT_3D('',#699,#565,#566);
#477=AXIS2_PLACEMENT_3D('',#700,#567,#568);
#478=AXIS2_PLACEMENT_3D('',#706,#572,#573);
#479=AXIS2_PLACEMENT_3D('',#709,#575,#576);
#480=AXIS2_PLACEMENT_3D('',#710,#577,#578);
#481=AXIS2_PLACEMENT_3D('',#714,#581,#582);
#482=AXIS2_PLACEMENT_3D('',#715,#583,#584);
#483=AXIS2_PLACEMENT_3D('',#716,#585,#586);
#484=AXIS2_PLACEMENT_3D('',#717,#587,#588);
#485=AXIS2_PLACEMENT_3D('',#723,#592,#593);
#486=AXIS2_PLACEMENT_3D('',#726,#595,#596);
#487=AXIS2_PLACEMENT_3D('',#727,#597,#598);
#488=AXIS2_PLACEMENT_3D('',#731,#601,#602);
#489=AXIS2_PLACEMENT_3D('',#732,#603,#604);
#490=AXIS2_PLACEMENT_3D('',#733,#605,#606);
#491=AXIS2_PLACEMENT_3D('',#734,#607,#608);
#492=AXIS2_PLACEMENT_3D('',#735,#609,#610);
#493=DIRECTION('',(0.,0.,1.));
#494=DIRECTION('',(1.,0.,0.));
#495=DIRECTION('',(0.,0.,1.));
#496=DIRECTION('',(1.,0.,0.));
#497=DIRECTION('',(-1.7347234759768E-16,1.,0.));
#498=DIRECTION('',(0.,0.,-1.));
#499=DIRECTION('',(-1.,0.,0.));
#500=DIRECTION('',(-1.95156391047391E-16,1.,0.));
#501=DIRECTION('',(0.,0.,-1.));
#502=DIRECTION('',(-1.,0.,0.));
#503=DIRECTION('',(0.,-1.,0.));
#504=DIRECTION('',(1.,0.,0.));
#505=DIRECTION('',(2.50571168752205E-16,-1.,0.));
#506=DIRECTION('',(1.,0.,0.));
#507=DIRECTION('',(-1.,0.,0.));
#508=DIRECTION('',(-0.707106781186547,0.707106781186548,0.));
#509=DIRECTION('',(1.26161707343768E-16,-1.,0.));
#510=DIRECTION('',(-0.707106781186548,-0.707106781186548,0.));
#511=DIRECTION('',(-1.,0.,0.));
#512=DIRECTION('',(0.707106781186548,-0.707106781186548,0.));
#513=DIRECTION('',(1.26161707343768E-16,-1.,0.));
#514=DIRECTION('',(0.707106781186547,0.707106781186548,0.));
#515=DIRECTION('',(0.,0.,1.));
#516=DIRECTION('',(-1.,0.,0.));
#517=DIRECTION('',(-1.7347234759768E-16,1.,0.));
#518=DIRECTION('',(0.,0.,1.));
#519=DIRECTION('',(-1.,0.,0.));
#520=DIRECTION('',(-1.95156391047391E-16,1.,0.));
#521=DIRECTION('',(-1.,0.,0.));
#522=DIRECTION('',(0.,0.,1.));
#523=DIRECTION('',(0.,0.,-1.));
#524=DIRECTION('',(0.,1.,0.));
#525=DIRECTION('',(0.,0.,-1.));
#526=DIRECTION('',(0.,-1.,0.));
#527=DIRECTION('',(0.,0.,-1.));
#528=DIRECTION('',(-1.,0.,0.));
#529=DIRECTION('',(0.,0.,-1.));
#530=DIRECTION('',(0.,-1.,0.));
#531=DIRECTION('',(0.,0.,-1.));
#532=DIRECTION('',(0.,0.,-1.));
#533=DIRECTION('',(-1.,0.,0.));
#534=DIRECTION('',(-1.,-2.50571168752205E-16,0.));
#535=DIRECTION('',(2.50571168752205E-16,-1.,0.));
#536=DIRECTION('',(-2.50571168752205E-16,1.,0.));
#537=DIRECTION('',(0.,0.,1.));
#538=DIRECTION('',(1.,0.,0.));
#539=DIRECTION('',(1.26161707343768E-16,-1.,0.));
#540=DIRECTION('',(0.707106781186547,-0.707106781186548,0.));
#541=DIRECTION('',(-1.,0.,0.));
#542=DIRECTION('',(-0.707106781186547,-0.707106781186548,0.));
#543=DIRECTION('',(1.26161707343768E-16,-1.,0.));
#544=DIRECTION('',(-0.707106781186548,0.707106781186548,0.));
#545=DIRECTION('',(-1.,0.,0.));
#546=DIRECTION('',(0.707106781186548,0.707106781186548,0.));
#547=DIRECTION('',(1.,1.26161707343768E-16,0.));
#548=DIRECTION('',(-1.26161707343768E-16,1.,0.));
#549=DIRECTION('',(0.,0.,-1.));
#550=DIRECTION('',(0.,0.,1.));
#551=DIRECTION('',(1.,1.26161707343768E-16,0.));
#552=DIRECTION('',(-1.26161707343768E-16,1.,0.));
#553=DIRECTION('',(0.,0.,1.));
#554=DIRECTION('',(0.,0.,-1.));
#555=DIRECTION('',(0.,-1.,0.));
#556=DIRECTION('',(0.,0.,-1.));
#557=DIRECTION('',(0.,0.,-1.));
#558=DIRECTION('',(0.,0.,1.));
#559=DIRECTION('',(0.,-1.,0.));
#560=DIRECTION('',(0.,0.,-1.));
#561=DIRECTION('',(0.,0.,-1.));
#562=DIRECTION('',(0.,0.,1.));
#563=DIRECTION('',(0.707106781186548,-0.707106781186548,0.));
#564=DIRECTION('',(0.,0.,-1.));
#565=DIRECTION('',(0.707106781186548,0.707106781186548,0.));
#566=DIRECTION('',(0.,0.,1.));
#567=DIRECTION('',(1.,1.7347234759768E-16,0.));
#568=DIRECTION('',(-1.7347234759768E-16,1.,0.));
#569=DIRECTION('',(0.,0.,1.));
#570=DIRECTION('',(-1.7347234759768E-16,1.,0.));
#571=DIRECTION('',(0.,0.,1.));
#572=DIRECTION('',(0.,0.,1.));
#573=DIRECTION('',(1.,0.,0.));
#574=DIRECTION('',(0.,0.,1.));
#575=DIRECTION('',(0.,0.,-1.));
#576=DIRECTION('',(-1.,0.,0.));
#577=DIRECTION('',(1.,1.95156391047391E-16,0.));
#578=DIRECTION('',(-1.95156391047391E-16,1.,0.));
#579=DIRECTION('',(0.,0.,1.));
#580=DIRECTION('',(-1.95156391047391E-16,1.,0.));
#581=DIRECTION('',(0.,0.,1.));
#582=DIRECTION('',(1.,0.,0.));
#583=DIRECTION('',(0.,0.,-1.));
#584=DIRECTION('',(-1.,0.,0.));
#585=DIRECTION('',(0.,0.,-1.));
#586=DIRECTION('',(1.,0.,0.));
#587=DIRECTION('',(1.,1.7347234759768E-16,0.));
#588=DIRECTION('',(-1.7347234759768E-16,1.,0.));
#589=DIRECTION('',(0.,0.,1.));
#590=DIRECTION('',(-1.7347234759768E-16,1.,0.));
#591=DIRECTION('',(0.,0.,1.));
#592=DIRECTION('',(0.,0.,1.));
#593=DIRECTION('',(1.,0.,0.));
#594=DIRECTION('',(0.,0.,1.));
#595=DIRECTION('',(0.,0.,1.));
#596=DIRECTION('',(-1.,0.,0.));
#597=DIRECTION('',(1.,1.95156391047391E-16,0.));
#598=DIRECTION('',(-1.95156391047391E-16,1.,0.));
#599=DIRECTION('',(0.,0.,1.));
#600=DIRECTION('',(-1.95156391047391E-16,1.,0.));
#601=DIRECTION('',(0.,0.,1.));
#602=DIRECTION('',(1.,0.,0.));
#603=DIRECTION('',(0.,0.,1.));
#604=DIRECTION('',(-1.,0.,0.));
#605=DIRECTION('',(0.,0.,-1.));
#606=DIRECTION('',(1.,0.,0.));
#607=DIRECTION('',(-0.707106781186548,-0.707106781186547,0.));
#608=DIRECTION('',(0.,0.,1.));
#609=DIRECTION('',(-0.707106781186548,0.707106781186547,0.));
#610=DIRECTION('',(0.,0.,-1.));
#611=CARTESIAN_POINT('',(0.,0.,0.));
#612=CARTESIAN_POINT('',(-8.67361737988404E-19,0.0125,0.0075));
#613=CARTESIAN_POINT('',(-0.0044,-0.0031642135623731,0.0075));
#614=CARTESIAN_POINT('',(-0.0044,-0.0131642135623731,0.0075));
#615=CARTESIAN_POINT('',(-0.0044,0.00683578643762691,0.0075));
#616=CARTESIAN_POINT('',(-0.004,-0.0131642135623731,0.0075));
#617=CARTESIAN_POINT('',(-0.0036,-0.0131642135623731,0.0075));
#618=CARTESIAN_POINT('',(-0.0036,-0.0031642135623731,0.0075));
#619=CARTESIAN_POINT('',(-0.0036,0.00683578643762691,0.0075));
#620=CARTESIAN_POINT('',(-0.004,0.00683578643762691,0.0075));
#621=CARTESIAN_POINT('',(0.002,0.0125,0.0075));
#622=CARTESIAN_POINT('',(0.002,0.03,0.0075));
#623=CARTESIAN_POINT('',(0.002,-0.015,0.0075));
#624=CARTESIAN_POINT('',(-8.67361737988404E-19,0.03,0.0075));
#625=CARTESIAN_POINT('',(-0.002,0.03,0.0075));
#626=CARTESIAN_POINT('',(-0.002,0.0125,0.0075));
#627=CARTESIAN_POINT('',(-0.002,-0.015,0.0075));
#628=CARTESIAN_POINT('',(-8.67361737988404E-19,-0.015,0.0075));
#629=CARTESIAN_POINT('',(6.93889390390723E-18,-0.055,0.0075));
#630=CARTESIAN_POINT('',(0.004,-0.055,0.0075));
#631=CARTESIAN_POINT('',(-0.004,-0.055,0.0075));
#632=CARTESIAN_POINT('',(-0.004,-0.055,0.0075));
#633=CARTESIAN_POINT('',(-0.005,-0.054,0.0075));
#634=CARTESIAN_POINT('',(-0.005,0.,0.0075));
#635=CARTESIAN_POINT('',(-0.005,0.0475,0.0075));
#636=CARTESIAN_POINT('',(-0.005,0.0475,0.0075));
#637=CARTESIAN_POINT('',(-0.0025,0.05,0.0075));
#638=CARTESIAN_POINT('',(-6.07153216591882E-18,0.05,0.0075));
#639=CARTESIAN_POINT('',(0.0025,0.05,0.0075));
#640=CARTESIAN_POINT('',(0.0025,0.05,0.0075));
#641=CARTESIAN_POINT('',(0.005,0.0475,0.0075));
#642=CARTESIAN_POINT('',(0.005,0.,0.0075));
#643=CARTESIAN_POINT('',(0.005,-0.054,0.0075));
#644=CARTESIAN_POINT('',(0.005,-0.054,0.0075));
#645=CARTESIAN_POINT('',(0.004,-0.0131642135623731,0.0075));
#646=CARTESIAN_POINT('',(0.0036,-0.0131642135623731,0.0075));
#647=CARTESIAN_POINT('',(0.0044,-0.0131642135623731,0.0075));
#648=CARTESIAN_POINT('',(0.0044,-0.00316421356237309,0.0075));
#649=CARTESIAN_POINT('',(0.0044,0.00683578643762691,0.0075));
#650=CARTESIAN_POINT('',(0.004,0.00683578643762691,0.0075));
#651=CARTESIAN_POINT('',(0.0036,0.00683578643762691,0.0075));
#652=CARTESIAN_POINT('',(0.0036,-0.00316421356237309,0.0075));
#653=CARTESIAN_POINT('',(0.002,0.0075,0.009502));
#654=CARTESIAN_POINT('',(0.002,-0.015,0.009502));
#655=CARTESIAN_POINT('',(0.002,-0.015,0.0095));
#656=CARTESIAN_POINT('',(0.002,0.0075,0.0095));
#657=CARTESIAN_POINT('',(0.002,0.03,0.0095));
#658=CARTESIAN_POINT('',(0.002,0.03,0.009502));
#659=CARTESIAN_POINT('',(1.3010426069826E-18,0.03,0.009502));
#660=CARTESIAN_POINT('',(1.3010426069826E-18,0.03,0.0095));
#661=CARTESIAN_POINT('',(-0.002,0.03,0.0095));
#662=CARTESIAN_POINT('',(-0.002,0.03,0.009502));
#663=CARTESIAN_POINT('',(5.20417042793042E-18,-0.015,0.009502));
#664=CARTESIAN_POINT('',(-0.002,-0.015,0.009502));
#665=CARTESIAN_POINT('',(-0.002,-0.015,0.0095));
#666=CARTESIAN_POINT('',(5.20417042793042E-18,-0.015,0.0095));
#667=CARTESIAN_POINT('',(-0.002,0.0075,0.009502));
#668=CARTESIAN_POINT('',(-0.002,0.0075,0.0095));
#669=CARTESIAN_POINT('',(-8.67361737988404E-19,0.0125,0.0095));
#670=CARTESIAN_POINT('',(-0.005,0.,0.0095));
#671=CARTESIAN_POINT('',(-0.005,0.0475,0.0095));
#672=CARTESIAN_POINT('',(-0.005,-0.054,0.0095));
#673=CARTESIAN_POINT('',(-0.03575,-0.02325,0.0095));
#674=CARTESIAN_POINT('',(-0.004,-0.055,0.0095));
#675=CARTESIAN_POINT('',(6.93889390390723E-18,-0.055,0.0095));
#676=CARTESIAN_POINT('',(0.004,-0.055,0.0095));
#677=CARTESIAN_POINT('',(0.03575,-0.02325,0.0095));
#678=CARTESIAN_POINT('',(0.005,-0.054,0.0095));
#679=CARTESIAN_POINT('',(0.005,0.,0.0095));
#680=CARTESIAN_POINT('',(0.005,0.0475,0.0095));
#681=CARTESIAN_POINT('',(0.02,0.0325,0.0095));
#682=CARTESIAN_POINT('',(0.0025,0.05,0.0095));
#683=CARTESIAN_POINT('',(-6.07153216591882E-18,0.05,0.0095));
#684=CARTESIAN_POINT('',(-0.0025,0.05,0.0095));
#685=CARTESIAN_POINT('',(-0.02,0.0325,0.0095));
#686=CARTESIAN_POINT('',(0.005,0.,0.0025));
#687=CARTESIAN_POINT('',(0.005,-0.054,0.0025));
#688=CARTESIAN_POINT('',(0.005,0.0475,0.0095));
#689=CARTESIAN_POINT('',(-0.005,0.,0.0025));
#690=CARTESIAN_POINT('',(-0.005,-0.054,0.0095));
#691=CARTESIAN_POINT('',(-0.005,0.0475,0.0025));
#692=CARTESIAN_POINT('',(6.93889390390723E-18,-0.055,0.0025));
#693=CARTESIAN_POINT('',(-0.004,-0.055,0.0075));
#694=CARTESIAN_POINT('',(0.004,-0.055,0.0025));
#695=CARTESIAN_POINT('',(-6.07153216591882E-18,0.05,0.0095));
#696=CARTESIAN_POINT('',(0.0025,0.05,0.0025));
#697=CARTESIAN_POINT('',(-0.0025,0.05,0.0095));
#698=CARTESIAN_POINT('',(-0.005,0.0475,0.0025));
#699=CARTESIAN_POINT('',(0.0025,0.05,0.0095));
#700=CARTESIAN_POINT('',(-0.0044,-0.0031642135623731,0.00565));
#701=CARTESIAN_POINT('',(-0.0044,0.00683578643762691,0.00565));
#702=CARTESIAN_POINT('',(-0.0044,0.00683578643762691,0.00565));
#703=CARTESIAN_POINT('',(-0.0044,-0.0031642135623731,0.00565));
#704=CARTESIAN_POINT('',(-0.0044,-0.0131642135623731,0.00565));
#705=CARTESIAN_POINT('',(-0.0044,-0.0131642135623731,0.00565));
#706=CARTESIAN_POINT('',(-0.004,0.00683578643762691,0.00565));
#707=CARTESIAN_POINT('',(-0.0036,0.00683578643762691,0.00565));
#708=CARTESIAN_POINT('',(-0.0036,0.00683578643762691,0.00565));
#709=CARTESIAN_POINT('',(-0.004,0.00683578643762691,0.00565));
#710=CARTESIAN_POINT('',(-0.0036,-0.0031642135623731,0.00565));
#711=CARTESIAN_POINT('',(-0.0036,-0.0131642135623731,0.00565));
#712=CARTESIAN_POINT('',(-0.0036,-0.0131642135623731,0.00565));
#713=CARTESIAN_POINT('',(-0.0036,-0.0031642135623731,0.00565));
#714=CARTESIAN_POINT('',(-0.004,-0.0131642135623731,0.00565));
#715=CARTESIAN_POINT('',(-0.004,-0.0131642135623731,0.00565));
#716=CARTESIAN_POINT('',(0.,-0.0025,0.00565));
#717=CARTESIAN_POINT('',(0.0044,-0.00316421356237309,0.00565));
#718=CARTESIAN_POINT('',(0.0044,-0.0131642135623731,0.00565));
#719=CARTESIAN_POINT('',(0.0044,-0.0131642135623731,0.00565));
#720=CARTESIAN_POINT('',(0.0044,-0.00316421356237309,0.00565));
#721=CARTESIAN_POINT('',(0.0044,0.00683578643762691,0.00565));
#722=CARTESIAN_POINT('',(0.0044,0.00683578643762691,0.00565));
#723=CARTESIAN_POINT('',(0.004,-0.0131642135623731,0.00565));
#724=CARTESIAN_POINT('',(0.0036,-0.0131642135623731,0.00565));
#725=CARTESIAN_POINT('',(0.0036,-0.0131642135623731,0.00565));
#726=CARTESIAN_POINT('',(0.004,-0.0131642135623731,0.00565));
#727=CARTESIAN_POINT('',(0.0036,-0.00316421356237309,0.00565));
#728=CARTESIAN_POINT('',(0.0036,0.00683578643762691,0.00565));
#729=CARTESIAN_POINT('',(0.0036,0.00683578643762691,0.00565));
#730=CARTESIAN_POINT('',(0.0036,-0.00316421356237309,0.00565));
#731=CARTESIAN_POINT('',(0.004,0.00683578643762691,0.00565));
#732=CARTESIAN_POINT('',(0.004,0.00683578643762691,0.00565));
#733=CARTESIAN_POINT('',(0.,-0.0025,0.00565));
#734=CARTESIAN_POINT('',(-0.004,-0.055,0.0025));
#735=CARTESIAN_POINT('',(0.005,-0.054,0.0025));
#736=MECHANICAL_DESIGN_GEOMETRIC_PRESENTATION_REPRESENTATION('',(#449),
#737);
#737=(
GEOMETRIC_REPRESENTATION_CONTEXT(3)
GLOBAL_UNCERTAINTY_ASSIGNED_CONTEXT((#738))
GLOBAL_UNIT_ASSIGNED_CONTEXT((#741,#740,#739))
REPRESENTATION_CONTEXT('Lid','TOP_LEVEL_ASSEMBLY_PART')
);
#738=UNCERTAINTY_MEASURE_WITH_UNIT(LENGTH_MEASURE(1.E-8),#741,
'DISTANCE_ACCURACY_VALUE','Maximum Tolerance applied to model');
#739=(
NAMED_UNIT(*)
SI_UNIT($,.STERADIAN.)
SOLID_ANGLE_UNIT()
);
#740=(
NAMED_UNIT(*)
PLANE_ANGLE_UNIT()
SI_UNIT($,.RADIAN.)
);
#741=(
LENGTH_UNIT()
NAMED_UNIT(*)
SI_UNIT($,.METRE.)
);
#742=PRODUCT_DEFINITION_SHAPE('','',#743);
#743=PRODUCT_DEFINITION('','',#745,#744);
#744=PRODUCT_DEFINITION_CONTEXT('',#751,'design');
#745=PRODUCT_DEFINITION_FORMATION_WITH_SPECIFIED_SOURCE('','',#747,
 .NOT_KNOWN.);
#746=PRODUCT_RELATED_PRODUCT_CATEGORY('','',(#747));
#747=PRODUCT('Lid','Lid','Lid',(#749));
#748=PRODUCT_CATEGORY('','');
#749=PRODUCT_CONTEXT('',#751,'mechanical');
#750=APPLICATION_PROTOCOL_DEFINITION('international standard',
'ap242_managed_model_based_3d_engineering',2020,#751);
#751=APPLICATION_CONTEXT('managed model based 3d engineering');
ENDSEC;
END-ISO-10303-21;
