ISO-10303-21;
HEADER;
/* Generated by software containing ST-Developer
 * from STEP Tools, Inc. (www.steptools.com) 
 */
/* OPTION: using custom renumber hook */

FILE_DESCRIPTION(
/* description */ ('STEP AP242 Edition 2',
'CAx-IF Rec.Pracs.---Representation and Presentation of Product Manufa
cturing Information (PMI)---4.0---2014-10-13',
'CAx-IF Rec.Pracs.---3D Tessellated Geometry---0.4---2014-09-14','2;1',
'CAx-IF Rec.Pracs.---User Defined Attributes---1.5---2016-08-15'),
/* implementation_level */ '2;1');

FILE_NAME(
/* name */ 'Smart Scalpel - Mechanical Retraction - Frame',
/* time_stamp */ '2026-06-10T17:54:12Z',
/* author */ (''),
/* organization */ (''),
/* preprocessor_version */ 'ST-DEVELOPER v20',
/* originating_system */ 'ONSHAPE BY PTC INC, 1.216',
/* authorisation */ '  ');

FILE_SCHEMA (('AP242_MANAGED_MODEL_BASED_3D_ENGINEERING_MIM_LF { 1 0 10303 442 3 1 4 }'));
ENDSEC;

DATA;
#10=SHAPE_REPRESENTATION_RELATIONSHIP('','',#635,#11);
#11=ADVANCED_BREP_SHAPE_REPRESENTATION('',(#633),#1024);
#12=CYLINDRICAL_SURFACE('',#654,0.00075);
#13=CYLINDRICAL_SURFACE('',#665,0.00055);
#14=CYLINDRICAL_SURFACE('',#668,0.00055);
#15=CYLINDRICAL_SURFACE('',#671,0.00055);
#16=CYLINDRICAL_SURFACE('',#674,0.00055);
#17=CYLINDRICAL_SURFACE('',#680,0.002);
#18=CIRCLE('',#638,0.00055);
#19=CIRCLE('',#639,0.00055);
#20=CIRCLE('',#640,0.00055);
#21=CIRCLE('',#641,0.00055);
#22=CIRCLE('',#649,0.00075);
#23=CIRCLE('',#651,0.002);
#24=CIRCLE('',#655,0.00075);
#25=CIRCLE('',#658,0.002);
#26=CIRCLE('',#666,0.00055);
#27=CIRCLE('',#669,0.00055);
#28=CIRCLE('',#672,0.00055);
#29=CIRCLE('',#675,0.00055);
#30=CIRCLE('',#681,0.002);
#31=ORIENTED_EDGE('',*,*,#199,.F.);
#32=ORIENTED_EDGE('',*,*,#200,.T.);
#33=ORIENTED_EDGE('',*,*,#201,.T.);
#34=ORIENTED_EDGE('',*,*,#202,.T.);
#35=ORIENTED_EDGE('',*,*,#203,.T.);
#36=ORIENTED_EDGE('',*,*,#204,.T.);
#37=ORIENTED_EDGE('',*,*,#205,.F.);
#38=ORIENTED_EDGE('',*,*,#206,.T.);
#39=ORIENTED_EDGE('',*,*,#207,.F.);
#40=ORIENTED_EDGE('',*,*,#208,.F.);
#41=ORIENTED_EDGE('',*,*,#209,.T.);
#42=ORIENTED_EDGE('',*,*,#210,.F.);
#43=ORIENTED_EDGE('',*,*,#211,.T.);
#44=ORIENTED_EDGE('',*,*,#212,.T.);
#45=ORIENTED_EDGE('',*,*,#213,.F.);
#46=ORIENTED_EDGE('',*,*,#214,.F.);
#47=ORIENTED_EDGE('',*,*,#215,.F.);
#48=ORIENTED_EDGE('',*,*,#216,.F.);
#49=ORIENTED_EDGE('',*,*,#217,.F.);
#50=ORIENTED_EDGE('',*,*,#218,.F.);
#51=ORIENTED_EDGE('',*,*,#219,.F.);
#52=ORIENTED_EDGE('',*,*,#220,.T.);
#53=ORIENTED_EDGE('',*,*,#221,.F.);
#54=ORIENTED_EDGE('',*,*,#222,.T.);
#55=ORIENTED_EDGE('',*,*,#223,.F.);
#56=ORIENTED_EDGE('',*,*,#224,.F.);
#57=ORIENTED_EDGE('',*,*,#225,.F.);
#58=ORIENTED_EDGE('',*,*,#226,.F.);
#59=ORIENTED_EDGE('',*,*,#227,.F.);
#60=ORIENTED_EDGE('',*,*,#228,.T.);
#61=ORIENTED_EDGE('',*,*,#229,.T.);
#62=ORIENTED_EDGE('',*,*,#230,.F.);
#63=ORIENTED_EDGE('',*,*,#231,.F.);
#64=ORIENTED_EDGE('',*,*,#232,.F.);
#65=ORIENTED_EDGE('',*,*,#233,.F.);
#66=ORIENTED_EDGE('',*,*,#234,.F.);
#67=ORIENTED_EDGE('',*,*,#235,.F.);
#68=ORIENTED_EDGE('',*,*,#236,.F.);
#69=ORIENTED_EDGE('',*,*,#237,.F.);
#70=ORIENTED_EDGE('',*,*,#233,.T.);
#71=ORIENTED_EDGE('',*,*,#238,.T.);
#72=ORIENTED_EDGE('',*,*,#239,.T.);
#73=ORIENTED_EDGE('',*,*,#240,.F.);
#74=ORIENTED_EDGE('',*,*,#231,.T.);
#75=ORIENTED_EDGE('',*,*,#241,.T.);
#76=ORIENTED_EDGE('',*,*,#242,.T.);
#77=ORIENTED_EDGE('',*,*,#243,.T.);
#78=ORIENTED_EDGE('',*,*,#214,.T.);
#79=ORIENTED_EDGE('',*,*,#244,.T.);
#80=ORIENTED_EDGE('',*,*,#228,.F.);
#81=ORIENTED_EDGE('',*,*,#226,.T.);
#82=ORIENTED_EDGE('',*,*,#245,.T.);
#83=ORIENTED_EDGE('',*,*,#216,.T.);
#84=ORIENTED_EDGE('',*,*,#246,.T.);
#85=ORIENTED_EDGE('',*,*,#247,.F.);
#86=ORIENTED_EDGE('',*,*,#227,.T.);
#87=ORIENTED_EDGE('',*,*,#246,.F.);
#88=ORIENTED_EDGE('',*,*,#215,.T.);
#89=ORIENTED_EDGE('',*,*,#243,.F.);
#90=ORIENTED_EDGE('',*,*,#224,.T.);
#91=ORIENTED_EDGE('',*,*,#248,.T.);
#92=ORIENTED_EDGE('',*,*,#230,.T.);
#93=ORIENTED_EDGE('',*,*,#249,.F.);
#94=ORIENTED_EDGE('',*,*,#212,.F.);
#95=ORIENTED_EDGE('',*,*,#250,.T.);
#96=ORIENTED_EDGE('',*,*,#213,.T.);
#97=ORIENTED_EDGE('',*,*,#249,.T.);
#98=ORIENTED_EDGE('',*,*,#229,.F.);
#99=ORIENTED_EDGE('',*,*,#244,.F.);
#100=ORIENTED_EDGE('',*,*,#225,.T.);
#101=ORIENTED_EDGE('',*,*,#250,.F.);
#102=ORIENTED_EDGE('',*,*,#211,.F.);
#103=ORIENTED_EDGE('',*,*,#245,.F.);
#104=ORIENTED_EDGE('',*,*,#247,.T.);
#105=ORIENTED_EDGE('',*,*,#251,.T.);
#106=ORIENTED_EDGE('',*,*,#252,.F.);
#107=ORIENTED_EDGE('',*,*,#236,.T.);
#108=ORIENTED_EDGE('',*,*,#253,.T.);
#109=ORIENTED_EDGE('',*,*,#254,.T.);
#110=ORIENTED_EDGE('',*,*,#255,.F.);
#111=ORIENTED_EDGE('',*,*,#256,.T.);
#112=ORIENTED_EDGE('',*,*,#257,.F.);
#113=ORIENTED_EDGE('',*,*,#205,.T.);
#114=ORIENTED_EDGE('',*,*,#258,.T.);
#115=ORIENTED_EDGE('',*,*,#238,.F.);
#116=ORIENTED_EDGE('',*,*,#259,.T.);
#117=ORIENTED_EDGE('',*,*,#260,.F.);
#118=ORIENTED_EDGE('',*,*,#210,.T.);
#119=ORIENTED_EDGE('',*,*,#261,.F.);
#120=ORIENTED_EDGE('',*,*,#254,.F.);
#121=ORIENTED_EDGE('',*,*,#262,.F.);
#122=ORIENTED_EDGE('',*,*,#208,.T.);
#123=ORIENTED_EDGE('',*,*,#263,.F.);
#124=ORIENTED_EDGE('',*,*,#256,.F.);
#125=ORIENTED_EDGE('',*,*,#251,.F.);
#126=ORIENTED_EDGE('',*,*,#209,.F.);
#127=ORIENTED_EDGE('',*,*,#262,.T.);
#128=ORIENTED_EDGE('',*,*,#255,.T.);
#129=ORIENTED_EDGE('',*,*,#261,.T.);
#130=ORIENTED_EDGE('',*,*,#240,.T.);
#131=ORIENTED_EDGE('',*,*,#264,.T.);
#132=ORIENTED_EDGE('',*,*,#203,.F.);
#133=ORIENTED_EDGE('',*,*,#260,.T.);
#134=ORIENTED_EDGE('',*,*,#253,.F.);
#135=ORIENTED_EDGE('',*,*,#235,.T.);
#136=ORIENTED_EDGE('',*,*,#232,.T.);
#137=ORIENTED_EDGE('',*,*,#207,.T.);
#138=ORIENTED_EDGE('',*,*,#265,.T.);
#139=ORIENTED_EDGE('',*,*,#241,.F.);
#140=ORIENTED_EDGE('',*,*,#234,.T.);
#141=ORIENTED_EDGE('',*,*,#237,.T.);
#142=ORIENTED_EDGE('',*,*,#252,.T.);
#143=ORIENTED_EDGE('',*,*,#263,.T.);
#144=ORIENTED_EDGE('',*,*,#199,.T.);
#145=ORIENTED_EDGE('',*,*,#266,.F.);
#146=ORIENTED_EDGE('',*,*,#267,.F.);
#147=ORIENTED_EDGE('',*,*,#268,.T.);
#148=ORIENTED_EDGE('',*,*,#200,.F.);
#149=ORIENTED_EDGE('',*,*,#268,.F.);
#150=ORIENTED_EDGE('',*,*,#269,.T.);
#151=ORIENTED_EDGE('',*,*,#270,.T.);
#152=ORIENTED_EDGE('',*,*,#201,.F.);
#153=ORIENTED_EDGE('',*,*,#270,.F.);
#154=ORIENTED_EDGE('',*,*,#271,.T.);
#155=ORIENTED_EDGE('',*,*,#272,.T.);
#156=ORIENTED_EDGE('',*,*,#202,.F.);
#157=ORIENTED_EDGE('',*,*,#272,.F.);
#158=ORIENTED_EDGE('',*,*,#273,.T.);
#159=ORIENTED_EDGE('',*,*,#266,.T.);
#160=ORIENTED_EDGE('',*,*,#267,.T.);
#161=ORIENTED_EDGE('',*,*,#273,.F.);
#162=ORIENTED_EDGE('',*,*,#271,.F.);
#163=ORIENTED_EDGE('',*,*,#269,.F.);
#164=ORIENTED_EDGE('',*,*,#217,.T.);
#165=ORIENTED_EDGE('',*,*,#274,.F.);
#166=ORIENTED_EDGE('',*,*,#275,.F.);
#167=ORIENTED_EDGE('',*,*,#276,.T.);
#168=ORIENTED_EDGE('',*,*,#218,.T.);
#169=ORIENTED_EDGE('',*,*,#276,.F.);
#170=ORIENTED_EDGE('',*,*,#277,.F.);
#171=ORIENTED_EDGE('',*,*,#278,.T.);
#172=ORIENTED_EDGE('',*,*,#219,.T.);
#173=ORIENTED_EDGE('',*,*,#278,.F.);
#174=ORIENTED_EDGE('',*,*,#279,.F.);
#175=ORIENTED_EDGE('',*,*,#280,.T.);
#176=ORIENTED_EDGE('',*,*,#220,.F.);
#177=ORIENTED_EDGE('',*,*,#280,.F.);
#178=ORIENTED_EDGE('',*,*,#281,.T.);
#179=ORIENTED_EDGE('',*,*,#274,.T.);
#180=ORIENTED_EDGE('',*,*,#275,.T.);
#181=ORIENTED_EDGE('',*,*,#281,.F.);
#182=ORIENTED_EDGE('',*,*,#279,.T.);
#183=ORIENTED_EDGE('',*,*,#277,.T.);
#184=ORIENTED_EDGE('',*,*,#204,.F.);
#185=ORIENTED_EDGE('',*,*,#264,.F.);
#186=ORIENTED_EDGE('',*,*,#239,.F.);
#187=ORIENTED_EDGE('',*,*,#258,.F.);
#188=ORIENTED_EDGE('',*,*,#206,.F.);
#189=ORIENTED_EDGE('',*,*,#259,.F.);
#190=ORIENTED_EDGE('',*,*,#242,.F.);
#191=ORIENTED_EDGE('',*,*,#265,.F.);
#192=ORIENTED_EDGE('',*,*,#221,.T.);
#193=ORIENTED_EDGE('',*,*,#248,.F.);
#194=ORIENTED_EDGE('',*,*,#223,.T.);
#195=ORIENTED_EDGE('',*,*,#282,.F.);
#196=ORIENTED_EDGE('',*,*,#257,.T.);
#197=ORIENTED_EDGE('',*,*,#282,.T.);
#198=ORIENTED_EDGE('',*,*,#222,.F.);
#199=EDGE_CURVE('',#283,#284,#340,.T.);
#200=EDGE_CURVE('',#283,#285,#18,.T.);
#201=EDGE_CURVE('',#285,#286,#341,.T.);
#202=EDGE_CURVE('',#286,#284,#19,.T.);
#203=EDGE_CURVE('',#287,#288,#342,.T.);
#204=EDGE_CURVE('',#288,#289,#343,.T.);
#205=EDGE_CURVE('',#290,#289,#344,.T.);
#206=EDGE_CURVE('',#290,#291,#345,.F.);
#207=EDGE_CURVE('',#292,#291,#346,.T.);
#208=EDGE_CURVE('',#293,#292,#347,.T.);
#209=EDGE_CURVE('',#293,#294,#348,.T.);
#210=EDGE_CURVE('',#287,#294,#349,.F.);
#211=EDGE_CURVE('',#295,#296,#350,.T.);
#212=EDGE_CURVE('',#296,#297,#351,.T.);
#213=EDGE_CURVE('',#298,#297,#352,.T.);
#214=EDGE_CURVE('',#299,#298,#353,.F.);
#215=EDGE_CURVE('',#300,#299,#354,.T.);
#216=EDGE_CURVE('',#295,#300,#355,.T.);
#217=EDGE_CURVE('',#301,#302,#20,.T.);
#218=EDGE_CURVE('',#303,#301,#356,.T.);
#219=EDGE_CURVE('',#304,#303,#21,.T.);
#220=EDGE_CURVE('',#304,#302,#357,.T.);
#221=EDGE_CURVE('',#305,#306,#358,.T.);
#222=EDGE_CURVE('',#305,#307,#359,.T.);
#223=EDGE_CURVE('',#308,#307,#360,.F.);
#224=EDGE_CURVE('',#309,#308,#361,.T.);
#225=EDGE_CURVE('',#310,#309,#362,.T.);
#226=EDGE_CURVE('',#311,#310,#363,.T.);
#227=EDGE_CURVE('',#312,#311,#364,.T.);
#228=EDGE_CURVE('',#312,#313,#365,.F.);
#229=EDGE_CURVE('',#313,#314,#366,.T.);
#230=EDGE_CURVE('',#306,#314,#367,.T.);
#231=EDGE_CURVE('',#315,#316,#368,.T.);
#232=EDGE_CURVE('',#317,#315,#369,.T.);
#233=EDGE_CURVE('',#318,#317,#370,.F.);
#234=EDGE_CURVE('',#316,#318,#371,.T.);
#235=EDGE_CURVE('',#319,#317,#372,.F.);
#236=EDGE_CURVE('',#320,#319,#373,.T.);
#237=EDGE_CURVE('',#318,#320,#374,.F.);
#238=EDGE_CURVE('',#321,#322,#375,.T.);
#239=EDGE_CURVE('',#322,#323,#376,.T.);
#240=EDGE_CURVE('',#315,#323,#377,.T.);
#241=EDGE_CURVE('',#316,#324,#378,.T.);
#242=EDGE_CURVE('',#324,#321,#379,.F.);
#243=EDGE_CURVE('',#312,#299,#380,.F.);
#244=EDGE_CURVE('',#298,#313,#381,.F.);
#245=EDGE_CURVE('',#310,#295,#382,.T.);
#246=EDGE_CURVE('',#300,#311,#383,.T.);
#247=EDGE_CURVE('',#325,#325,#22,.T.);
#248=EDGE_CURVE('',#308,#306,#23,.T.);
#249=EDGE_CURVE('',#297,#314,#384,.T.);
#250=EDGE_CURVE('',#296,#309,#385,.T.);
#251=EDGE_CURVE('',#326,#326,#24,.T.);
#252=EDGE_CURVE('',#320,#327,#386,.T.);
#253=EDGE_CURVE('',#319,#328,#387,.T.);
#254=EDGE_CURVE('',#328,#329,#388,.F.);
#255=EDGE_CURVE('',#330,#329,#389,.T.);
#256=EDGE_CURVE('',#330,#327,#390,.T.);
#257=EDGE_CURVE('',#331,#331,#25,.T.);
#258=EDGE_CURVE('',#289,#322,#391,.T.);
#259=EDGE_CURVE('',#321,#290,#392,.T.);
#260=EDGE_CURVE('',#287,#328,#393,.T.);
#261=EDGE_CURVE('',#329,#294,#394,.T.);
#262=EDGE_CURVE('',#293,#330,#395,.T.);
#263=EDGE_CURVE('',#327,#292,#396,.T.);
#264=EDGE_CURVE('',#323,#288,#397,.T.);
#265=EDGE_CURVE('',#291,#324,#398,.T.);
#266=EDGE_CURVE('',#332,#284,#399,.T.);
#267=EDGE_CURVE('',#333,#332,#400,.T.);
#268=EDGE_CURVE('',#333,#283,#401,.T.);
#269=EDGE_CURVE('',#333,#334,#26,.T.);
#270=EDGE_CURVE('',#334,#285,#402,.T.);
#271=EDGE_CURVE('',#334,#335,#403,.T.);
#272=EDGE_CURVE('',#335,#286,#404,.T.);
#273=EDGE_CURVE('',#335,#332,#27,.T.);
#274=EDGE_CURVE('',#336,#302,#405,.T.);
#275=EDGE_CURVE('',#337,#336,#28,.T.);
#276=EDGE_CURVE('',#337,#301,#406,.T.);
#277=EDGE_CURVE('',#338,#337,#407,.T.);
#278=EDGE_CURVE('',#338,#303,#408,.T.);
#279=EDGE_CURVE('',#339,#338,#29,.T.);
#280=EDGE_CURVE('',#339,#304,#409,.T.);
#281=EDGE_CURVE('',#339,#336,#410,.T.);
#282=EDGE_CURVE('',#305,#307,#30,.T.);
#283=VERTEX_POINT('',#851);
#284=VERTEX_POINT('',#852);
#285=VERTEX_POINT('',#854);
#286=VERTEX_POINT('',#856);
#287=VERTEX_POINT('',#859);
#288=VERTEX_POINT('',#860);
#289=VERTEX_POINT('',#862);
#290=VERTEX_POINT('',#864);
#291=VERTEX_POINT('',#866);
#292=VERTEX_POINT('',#868);
#293=VERTEX_POINT('',#870);
#294=VERTEX_POINT('',#872);
#295=VERTEX_POINT('',#875);
#296=VERTEX_POINT('',#876);
#297=VERTEX_POINT('',#878);
#298=VERTEX_POINT('',#880);
#299=VERTEX_POINT('',#882);
#300=VERTEX_POINT('',#884);
#301=VERTEX_POINT('',#887);
#302=VERTEX_POINT('',#888);
#303=VERTEX_POINT('',#890);
#304=VERTEX_POINT('',#892);
#305=VERTEX_POINT('',#896);
#306=VERTEX_POINT('',#897);
#307=VERTEX_POINT('',#899);
#308=VERTEX_POINT('',#901);
#309=VERTEX_POINT('',#903);
#310=VERTEX_POINT('',#905);
#311=VERTEX_POINT('',#907);
#312=VERTEX_POINT('',#909);
#313=VERTEX_POINT('',#911);
#314=VERTEX_POINT('',#913);
#315=VERTEX_POINT('',#917);
#316=VERTEX_POINT('',#918);
#317=VERTEX_POINT('',#920);
#318=VERTEX_POINT('',#922);
#319=VERTEX_POINT('',#926);
#320=VERTEX_POINT('',#928);
#321=VERTEX_POINT('',#932);
#322=VERTEX_POINT('',#933);
#323=VERTEX_POINT('',#935);
#324=VERTEX_POINT('',#938);
#325=VERTEX_POINT('',#948);
#326=VERTEX_POINT('',#957);
#327=VERTEX_POINT('',#960);
#328=VERTEX_POINT('',#962);
#329=VERTEX_POINT('',#964);
#330=VERTEX_POINT('',#966);
#331=VERTEX_POINT('',#970);
#332=VERTEX_POINT('',#986);
#333=VERTEX_POINT('',#988);
#334=VERTEX_POINT('',#992);
#335=VERTEX_POINT('',#996);
#336=VERTEX_POINT('',#1003);
#337=VERTEX_POINT('',#1005);
#338=VERTEX_POINT('',#1009);
#339=VERTEX_POINT('',#1013);
#340=LINE('',#850,#411);
#341=LINE('',#855,#412);
#342=LINE('',#858,#413);
#343=LINE('',#861,#414);
#344=LINE('',#863,#415);
#345=LINE('',#865,#416);
#346=LINE('',#867,#417);
#347=LINE('',#869,#418);
#348=LINE('',#871,#419);
#349=LINE('',#873,#420);
#350=LINE('',#874,#421);
#351=LINE('',#877,#422);
#352=LINE('',#879,#423);
#353=LINE('',#881,#424);
#354=LINE('',#883,#425);
#355=LINE('',#885,#426);
#356=LINE('',#889,#427);
#357=LINE('',#893,#428);
#358=LINE('',#895,#429);
#359=LINE('',#898,#430);
#360=LINE('',#900,#431);
#361=LINE('',#902,#432);
#362=LINE('',#904,#433);
#363=LINE('',#906,#434);
#364=LINE('',#908,#435);
#365=LINE('',#910,#436);
#366=LINE('',#912,#437);
#367=LINE('',#914,#438);
#368=LINE('',#916,#439);
#369=LINE('',#919,#440);
#370=LINE('',#921,#441);
#371=LINE('',#923,#442);
#372=LINE('',#925,#443);
#373=LINE('',#927,#444);
#374=LINE('',#929,#445);
#375=LINE('',#931,#446);
#376=LINE('',#934,#447);
#377=LINE('',#936,#448);
#378=LINE('',#937,#449);
#379=LINE('',#939,#450);
#380=LINE('',#941,#451);
#381=LINE('',#942,#452);
#382=LINE('',#944,#453);
#383=LINE('',#945,#454);
#384=LINE('',#951,#455);
#385=LINE('',#952,#456);
#386=LINE('',#959,#457);
#387=LINE('',#961,#458);
#388=LINE('',#963,#459);
#389=LINE('',#965,#460);
#390=LINE('',#967,#461);
#391=LINE('',#971,#462);
#392=LINE('',#972,#463);
#393=LINE('',#974,#464);
#394=LINE('',#975,#465);
#395=LINE('',#977,#466);
#396=LINE('',#978,#467);
#397=LINE('',#981,#468);
#398=LINE('',#983,#469);
#399=LINE('',#985,#470);
#400=LINE('',#987,#471);
#401=LINE('',#989,#472);
#402=LINE('',#993,#473);
#403=LINE('',#995,#474);
#404=LINE('',#997,#475);
#405=LINE('',#1002,#476);
#406=LINE('',#1006,#477);
#407=LINE('',#1008,#478);
#408=LINE('',#1010,#479);
#409=LINE('',#1014,#480);
#410=LINE('',#1016,#481);
#411=VECTOR('',#687,1.);
#412=VECTOR('',#690,1.);
#413=VECTOR('',#693,1.);
#414=VECTOR('',#694,1.);
#415=VECTOR('',#695,1.);
#416=VECTOR('',#696,1.);
#417=VECTOR('',#697,1.);
#418=VECTOR('',#698,1.);
#419=VECTOR('',#699,1.);
#420=VECTOR('',#700,1.);
#421=VECTOR('',#701,1.);
#422=VECTOR('',#702,1.);
#423=VECTOR('',#703,1.);
#424=VECTOR('',#704,1.);
#425=VECTOR('',#705,1.);
#426=VECTOR('',#706,1.);
#427=VECTOR('',#709,1.);
#428=VECTOR('',#712,1.);
#429=VECTOR('',#715,1.);
#430=VECTOR('',#716,1.);
#431=VECTOR('',#717,1.);
#432=VECTOR('',#718,1.);
#433=VECTOR('',#719,1.);
#434=VECTOR('',#720,1.);
#435=VECTOR('',#721,1.);
#436=VECTOR('',#722,1.);
#437=VECTOR('',#723,1.);
#438=VECTOR('',#724,1.);
#439=VECTOR('',#727,1.);
#440=VECTOR('',#728,1.);
#441=VECTOR('',#729,1.);
#442=VECTOR('',#730,1.);
#443=VECTOR('',#733,1.);
#444=VECTOR('',#734,1.);
#445=VECTOR('',#735,1.);
#446=VECTOR('',#738,1.);
#447=VECTOR('',#739,1.);
#448=VECTOR('',#740,1.);
#449=VECTOR('',#741,1.);
#450=VECTOR('',#742,1.);
#451=VECTOR('',#745,1.);
#452=VECTOR('',#746,1.);
#453=VECTOR('',#749,1.);
#454=VECTOR('',#750,1.);
#455=VECTOR('',#759,1.);
#456=VECTOR('',#760,1.);
#457=VECTOR('',#771,1.);
#458=VECTOR('',#772,1.);
#459=VECTOR('',#773,1.);
#460=VECTOR('',#774,1.);
#461=VECTOR('',#775,1.);
#462=VECTOR('',#780,1.);
#463=VECTOR('',#781,1.);
#464=VECTOR('',#784,1.);
#465=VECTOR('',#785,1.);
#466=VECTOR('',#788,1.);
#467=VECTOR('',#789,1.);
#468=VECTOR('',#794,1.);
#469=VECTOR('',#797,1.);
#470=VECTOR('',#800,1.);
#471=VECTOR('',#801,1.);
#472=VECTOR('',#802,1.);
#473=VECTOR('',#807,1.);
#474=VECTOR('',#810,1.);
#475=VECTOR('',#811,1.);
#476=VECTOR('',#820,1.);
#477=VECTOR('',#823,1.);
#478=VECTOR('',#826,1.);
#479=VECTOR('',#827,1.);
#480=VECTOR('',#832,1.);
#481=VECTOR('',#835,1.);
#482=EDGE_LOOP('',(#31,#32,#33,#34));
#483=EDGE_LOOP('',(#35,#36,#37,#38,#39,#40,#41,#42));
#484=EDGE_LOOP('',(#43,#44,#45,#46,#47,#48));
#485=EDGE_LOOP('',(#49,#50,#51,#52));
#486=EDGE_LOOP('',(#53,#54,#55,#56,#57,#58,#59,#60,#61,#62));
#487=EDGE_LOOP('',(#63,#64,#65,#66));
#488=EDGE_LOOP('',(#67,#68,#69,#70));
#489=EDGE_LOOP('',(#71,#72,#73,#74,#75,#76));
#490=EDGE_LOOP('',(#77,#78,#79,#80));
#491=EDGE_LOOP('',(#81,#82,#83,#84));
#492=EDGE_LOOP('',(#85));
#493=EDGE_LOOP('',(#86,#87,#88,#89));
#494=EDGE_LOOP('',(#90,#91,#92,#93,#94,#95));
#495=EDGE_LOOP('',(#96,#97,#98,#99));
#496=EDGE_LOOP('',(#100,#101,#102,#103));
#497=EDGE_LOOP('',(#104));
#498=EDGE_LOOP('',(#105));
#499=EDGE_LOOP('',(#106,#107,#108,#109,#110,#111));
#500=EDGE_LOOP('',(#112));
#501=EDGE_LOOP('',(#113,#114,#115,#116));
#502=EDGE_LOOP('',(#117,#118,#119,#120));
#503=EDGE_LOOP('',(#121,#122,#123,#124));
#504=EDGE_LOOP('',(#125));
#505=EDGE_LOOP('',(#126,#127,#128,#129));
#506=EDGE_LOOP('',(#130,#131,#132,#133,#134,#135,#136));
#507=EDGE_LOOP('',(#137,#138,#139,#140,#141,#142,#143));
#508=EDGE_LOOP('',(#144,#145,#146,#147));
#509=EDGE_LOOP('',(#148,#149,#150,#151));
#510=EDGE_LOOP('',(#152,#153,#154,#155));
#511=EDGE_LOOP('',(#156,#157,#158,#159));
#512=EDGE_LOOP('',(#160,#161,#162,#163));
#513=EDGE_LOOP('',(#164,#165,#166,#167));
#514=EDGE_LOOP('',(#168,#169,#170,#171));
#515=EDGE_LOOP('',(#172,#173,#174,#175));
#516=EDGE_LOOP('',(#176,#177,#178,#179));
#517=EDGE_LOOP('',(#180,#181,#182,#183));
#518=EDGE_LOOP('',(#184,#185,#186,#187));
#519=EDGE_LOOP('',(#188,#189,#190,#191));
#520=EDGE_LOOP('',(#192,#193,#194,#195));
#521=EDGE_LOOP('',(#196));
#522=EDGE_LOOP('',(#197,#198));
#523=FACE_BOUND('',#482,.T.);
#524=FACE_BOUND('',#483,.T.);
#525=FACE_BOUND('',#484,.T.);
#526=FACE_BOUND('',#485,.T.);
#527=FACE_BOUND('',#486,.T.);
#528=FACE_BOUND('',#487,.T.);
#529=FACE_BOUND('',#488,.T.);
#530=FACE_BOUND('',#489,.T.);
#531=FACE_BOUND('',#490,.T.);
#532=FACE_BOUND('',#491,.T.);
#533=FACE_BOUND('',#492,.T.);
#534=FACE_BOUND('',#493,.T.);
#535=FACE_BOUND('',#494,.T.);
#536=FACE_BOUND('',#495,.T.);
#537=FACE_BOUND('',#496,.T.);
#538=FACE_BOUND('',#497,.T.);
#539=FACE_BOUND('',#498,.T.);
#540=FACE_BOUND('',#499,.T.);
#541=FACE_BOUND('',#500,.T.);
#542=FACE_BOUND('',#501,.T.);
#543=FACE_BOUND('',#502,.T.);
#544=FACE_BOUND('',#503,.T.);
#545=FACE_BOUND('',#504,.T.);
#546=FACE_BOUND('',#505,.T.);
#547=FACE_BOUND('',#506,.T.);
#548=FACE_BOUND('',#507,.T.);
#549=FACE_BOUND('',#508,.T.);
#550=FACE_BOUND('',#509,.T.);
#551=FACE_BOUND('',#510,.T.);
#552=FACE_BOUND('',#511,.T.);
#553=FACE_BOUND('',#512,.T.);
#554=FACE_BOUND('',#513,.T.);
#555=FACE_BOUND('',#514,.T.);
#556=FACE_BOUND('',#515,.T.);
#557=FACE_BOUND('',#516,.T.);
#558=FACE_BOUND('',#517,.T.);
#559=FACE_BOUND('',#518,.T.);
#560=FACE_BOUND('',#519,.T.);
#561=FACE_BOUND('',#520,.T.);
#562=FACE_BOUND('',#521,.T.);
#563=FACE_BOUND('',#522,.T.);
#564=PLANE('',#637);
#565=PLANE('',#642);
#566=PLANE('',#643);
#567=PLANE('',#644);
#568=PLANE('',#645);
#569=PLANE('',#646);
#570=PLANE('',#647);
#571=PLANE('',#648);
#572=PLANE('',#650);
#573=PLANE('',#652);
#574=PLANE('',#653);
#575=PLANE('',#656);
#576=PLANE('',#657);
#577=PLANE('',#659);
#578=PLANE('',#660);
#579=PLANE('',#661);
#580=PLANE('',#662);
#581=PLANE('',#663);
#582=PLANE('',#664);
#583=PLANE('',#667);
#584=PLANE('',#670);
#585=PLANE('',#673);
#586=PLANE('',#676);
#587=PLANE('',#677);
#588=PLANE('',#678);
#589=PLANE('',#679);
#590=PLANE('',#682);
#591=ADVANCED_FACE('',(#523,#524,#525,#526),#564,.T.);
#592=ADVANCED_FACE('',(#527),#565,.T.);
#593=ADVANCED_FACE('',(#528),#566,.T.);
#594=ADVANCED_FACE('',(#529),#567,.F.);
#595=ADVANCED_FACE('',(#530),#568,.F.);
#596=ADVANCED_FACE('',(#531),#569,.T.);
#597=ADVANCED_FACE('',(#532),#570,.F.);
#598=ADVANCED_FACE('',(#533,#534),#571,.T.);
#599=ADVANCED_FACE('',(#535),#572,.F.);
#600=ADVANCED_FACE('',(#536),#573,.T.);
#601=ADVANCED_FACE('',(#537),#574,.F.);
#602=ADVANCED_FACE('',(#538,#539),#12,.F.);
#603=ADVANCED_FACE('',(#540),#575,.T.);
#604=ADVANCED_FACE('',(#541,#542),#576,.T.);
#605=ADVANCED_FACE('',(#543),#577,.F.);
#606=ADVANCED_FACE('',(#544),#578,.T.);
#607=ADVANCED_FACE('',(#545,#546),#579,.F.);
#608=ADVANCED_FACE('',(#547),#580,.F.);
#609=ADVANCED_FACE('',(#548),#581,.T.);
#610=ADVANCED_FACE('',(#549),#582,.F.);
#611=ADVANCED_FACE('',(#550),#13,.F.);
#612=ADVANCED_FACE('',(#551),#583,.T.);
#613=ADVANCED_FACE('',(#552),#14,.F.);
#614=ADVANCED_FACE('',(#553),#584,.F.);
#615=ADVANCED_FACE('',(#554),#15,.F.);
#616=ADVANCED_FACE('',(#555),#585,.F.);
#617=ADVANCED_FACE('',(#556),#16,.F.);
#618=ADVANCED_FACE('',(#557),#586,.T.);
#619=ADVANCED_FACE('',(#558),#587,.F.);
#620=ADVANCED_FACE('',(#559),#588,.T.);
#621=ADVANCED_FACE('',(#560),#589,.F.);
#622=ADVANCED_FACE('',(#561,#562),#17,.F.);
#623=ADVANCED_FACE('',(#563),#590,.T.);
#624=CLOSED_SHELL('',(#591,#592,#593,#594,#595,#596,#597,#598,#599,#600,
#601,#602,#603,#604,#605,#606,#607,#608,#609,#610,#611,#612,#613,#614,#615,
#616,#617,#618,#619,#620,#621,#622,#623));
#625=STYLED_ITEM('',(#626),#633);
#626=PRESENTATION_STYLE_ASSIGNMENT((#627));
#627=SURFACE_STYLE_USAGE(.BOTH.,#628);
#628=SURFACE_SIDE_STYLE('',(#629));
#629=SURFACE_STYLE_FILL_AREA(#630);
#630=FILL_AREA_STYLE('',(#631));
#631=FILL_AREA_STYLE_COLOUR('',#632);
#632=COLOUR_RGB('',0.615686274509804,0.811764705882353,0.929411764705882);
#633=MANIFOLD_SOLID_BREP('Frame',#624);
#634=SHAPE_DEFINITION_REPRESENTATION(#1029,#635);
#635=SHAPE_REPRESENTATION('Frame',(#636),#1024);
#636=AXIS2_PLACEMENT_3D('',#848,#683,#684);
#637=AXIS2_PLACEMENT_3D('',#849,#685,#686);
#638=AXIS2_PLACEMENT_3D('',#853,#688,#689);
#639=AXIS2_PLACEMENT_3D('',#857,#691,#692);
#640=AXIS2_PLACEMENT_3D('',#886,#707,#708);
#641=AXIS2_PLACEMENT_3D('',#891,#710,#711);
#642=AXIS2_PLACEMENT_3D('',#894,#713,#714);
#643=AXIS2_PLACEMENT_3D('',#915,#725,#726);
#644=AXIS2_PLACEMENT_3D('',#924,#731,#732);
#645=AXIS2_PLACEMENT_3D('',#930,#736,#737);
#646=AXIS2_PLACEMENT_3D('',#940,#743,#744);
#647=AXIS2_PLACEMENT_3D('',#943,#747,#748);
#648=AXIS2_PLACEMENT_3D('',#946,#751,#752);
#649=AXIS2_PLACEMENT_3D('',#947,#753,#754);
#650=AXIS2_PLACEMENT_3D('',#949,#755,#756);
#651=AXIS2_PLACEMENT_3D('',#950,#757,#758);
#652=AXIS2_PLACEMENT_3D('',#953,#761,#762);
#653=AXIS2_PLACEMENT_3D('',#954,#763,#764);
#654=AXIS2_PLACEMENT_3D('',#955,#765,#766);
#655=AXIS2_PLACEMENT_3D('',#956,#767,#768);
#656=AXIS2_PLACEMENT_3D('',#958,#769,#770);
#657=AXIS2_PLACEMENT_3D('',#968,#776,#777);
#658=AXIS2_PLACEMENT_3D('',#969,#778,#779);
#659=AXIS2_PLACEMENT_3D('',#973,#782,#783);
#660=AXIS2_PLACEMENT_3D('',#976,#786,#787);
#661=AXIS2_PLACEMENT_3D('',#979,#790,#791);
#662=AXIS2_PLACEMENT_3D('',#980,#792,#793);
#663=AXIS2_PLACEMENT_3D('',#982,#795,#796);
#664=AXIS2_PLACEMENT_3D('',#984,#798,#799);
#665=AXIS2_PLACEMENT_3D('',#990,#803,#804);
#666=AXIS2_PLACEMENT_3D('',#991,#805,#806);
#667=AXIS2_PLACEMENT_3D('',#994,#808,#809);
#668=AXIS2_PLACEMENT_3D('',#998,#812,#813);
#669=AXIS2_PLACEMENT_3D('',#999,#814,#815);
#670=AXIS2_PLACEMENT_3D('',#1000,#816,#817);
#671=AXIS2_PLACEMENT_3D('',#1001,#818,#819);
#672=AXIS2_PLACEMENT_3D('',#1004,#821,#822);
#673=AXIS2_PLACEMENT_3D('',#1007,#824,#825);
#674=AXIS2_PLACEMENT_3D('',#1011,#828,#829);
#675=AXIS2_PLACEMENT_3D('',#1012,#830,#831);
#676=AXIS2_PLACEMENT_3D('',#1015,#833,#834);
#677=AXIS2_PLACEMENT_3D('',#1017,#836,#837);
#678=AXIS2_PLACEMENT_3D('',#1018,#838,#839);
#679=AXIS2_PLACEMENT_3D('',#1019,#840,#841);
#680=AXIS2_PLACEMENT_3D('',#1020,#842,#843);
#681=AXIS2_PLACEMENT_3D('',#1021,#844,#845);
#682=AXIS2_PLACEMENT_3D('',#1022,#846,#847);
#683=DIRECTION('',(0.,0.,1.));
#684=DIRECTION('',(1.,0.,0.));
#685=DIRECTION('',(0.,0.,1.));
#686=DIRECTION('',(1.,0.,0.));
#687=DIRECTION('',(-1.95156391047391E-16,1.,0.));
#688=DIRECTION('',(0.,0.,-1.));
#689=DIRECTION('',(-1.,0.,0.));
#690=DIRECTION('',(-1.7347234759768E-16,1.,0.));
#691=DIRECTION('',(0.,0.,-1.));
#692=DIRECTION('',(-1.,0.,0.));
#693=DIRECTION('',(1.26161707343768E-16,-1.,0.));
#694=DIRECTION('',(0.707106781186547,-0.707106781186548,0.));
#695=DIRECTION('',(-1.,0.,0.));
#696=DIRECTION('',(-0.707106781186547,-0.707106781186548,0.));
#697=DIRECTION('',(1.26161707343768E-16,-1.,0.));
#698=DIRECTION('',(0.707106781186548,-0.707106781186548,0.));
#699=DIRECTION('',(-1.,0.,0.));
#700=DIRECTION('',(-0.707106781186548,-0.707106781186548,0.));
#701=DIRECTION('',(1.26161707343768E-16,-1.,0.));
#702=DIRECTION('',(-1.,0.,0.));
#703=DIRECTION('',(1.26161707343768E-16,-1.,0.));
#704=DIRECTION('',(0.707106781186548,0.707106781186548,0.));
#705=DIRECTION('',(-1.,0.,0.));
#706=DIRECTION('',(-0.707106781186548,0.707106781186548,0.));
#707=DIRECTION('',(0.,0.,1.));
#708=DIRECTION('',(-1.,0.,0.));
#709=DIRECTION('',(-1.7347234759768E-16,1.,0.));
#710=DIRECTION('',(0.,0.,1.));
#711=DIRECTION('',(-1.,0.,0.));
#712=DIRECTION('',(-1.95156391047391E-16,1.,0.));
#713=DIRECTION('',(0.,0.,1.));
#714=DIRECTION('',(1.,0.,0.));
#715=DIRECTION('',(0.,-1.,0.));
#716=DIRECTION('',(1.,0.,0.));
#717=DIRECTION('',(0.,-1.,0.));
#718=DIRECTION('',(-1.,0.,0.));
#719=DIRECTION('',(1.26161707343768E-16,-1.,0.));
#720=DIRECTION('',(0.707106781186548,-0.707106781186548,0.));
#721=DIRECTION('',(1.,0.,0.));
#722=DIRECTION('',(0.707106781186548,0.707106781186548,0.));
#723=DIRECTION('',(1.26161707343768E-16,-1.,0.));
#724=DIRECTION('',(-1.,0.,0.));
#725=DIRECTION('',(-0.464238345442629,0.185695338177051,-0.866025403784439));
#726=DIRECTION('',(-0.371390676354103,-0.928476690885259,0.));
#727=DIRECTION('',(0.371390676354103,0.928476690885259,0.));
#728=DIRECTION('',(1.23357763747655E-16,-0.977775002771065,-0.209656967344383));
#729=DIRECTION('',(0.371390676354104,0.928476690885259,0.));
#730=DIRECTION('',(-1.08809889221479E-16,0.977775002771065,0.209656967344383));
#731=DIRECTION('',(0.464238345442629,-0.185695338177051,-0.866025403784439));
#732=DIRECTION('',(0.371390676354103,0.928476690885259,0.));
#733=DIRECTION('',(1.23357763747655E-16,-0.977775002771065,0.209656967344383));
#734=DIRECTION('',(-0.371390676354103,-0.928476690885259,0.));
#735=DIRECTION('',(-1.08809889221479E-16,0.977775002771065,-0.209656967344383));
#736=DIRECTION('',(0.,0.,1.));
#737=DIRECTION('',(1.,0.,0.));
#738=DIRECTION('',(-1.,0.,0.));
#739=DIRECTION('',(-0.707106781186547,0.707106781186548,0.));
#740=DIRECTION('',(1.26161707343768E-16,-1.,0.));
#741=DIRECTION('',(1.26161707343768E-16,-1.,0.));
#742=DIRECTION('',(0.707106781186547,0.707106781186548,0.));
#743=DIRECTION('',(0.707106781186548,-0.707106781186548,0.));
#744=DIRECTION('',(0.,0.,-1.));
#745=DIRECTION('',(0.,0.,-1.));
#746=DIRECTION('',(0.,0.,1.));
#747=DIRECTION('',(0.707106781186548,0.707106781186548,0.));
#748=DIRECTION('',(0.,0.,1.));
#749=DIRECTION('',(0.,0.,1.));
#750=DIRECTION('',(0.,0.,-1.));
#751=DIRECTION('',(0.,-1.,0.));
#752=DIRECTION('',(0.,0.,-1.));
#753=DIRECTION('',(0.,-1.,0.));
#754=DIRECTION('',(0.,0.,-1.));
#755=DIRECTION('',(0.,-1.,0.));
#756=DIRECTION('',(0.,0.,-1.));
#757=DIRECTION('',(0.,-1.,0.));
#758=DIRECTION('',(0.,0.,-1.));
#759=DIRECTION('',(0.,0.,-1.));
#760=DIRECTION('',(0.,0.,-1.));
#761=DIRECTION('',(1.,1.26161707343768E-16,0.));
#762=DIRECTION('',(-1.26161707343768E-16,1.,0.));
#763=DIRECTION('',(1.,1.26161707343768E-16,0.));
#764=DIRECTION('',(-1.26161707343768E-16,1.,0.));
#765=DIRECTION('',(0.,1.,0.));
#766=DIRECTION('',(0.,0.,1.));
#767=DIRECTION('',(0.,1.,0.));
#768=DIRECTION('',(0.,0.,1.));
#769=DIRECTION('',(0.,0.,1.));
#770=DIRECTION('',(1.,0.,0.));
#771=DIRECTION('',(1.26161707343768E-16,-1.,0.));
#772=DIRECTION('',(1.26161707343768E-16,-1.,0.));
#773=DIRECTION('',(-0.707106781186548,-0.707106781186548,0.));
#774=DIRECTION('',(-1.,0.,0.));
#775=DIRECTION('',(0.707106781186548,-0.707106781186548,0.));
#776=DIRECTION('',(0.,-1.,0.));
#777=DIRECTION('',(0.,0.,-1.));
#778=DIRECTION('',(0.,-1.,0.));
#779=DIRECTION('',(0.,0.,-1.));
#780=DIRECTION('',(0.,0.,-1.));
#781=DIRECTION('',(0.,0.,1.));
#782=DIRECTION('',(0.707106781186548,-0.707106781186548,0.));
#783=DIRECTION('',(0.,0.,-1.));
#784=DIRECTION('',(0.,0.,-1.));
#785=DIRECTION('',(0.,0.,1.));
#786=DIRECTION('',(0.707106781186548,0.707106781186548,0.));
#787=DIRECTION('',(0.,0.,1.));
#788=DIRECTION('',(0.,0.,-1.));
#789=DIRECTION('',(0.,0.,1.));
#790=DIRECTION('',(0.,-1.,0.));
#791=DIRECTION('',(0.,0.,-1.));
#792=DIRECTION('',(1.,1.26161707343768E-16,0.));
#793=DIRECTION('',(-1.26161707343768E-16,1.,0.));
#794=DIRECTION('',(0.,0.,1.));
#795=DIRECTION('',(1.,1.26161707343768E-16,0.));
#796=DIRECTION('',(-1.26161707343768E-16,1.,0.));
#797=DIRECTION('',(0.,0.,-1.));
#798=DIRECTION('',(1.,1.95156391047391E-16,0.));
#799=DIRECTION('',(-1.95156391047391E-16,1.,0.));
#800=DIRECTION('',(0.,0.,1.));
#801=DIRECTION('',(-1.95156391047391E-16,1.,0.));
#802=DIRECTION('',(0.,0.,1.));
#803=DIRECTION('',(0.,0.,1.));
#804=DIRECTION('',(1.,0.,0.));
#805=DIRECTION('',(0.,0.,-1.));
#806=DIRECTION('',(-1.,0.,0.));
#807=DIRECTION('',(0.,0.,1.));
#808=DIRECTION('',(1.,1.7347234759768E-16,0.));
#809=DIRECTION('',(-1.7347234759768E-16,1.,0.));
#810=DIRECTION('',(-1.7347234759768E-16,1.,0.));
#811=DIRECTION('',(0.,0.,1.));
#812=DIRECTION('',(0.,0.,1.));
#813=DIRECTION('',(1.,0.,0.));
#814=DIRECTION('',(0.,0.,-1.));
#815=DIRECTION('',(-1.,0.,0.));
#816=DIRECTION('',(0.,0.,-1.));
#817=DIRECTION('',(1.,0.,0.));
#818=DIRECTION('',(0.,0.,1.));
#819=DIRECTION('',(1.,0.,0.));
#820=DIRECTION('',(0.,0.,1.));
#821=DIRECTION('',(0.,0.,1.));
#822=DIRECTION('',(-1.,0.,0.));
#823=DIRECTION('',(0.,0.,1.));
#824=DIRECTION('',(1.,1.7347234759768E-16,0.));
#825=DIRECTION('',(-1.7347234759768E-16,1.,0.));
#826=DIRECTION('',(-1.7347234759768E-16,1.,0.));
#827=DIRECTION('',(0.,0.,1.));
#828=DIRECTION('',(0.,0.,1.));
#829=DIRECTION('',(1.,0.,0.));
#830=DIRECTION('',(0.,0.,1.));
#831=DIRECTION('',(-1.,0.,0.));
#832=DIRECTION('',(0.,0.,1.));
#833=DIRECTION('',(1.,1.95156391047391E-16,0.));
#834=DIRECTION('',(-1.95156391047391E-16,1.,0.));
#835=DIRECTION('',(-1.95156391047391E-16,1.,0.));
#836=DIRECTION('',(0.,0.,-1.));
#837=DIRECTION('',(1.,0.,0.));
#838=DIRECTION('',(-0.707106781186548,-0.707106781186547,0.));
#839=DIRECTION('',(0.,0.,1.));
#840=DIRECTION('',(-0.707106781186548,0.707106781186547,0.));
#841=DIRECTION('',(0.,0.,-1.));
#842=DIRECTION('',(0.,-1.,0.));
#843=DIRECTION('',(0.,0.,-1.));
#844=DIRECTION('',(0.,-1.,0.));
#845=DIRECTION('',(0.,0.,-1.));
#846=DIRECTION('',(0.,-1.,0.));
#847=DIRECTION('',(1.,0.,0.));
#848=CARTESIAN_POINT('',(0.,0.,0.));
#849=CARTESIAN_POINT('',(-8.67361737988404E-19,0.0125,0.0075));
#850=CARTESIAN_POINT('',(-0.00345,-0.0031642135623731,0.0075));
#851=CARTESIAN_POINT('',(-0.00345,-0.0131642135623731,0.0075));
#852=CARTESIAN_POINT('',(-0.00345,0.00683578643762691,0.0075));
#853=CARTESIAN_POINT('',(-0.004,-0.0131642135623731,0.0075));
#854=CARTESIAN_POINT('',(-0.00455,-0.0131642135623731,0.0075));
#855=CARTESIAN_POINT('',(-0.00455,-0.0031642135623731,0.0075));
#856=CARTESIAN_POINT('',(-0.00455,0.00683578643762691,0.0075));
#857=CARTESIAN_POINT('',(-0.004,0.00683578643762691,0.0075));
#858=CARTESIAN_POINT('',(-0.005,0.,0.0075));
#859=CARTESIAN_POINT('',(-0.005,0.0475,0.0075));
#860=CARTESIAN_POINT('',(-0.005,-0.054,0.0075));
#861=CARTESIAN_POINT('',(-0.03575,-0.02325,0.0075));
#862=CARTESIAN_POINT('',(-0.004,-0.055,0.0075));
#863=CARTESIAN_POINT('',(6.93889390390723E-18,-0.055,0.0075));
#864=CARTESIAN_POINT('',(0.004,-0.055,0.0075));
#865=CARTESIAN_POINT('',(0.03575,-0.02325,0.0075));
#866=CARTESIAN_POINT('',(0.005,-0.054,0.0075));
#867=CARTESIAN_POINT('',(0.005,0.,0.0075));
#868=CARTESIAN_POINT('',(0.005,0.0475,0.0075));
#869=CARTESIAN_POINT('',(0.0025,0.05,0.0075));
#870=CARTESIAN_POINT('',(0.0025,0.05,0.0075));
#871=CARTESIAN_POINT('',(-6.07153216591882E-18,0.05,0.0075));
#872=CARTESIAN_POINT('',(-0.0025,0.05,0.0075));
#873=CARTESIAN_POINT('',(-0.005,0.0475,0.0075));
#874=CARTESIAN_POINT('',(0.003,-2.52323414687536E-19,0.0075));
#875=CARTESIAN_POINT('',(0.003,0.0466715728752538,0.0075));
#876=CARTESIAN_POINT('',(0.003,-0.053,0.0075));
#877=CARTESIAN_POINT('',(6.93889390390723E-18,-0.053,0.0075));
#878=CARTESIAN_POINT('',(-0.003,-0.053,0.0075));
#879=CARTESIAN_POINT('',(-0.003,2.52323414687536E-19,0.0075));
#880=CARTESIAN_POINT('',(-0.003,0.0466715728752538,0.0075));
#881=CARTESIAN_POINT('',(-0.0185857864376269,0.0310857864376269,0.0075));
#882=CARTESIAN_POINT('',(-0.00167157287525382,0.048,0.0075));
#883=CARTESIAN_POINT('',(-6.07153216591882E-18,0.048,0.0075));
#884=CARTESIAN_POINT('',(0.0016715728752538,0.048,0.0075));
#885=CARTESIAN_POINT('',(0.0185857864376269,0.0310857864376269,0.0075));
#886=CARTESIAN_POINT('',(0.004,0.00683578643762691,0.0075));
#887=CARTESIAN_POINT('',(0.00455,0.00683578643762691,0.0075));
#888=CARTESIAN_POINT('',(0.00345,0.00683578643762691,0.0075));
#889=CARTESIAN_POINT('',(0.00455,-0.00316421356237309,0.0075));
#890=CARTESIAN_POINT('',(0.00455,-0.0131642135623731,0.0075));
#891=CARTESIAN_POINT('',(0.004,-0.0131642135623731,0.0075));
#892=CARTESIAN_POINT('',(0.00345,-0.0131642135623731,0.0075));
#893=CARTESIAN_POINT('',(0.00345,-0.00316421356237309,0.0075));
#894=CARTESIAN_POINT('',(-8.67361737988404E-19,0.0125,0.002));
#895=CARTESIAN_POINT('',(-0.000968245836551847,-0.052,0.002));
#896=CARTESIAN_POINT('',(-0.000968245836551847,-0.052,0.002));
#897=CARTESIAN_POINT('',(-0.000968245836551847,-0.053,0.002));
#898=CARTESIAN_POINT('',(-8.67361737988404E-19,-0.052,0.002));
#899=CARTESIAN_POINT('',(0.000968245836551861,-0.052,0.002));
#900=CARTESIAN_POINT('',(0.000968245836551861,-0.052,0.002));
#901=CARTESIAN_POINT('',(0.000968245836551861,-0.053,0.002));
#902=CARTESIAN_POINT('',(6.93889390390723E-18,-0.053,0.002));
#903=CARTESIAN_POINT('',(0.003,-0.053,0.002));
#904=CARTESIAN_POINT('',(0.003,-2.52323414687536E-19,0.002));
#905=CARTESIAN_POINT('',(0.003,0.0466715728752538,0.002));
#906=CARTESIAN_POINT('',(0.0010857864376269,0.0485857864376269,0.002));
#907=CARTESIAN_POINT('',(0.0016715728752538,0.048,0.002));
#908=CARTESIAN_POINT('',(-8.67361737988404E-19,0.048,0.002));
#909=CARTESIAN_POINT('',(-0.00167157287525382,0.048,0.002));
#910=CARTESIAN_POINT('',(-0.0185857864376269,0.0310857864376269,0.002));
#911=CARTESIAN_POINT('',(-0.003,0.0466715728752538,0.002));
#912=CARTESIAN_POINT('',(-0.003,2.52323414687536E-19,0.002));
#913=CARTESIAN_POINT('',(-0.003,-0.053,0.002));
#914=CARTESIAN_POINT('',(6.93889390390723E-18,-0.053,0.002));
#915=CARTESIAN_POINT('',(-0.0166443255141661,0.0191577302056665,0.));
#916=CARTESIAN_POINT('',(0.00732119172721315,0.0790715233091147,0.));
#917=CARTESIAN_POINT('',(-0.005,0.0482685439910819,0.));
#918=CARTESIAN_POINT('',(0.005,0.0732685439910819,0.));
#919=CARTESIAN_POINT('',(-0.005,0.0204373264160144,-0.00596763944440554));
#920=CARTESIAN_POINT('',(-0.005,0.0540981558992623,0.00125));
#921=CARTESIAN_POINT('',(0.000310980724392278,0.0673756077102431,0.00125));
#922=CARTESIAN_POINT('',(0.005,0.0790981558992624,0.00125));
#923=CARTESIAN_POINT('',(0.005,0.00373308869483264,-0.0149099666477523));
#924=CARTESIAN_POINT('',(-7.80625564189563E-18,0.0675,0.00105662432702594));
#925=CARTESIAN_POINT('',(-0.005,0.0669505494505495,-0.00150584244580065));
#926=CARTESIAN_POINT('',(-0.005,0.0482685439910819,0.0025));
#927=CARTESIAN_POINT('',(-0.0166443255141661,0.0191577302056665,0.0025));
#928=CARTESIAN_POINT('',(0.005,0.0732685439910819,0.0025));
#929=CARTESIAN_POINT('',(0.005,0.00322059534026732,0.0175198567576424));
#930=CARTESIAN_POINT('',(-8.67361737988404E-19,0.0125,0.));
#931=CARTESIAN_POINT('',(6.93889390390723E-18,-0.055,0.));
#932=CARTESIAN_POINT('',(0.004,-0.055,0.));
#933=CARTESIAN_POINT('',(-0.004,-0.055,0.));
#934=CARTESIAN_POINT('',(-0.004,-0.055,0.));
#935=CARTESIAN_POINT('',(-0.005,-0.054,0.));
#936=CARTESIAN_POINT('',(-0.005,0.,0.));
#937=CARTESIAN_POINT('',(0.005,0.,0.));
#938=CARTESIAN_POINT('',(0.005,-0.054,0.));
#939=CARTESIAN_POINT('',(0.005,-0.054,0.));
#940=CARTESIAN_POINT('',(-0.00358578643762691,0.0460857864376269,0.0025));
#941=CARTESIAN_POINT('',(-0.00167157287525382,0.048,0.0025));
#942=CARTESIAN_POINT('',(-0.003,0.0466715728752538,0.0025));
#943=CARTESIAN_POINT('',(0.0010857864376269,0.0485857864376269,0.0095));
#944=CARTESIAN_POINT('',(0.003,0.0466715728752538,0.0025));
#945=CARTESIAN_POINT('',(0.0016715728752538,0.048,0.0095));
#946=CARTESIAN_POINT('',(-6.07153216591882E-18,0.048,0.0095));
#947=CARTESIAN_POINT('',(0.,0.048,0.005));
#948=CARTESIAN_POINT('',(0.,0.048,0.00425));
#949=CARTESIAN_POINT('',(6.93889390390723E-18,-0.053,0.0025));
#950=CARTESIAN_POINT('',(6.93889390390723E-18,-0.053,0.00375));
#951=CARTESIAN_POINT('',(-0.003,-0.053,0.0025));
#952=CARTESIAN_POINT('',(0.003,-0.053,0.0025));
#953=CARTESIAN_POINT('',(-0.003,2.52323414687536E-19,0.0025));
#954=CARTESIAN_POINT('',(0.003,-2.52323414687536E-19,0.0025));
#955=CARTESIAN_POINT('',(0.,0.045,0.005));
#956=CARTESIAN_POINT('',(0.,0.05,0.005));
#957=CARTESIAN_POINT('',(0.,0.05,0.00575));
#958=CARTESIAN_POINT('',(-8.67361737988404E-19,0.0125,0.0025));
#959=CARTESIAN_POINT('',(0.005,0.,0.0025));
#960=CARTESIAN_POINT('',(0.005,0.0475,0.0025));
#961=CARTESIAN_POINT('',(-0.005,0.,0.0025));
#962=CARTESIAN_POINT('',(-0.005,0.0475,0.0025));
#963=CARTESIAN_POINT('',(-0.005,0.0475,0.0025));
#964=CARTESIAN_POINT('',(-0.0025,0.05,0.0025));
#965=CARTESIAN_POINT('',(-6.07153216591882E-18,0.05,0.0025));
#966=CARTESIAN_POINT('',(0.0025,0.05,0.0025));
#967=CARTESIAN_POINT('',(0.0025,0.05,0.0025));
#968=CARTESIAN_POINT('',(6.93889390390723E-18,-0.055,0.0025));
#969=CARTESIAN_POINT('',(6.93889390390723E-18,-0.055,0.00375));
#970=CARTESIAN_POINT('',(6.93889390390723E-18,-0.055,0.00175));
#971=CARTESIAN_POINT('',(-0.004,-0.055,0.));
#972=CARTESIAN_POINT('',(0.004,-0.055,0.0025));
#973=CARTESIAN_POINT('',(-0.005,0.0475,0.0025));
#974=CARTESIAN_POINT('',(-0.005,0.0475,0.0025));
#975=CARTESIAN_POINT('',(-0.0025,0.05,0.0095));
#976=CARTESIAN_POINT('',(0.0025,0.05,0.0095));
#977=CARTESIAN_POINT('',(0.0025,0.05,0.0025));
#978=CARTESIAN_POINT('',(0.005,0.0475,0.0095));
#979=CARTESIAN_POINT('',(-6.07153216591882E-18,0.05,0.0095));
#980=CARTESIAN_POINT('',(-0.005,0.,0.0025));
#981=CARTESIAN_POINT('',(-0.005,-0.054,0.0075));
#982=CARTESIAN_POINT('',(0.005,0.,0.0025));
#983=CARTESIAN_POINT('',(0.005,-0.054,0.0025));
#984=CARTESIAN_POINT('',(-0.00345,-0.0031642135623731,0.0055));
#985=CARTESIAN_POINT('',(-0.00345,0.00683578643762691,0.0055));
#986=CARTESIAN_POINT('',(-0.00345,0.00683578643762691,0.0055));
#987=CARTESIAN_POINT('',(-0.00345,-0.0031642135623731,0.0055));
#988=CARTESIAN_POINT('',(-0.00345,-0.0131642135623731,0.0055));
#989=CARTESIAN_POINT('',(-0.00345,-0.0131642135623731,0.0055));
#990=CARTESIAN_POINT('',(-0.004,-0.0131642135623731,0.0055));
#991=CARTESIAN_POINT('',(-0.004,-0.0131642135623731,0.0055));
#992=CARTESIAN_POINT('',(-0.00455,-0.0131642135623731,0.0055));
#993=CARTESIAN_POINT('',(-0.00455,-0.0131642135623731,0.0055));
#994=CARTESIAN_POINT('',(-0.00455,-0.0031642135623731,0.0055));
#995=CARTESIAN_POINT('',(-0.00455,-0.0031642135623731,0.0055));
#996=CARTESIAN_POINT('',(-0.00455,0.00683578643762691,0.0055));
#997=CARTESIAN_POINT('',(-0.00455,0.00683578643762691,0.0055));
#998=CARTESIAN_POINT('',(-0.004,0.00683578643762691,0.0055));
#999=CARTESIAN_POINT('',(-0.004,0.00683578643762691,0.0055));
#1000=CARTESIAN_POINT('',(0.,-0.0025,0.0055));
#1001=CARTESIAN_POINT('',(0.004,0.00683578643762691,0.0055));
#1002=CARTESIAN_POINT('',(0.00345,0.00683578643762691,0.0055));
#1003=CARTESIAN_POINT('',(0.00345,0.00683578643762691,0.0055));
#1004=CARTESIAN_POINT('',(0.004,0.00683578643762691,0.0055));
#1005=CARTESIAN_POINT('',(0.00455,0.00683578643762691,0.0055));
#1006=CARTESIAN_POINT('',(0.00455,0.00683578643762691,0.0055));
#1007=CARTESIAN_POINT('',(0.00455,-0.00316421356237309,0.0055));
#1008=CARTESIAN_POINT('',(0.00455,-0.00316421356237309,0.0055));
#1009=CARTESIAN_POINT('',(0.00455,-0.0131642135623731,0.0055));
#1010=CARTESIAN_POINT('',(0.00455,-0.0131642135623731,0.0055));
#1011=CARTESIAN_POINT('',(0.004,-0.0131642135623731,0.0055));
#1012=CARTESIAN_POINT('',(0.004,-0.0131642135623731,0.0055));
#1013=CARTESIAN_POINT('',(0.00345,-0.0131642135623731,0.0055));
#1014=CARTESIAN_POINT('',(0.00345,-0.0131642135623731,0.0055));
#1015=CARTESIAN_POINT('',(0.00345,-0.00316421356237309,0.0055));
#1016=CARTESIAN_POINT('',(0.00345,-0.00316421356237309,0.0055));
#1017=CARTESIAN_POINT('',(0.,-0.0025,0.0055));
#1018=CARTESIAN_POINT('',(-0.004,-0.055,0.0025));
#1019=CARTESIAN_POINT('',(0.005,-0.054,0.0025));
#1020=CARTESIAN_POINT('',(6.93889390390723E-18,-0.052,0.00375));
#1021=CARTESIAN_POINT('',(6.93889390390723E-18,-0.052,0.00375));
#1022=CARTESIAN_POINT('',(6.93889390390723E-18,-0.052,0.00375));
#1023=MECHANICAL_DESIGN_GEOMETRIC_PRESENTATION_REPRESENTATION('',(#625),
#1024);
#1024=(
GEOMETRIC_REPRESENTATION_CONTEXT(3)
GLOBAL_UNCERTAINTY_ASSIGNED_CONTEXT((#1025))
GLOBAL_UNIT_ASSIGNED_CONTEXT((#1028,#1027,#1026))
REPRESENTATION_CONTEXT('Frame','TOP_LEVEL_ASSEMBLY_PART')
);
#1025=UNCERTAINTY_MEASURE_WITH_UNIT(LENGTH_MEASURE(1.E-8),#1028,
'DISTANCE_ACCURACY_VALUE','Maximum Tolerance applied to model');
#1026=(
NAMED_UNIT(*)
SI_UNIT($,.STERADIAN.)
SOLID_ANGLE_UNIT()
);
#1027=(
NAMED_UNIT(*)
PLANE_ANGLE_UNIT()
SI_UNIT($,.RADIAN.)
);
#1028=(
LENGTH_UNIT()
NAMED_UNIT(*)
SI_UNIT($,.METRE.)
);
#1029=PRODUCT_DEFINITION_SHAPE('','',#1030);
#1030=PRODUCT_DEFINITION('','',#1032,#1031);
#1031=PRODUCT_DEFINITION_CONTEXT('',#1038,'design');
#1032=PRODUCT_DEFINITION_FORMATION_WITH_SPECIFIED_SOURCE('','',#1034,
 .NOT_KNOWN.);
#1033=PRODUCT_RELATED_PRODUCT_CATEGORY('','',(#1034));
#1034=PRODUCT('Frame','Frame','Frame',(#1036));
#1035=PRODUCT_CATEGORY('','');
#1036=PRODUCT_CONTEXT('',#1038,'mechanical');
#1037=APPLICATION_PROTOCOL_DEFINITION('international standard',
'ap242_managed_model_based_3d_engineering',2020,#1038);
#1038=APPLICATION_CONTEXT('managed model based 3d engineering');
ENDSEC;
END-ISO-10303-21;
