ISO-10303-21;
HEADER;
/* Generated by software containing ST-Developer
 * from STEP Tools, Inc. (www.steptools.com) 
 */
/* OPTION: using custom renumber hook */

FILE_DESCRIPTION(
/* description */ ('STEP AP242 Edition 2',
'CAx-IF Rec.Pracs.---Representation and Presentation of Product Manufa
cturing Information (PMI)---4.0---2014-10-13',
'CAx-IF Rec.Pracs.---3D Tessellated Geometry---0.4---2014-09-14','2;1',
'CAx-IF Rec.Pracs.---User Defined Attributes---1.5---2016-08-15'),
/* implementation_level */ '2;1');

FILE_NAME(
/* name */ 'Box of Shocks - Lid',
/* time_stamp */ '2026-06-10T17:51:09Z',
/* author */ (''),
/* organization */ (''),
/* preprocessor_version */ 'ST-DEVELOPER v20',
/* originating_system */ 'ONSHAPE BY PTC INC, 1.216',
/* authorisation */ '  ');

FILE_SCHEMA (('AP242_MANAGED_MODEL_BASED_3D_ENGINEERING_MIM_LF { 1 0 10303 442 3 1 4 }'));
ENDSEC;

DATA;
#10=SHAPE_REPRESENTATION_RELATIONSHIP('','',#1015,#11);
#11=ADVANCED_BREP_SHAPE_REPRESENTATION('',(#1013),#1719);
#12=TOROIDAL_SURFACE('',#1109,0.006,0.003);
#13=TOROIDAL_SURFACE('',#1113,0.006,0.003);
#14=TOROIDAL_SURFACE('',#1118,0.006,0.003);
#15=TOROIDAL_SURFACE('',#1122,0.006,0.003);
#16=CYLINDRICAL_SURFACE('',#1037,0.005);
#17=CYLINDRICAL_SURFACE('',#1040,0.005);
#18=CYLINDRICAL_SURFACE('',#1043,0.005);
#19=CYLINDRICAL_SURFACE('',#1046,0.005);
#20=CYLINDRICAL_SURFACE('',#1049,0.005);
#21=CYLINDRICAL_SURFACE('',#1052,0.005);
#22=CYLINDRICAL_SURFACE('',#1055,0.005);
#23=CYLINDRICAL_SURFACE('',#1058,0.005);
#24=CYLINDRICAL_SURFACE('',#1060,0.00225);
#25=CYLINDRICAL_SURFACE('',#1063,0.00225);
#26=CYLINDRICAL_SURFACE('',#1065,0.00225);
#27=CYLINDRICAL_SURFACE('',#1067,0.00225);
#28=CYLINDRICAL_SURFACE('',#1071,0.002075);
#29=CYLINDRICAL_SURFACE('',#1075,0.003);
#30=CYLINDRICAL_SURFACE('',#1078,0.003);
#31=CYLINDRICAL_SURFACE('',#1099,0.003);
#32=CYLINDRICAL_SURFACE('',#1100,0.003);
#33=CYLINDRICAL_SURFACE('',#1101,0.003);
#34=CYLINDRICAL_SURFACE('',#1104,0.003);
#35=CYLINDRICAL_SURFACE('',#1107,0.003);
#36=CYLINDRICAL_SURFACE('',#1111,0.003);
#37=CYLINDRICAL_SURFACE('',#1115,0.003);
#38=CYLINDRICAL_SURFACE('',#1116,0.003);
#39=CYLINDRICAL_SURFACE('',#1120,0.003);
#40=CYLINDRICAL_SURFACE('',#1124,0.003);
#41=CIRCLE('',#1018,0.003);
#42=CIRCLE('',#1019,0.003);
#43=CIRCLE('',#1020,0.003);
#44=CIRCLE('',#1021,0.003);
#45=CIRCLE('',#1022,0.002075);
#46=CIRCLE('',#1023,0.00225);
#47=CIRCLE('',#1024,0.00225);
#48=CIRCLE('',#1025,0.005);
#49=CIRCLE('',#1026,0.005);
#50=CIRCLE('',#1027,0.005);
#51=CIRCLE('',#1028,0.005);
#52=CIRCLE('',#1029,0.005);
#53=CIRCLE('',#1030,0.005);
#54=CIRCLE('',#1031,0.005);
#55=CIRCLE('',#1032,0.005);
#56=CIRCLE('',#1033,0.00225);
#57=CIRCLE('',#1034,0.00225);
#58=CIRCLE('',#1035,0.003);
#59=CIRCLE('',#1036,0.003);
#60=CIRCLE('',#1038,0.005);
#61=CIRCLE('',#1041,0.005);
#62=CIRCLE('',#1044,0.005);
#63=CIRCLE('',#1047,0.005);
#64=CIRCLE('',#1050,0.005);
#65=CIRCLE('',#1053,0.005);
#66=CIRCLE('',#1056,0.005);
#67=CIRCLE('',#1059,0.005);
#68=CIRCLE('',#1061,0.00225);
#69=CIRCLE('',#1064,0.00225);
#70=CIRCLE('',#1066,0.00225);
#71=CIRCLE('',#1068,0.00225);
#72=CIRCLE('',#1070,0.002075);
#73=CIRCLE('',#1076,0.003);
#74=CIRCLE('',#1079,0.003);
#75=CIRCLE('',#1084,0.006);
#76=CIRCLE('',#1085,0.003);
#77=CIRCLE('',#1086,0.003);
#78=CIRCLE('',#1087,0.006);
#79=CIRCLE('',#1090,0.006);
#80=CIRCLE('',#1091,0.006);
#81=CIRCLE('',#1092,0.003);
#82=CIRCLE('',#1093,0.003);
#83=CIRCLE('',#1102,0.003);
#84=CIRCLE('',#1103,0.003);
#85=CIRCLE('',#1105,0.003);
#86=CIRCLE('',#1106,0.003);
#87=CIRCLE('',#1108,0.003);
#88=CIRCLE('',#1110,0.003);
#89=CIRCLE('',#1112,0.003);
#90=CIRCLE('',#1114,0.003);
#91=CIRCLE('',#1117,0.003);
#92=CIRCLE('',#1119,0.003);
#93=CIRCLE('',#1121,0.003);
#94=CIRCLE('',#1123,0.003);
#95=ORIENTED_EDGE('',*,*,#375,.F.);
#96=ORIENTED_EDGE('',*,*,#376,.T.);
#97=ORIENTED_EDGE('',*,*,#377,.T.);
#98=ORIENTED_EDGE('',*,*,#378,.T.);
#99=ORIENTED_EDGE('',*,*,#379,.F.);
#100=ORIENTED_EDGE('',*,*,#380,.T.);
#101=ORIENTED_EDGE('',*,*,#381,.F.);
#102=ORIENTED_EDGE('',*,*,#382,.T.);
#103=ORIENTED_EDGE('',*,*,#383,.T.);
#104=ORIENTED_EDGE('',*,*,#384,.T.);
#105=ORIENTED_EDGE('',*,*,#385,.T.);
#106=ORIENTED_EDGE('',*,*,#386,.F.);
#107=ORIENTED_EDGE('',*,*,#387,.F.);
#108=ORIENTED_EDGE('',*,*,#388,.F.);
#109=ORIENTED_EDGE('',*,*,#389,.T.);
#110=ORIENTED_EDGE('',*,*,#390,.T.);
#111=ORIENTED_EDGE('',*,*,#391,.T.);
#112=ORIENTED_EDGE('',*,*,#392,.T.);
#113=ORIENTED_EDGE('',*,*,#393,.T.);
#114=ORIENTED_EDGE('',*,*,#394,.T.);
#115=ORIENTED_EDGE('',*,*,#395,.T.);
#116=ORIENTED_EDGE('',*,*,#396,.T.);
#117=ORIENTED_EDGE('',*,*,#397,.T.);
#118=ORIENTED_EDGE('',*,*,#398,.T.);
#119=ORIENTED_EDGE('',*,*,#399,.F.);
#120=ORIENTED_EDGE('',*,*,#400,.T.);
#121=ORIENTED_EDGE('',*,*,#401,.T.);
#122=ORIENTED_EDGE('',*,*,#402,.T.);
#123=ORIENTED_EDGE('',*,*,#403,.F.);
#124=ORIENTED_EDGE('',*,*,#404,.T.);
#125=ORIENTED_EDGE('',*,*,#405,.T.);
#126=ORIENTED_EDGE('',*,*,#406,.F.);
#127=ORIENTED_EDGE('',*,*,#407,.T.);
#128=ORIENTED_EDGE('',*,*,#408,.F.);
#129=ORIENTED_EDGE('',*,*,#409,.T.);
#130=ORIENTED_EDGE('',*,*,#410,.F.);
#131=ORIENTED_EDGE('',*,*,#411,.T.);
#132=ORIENTED_EDGE('',*,*,#412,.F.);
#133=ORIENTED_EDGE('',*,*,#413,.F.);
#134=ORIENTED_EDGE('',*,*,#414,.T.);
#135=ORIENTED_EDGE('',*,*,#415,.F.);
#136=ORIENTED_EDGE('',*,*,#390,.F.);
#137=ORIENTED_EDGE('',*,*,#416,.T.);
#138=ORIENTED_EDGE('',*,*,#417,.T.);
#139=ORIENTED_EDGE('',*,*,#418,.F.);
#140=ORIENTED_EDGE('',*,*,#391,.F.);
#141=ORIENTED_EDGE('',*,*,#415,.T.);
#142=ORIENTED_EDGE('',*,*,#419,.T.);
#143=ORIENTED_EDGE('',*,*,#420,.F.);
#144=ORIENTED_EDGE('',*,*,#392,.F.);
#145=ORIENTED_EDGE('',*,*,#418,.T.);
#146=ORIENTED_EDGE('',*,*,#421,.T.);
#147=ORIENTED_EDGE('',*,*,#422,.F.);
#148=ORIENTED_EDGE('',*,*,#393,.F.);
#149=ORIENTED_EDGE('',*,*,#420,.T.);
#150=ORIENTED_EDGE('',*,*,#423,.T.);
#151=ORIENTED_EDGE('',*,*,#424,.F.);
#152=ORIENTED_EDGE('',*,*,#394,.F.);
#153=ORIENTED_EDGE('',*,*,#422,.T.);
#154=ORIENTED_EDGE('',*,*,#425,.T.);
#155=ORIENTED_EDGE('',*,*,#426,.F.);
#156=ORIENTED_EDGE('',*,*,#395,.F.);
#157=ORIENTED_EDGE('',*,*,#424,.T.);
#158=ORIENTED_EDGE('',*,*,#427,.T.);
#159=ORIENTED_EDGE('',*,*,#428,.F.);
#160=ORIENTED_EDGE('',*,*,#396,.F.);
#161=ORIENTED_EDGE('',*,*,#426,.T.);
#162=ORIENTED_EDGE('',*,*,#429,.T.);
#163=ORIENTED_EDGE('',*,*,#430,.F.);
#164=ORIENTED_EDGE('',*,*,#397,.F.);
#165=ORIENTED_EDGE('',*,*,#428,.T.);
#166=ORIENTED_EDGE('',*,*,#431,.T.);
#167=ORIENTED_EDGE('',*,*,#432,.F.);
#168=ORIENTED_EDGE('',*,*,#398,.F.);
#169=ORIENTED_EDGE('',*,*,#430,.T.);
#170=ORIENTED_EDGE('',*,*,#433,.F.);
#171=ORIENTED_EDGE('',*,*,#434,.F.);
#172=ORIENTED_EDGE('',*,*,#399,.T.);
#173=ORIENTED_EDGE('',*,*,#432,.T.);
#174=ORIENTED_EDGE('',*,*,#435,.T.);
#175=ORIENTED_EDGE('',*,*,#436,.F.);
#176=ORIENTED_EDGE('',*,*,#400,.F.);
#177=ORIENTED_EDGE('',*,*,#434,.T.);
#178=ORIENTED_EDGE('',*,*,#437,.T.);
#179=ORIENTED_EDGE('',*,*,#438,.F.);
#180=ORIENTED_EDGE('',*,*,#401,.F.);
#181=ORIENTED_EDGE('',*,*,#436,.T.);
#182=ORIENTED_EDGE('',*,*,#439,.T.);
#183=ORIENTED_EDGE('',*,*,#440,.F.);
#184=ORIENTED_EDGE('',*,*,#402,.F.);
#185=ORIENTED_EDGE('',*,*,#438,.T.);
#186=ORIENTED_EDGE('',*,*,#441,.F.);
#187=ORIENTED_EDGE('',*,*,#442,.F.);
#188=ORIENTED_EDGE('',*,*,#403,.T.);
#189=ORIENTED_EDGE('',*,*,#440,.T.);
#190=ORIENTED_EDGE('',*,*,#443,.T.);
#191=ORIENTED_EDGE('',*,*,#444,.F.);
#192=ORIENTED_EDGE('',*,*,#404,.F.);
#193=ORIENTED_EDGE('',*,*,#442,.T.);
#194=ORIENTED_EDGE('',*,*,#406,.T.);
#195=ORIENTED_EDGE('',*,*,#445,.F.);
#196=ORIENTED_EDGE('',*,*,#446,.T.);
#197=ORIENTED_EDGE('',*,*,#416,.F.);
#198=ORIENTED_EDGE('',*,*,#405,.F.);
#199=ORIENTED_EDGE('',*,*,#444,.T.);
#200=ORIENTED_EDGE('',*,*,#389,.F.);
#201=ORIENTED_EDGE('',*,*,#447,.T.);
#202=ORIENTED_EDGE('',*,*,#388,.T.);
#203=ORIENTED_EDGE('',*,*,#448,.F.);
#204=ORIENTED_EDGE('',*,*,#407,.F.);
#205=ORIENTED_EDGE('',*,*,#449,.T.);
#206=ORIENTED_EDGE('',*,*,#450,.T.);
#207=ORIENTED_EDGE('',*,*,#448,.T.);
#208=ORIENTED_EDGE('',*,*,#447,.F.);
#209=ORIENTED_EDGE('',*,*,#414,.F.);
#210=ORIENTED_EDGE('',*,*,#446,.F.);
#211=ORIENTED_EDGE('',*,*,#443,.F.);
#212=ORIENTED_EDGE('',*,*,#441,.T.);
#213=ORIENTED_EDGE('',*,*,#439,.F.);
#214=ORIENTED_EDGE('',*,*,#437,.F.);
#215=ORIENTED_EDGE('',*,*,#435,.F.);
#216=ORIENTED_EDGE('',*,*,#433,.T.);
#217=ORIENTED_EDGE('',*,*,#431,.F.);
#218=ORIENTED_EDGE('',*,*,#429,.F.);
#219=ORIENTED_EDGE('',*,*,#427,.F.);
#220=ORIENTED_EDGE('',*,*,#425,.F.);
#221=ORIENTED_EDGE('',*,*,#423,.F.);
#222=ORIENTED_EDGE('',*,*,#421,.F.);
#223=ORIENTED_EDGE('',*,*,#419,.F.);
#224=ORIENTED_EDGE('',*,*,#417,.F.);
#225=ORIENTED_EDGE('',*,*,#445,.T.);
#226=ORIENTED_EDGE('',*,*,#449,.F.);
#227=ORIENTED_EDGE('',*,*,#450,.F.);
#228=ORIENTED_EDGE('',*,*,#387,.T.);
#229=ORIENTED_EDGE('',*,*,#409,.F.);
#230=ORIENTED_EDGE('',*,*,#451,.F.);
#231=ORIENTED_EDGE('',*,*,#452,.T.);
#232=ORIENTED_EDGE('',*,*,#453,.T.);
#233=ORIENTED_EDGE('',*,*,#408,.T.);
#234=ORIENTED_EDGE('',*,*,#454,.F.);
#235=ORIENTED_EDGE('',*,*,#455,.F.);
#236=ORIENTED_EDGE('',*,*,#451,.T.);
#237=ORIENTED_EDGE('',*,*,#413,.T.);
#238=ORIENTED_EDGE('',*,*,#456,.F.);
#239=ORIENTED_EDGE('',*,*,#457,.F.);
#240=ORIENTED_EDGE('',*,*,#454,.T.);
#241=ORIENTED_EDGE('',*,*,#412,.T.);
#242=ORIENTED_EDGE('',*,*,#458,.F.);
#243=ORIENTED_EDGE('',*,*,#459,.F.);
#244=ORIENTED_EDGE('',*,*,#456,.T.);
#245=ORIENTED_EDGE('',*,*,#411,.F.);
#246=ORIENTED_EDGE('',*,*,#460,.F.);
#247=ORIENTED_EDGE('',*,*,#461,.T.);
#248=ORIENTED_EDGE('',*,*,#458,.T.);
#249=ORIENTED_EDGE('',*,*,#410,.T.);
#250=ORIENTED_EDGE('',*,*,#453,.F.);
#251=ORIENTED_EDGE('',*,*,#462,.F.);
#252=ORIENTED_EDGE('',*,*,#460,.T.);
#253=ORIENTED_EDGE('',*,*,#452,.F.);
#254=ORIENTED_EDGE('',*,*,#455,.T.);
#255=ORIENTED_EDGE('',*,*,#457,.T.);
#256=ORIENTED_EDGE('',*,*,#459,.T.);
#257=ORIENTED_EDGE('',*,*,#461,.F.);
#258=ORIENTED_EDGE('',*,*,#462,.T.);
#259=ORIENTED_EDGE('',*,*,#463,.F.);
#260=ORIENTED_EDGE('',*,*,#464,.T.);
#261=ORIENTED_EDGE('',*,*,#465,.T.);
#262=ORIENTED_EDGE('',*,*,#386,.T.);
#263=ORIENTED_EDGE('',*,*,#466,.T.);
#264=ORIENTED_EDGE('',*,*,#467,.T.);
#265=ORIENTED_EDGE('',*,*,#383,.F.);
#266=ORIENTED_EDGE('',*,*,#468,.T.);
#267=ORIENTED_EDGE('',*,*,#469,.T.);
#268=ORIENTED_EDGE('',*,*,#470,.T.);
#269=ORIENTED_EDGE('',*,*,#381,.T.);
#270=ORIENTED_EDGE('',*,*,#465,.F.);
#271=ORIENTED_EDGE('',*,*,#471,.T.);
#272=ORIENTED_EDGE('',*,*,#472,.T.);
#273=ORIENTED_EDGE('',*,*,#473,.F.);
#274=ORIENTED_EDGE('',*,*,#474,.T.);
#275=ORIENTED_EDGE('',*,*,#475,.T.);
#276=ORIENTED_EDGE('',*,*,#476,.T.);
#277=ORIENTED_EDGE('',*,*,#375,.T.);
#278=ORIENTED_EDGE('',*,*,#477,.T.);
#279=ORIENTED_EDGE('',*,*,#478,.T.);
#280=ORIENTED_EDGE('',*,*,#479,.T.);
#281=ORIENTED_EDGE('',*,*,#379,.T.);
#282=ORIENTED_EDGE('',*,*,#480,.T.);
#283=ORIENTED_EDGE('',*,*,#481,.T.);
#284=ORIENTED_EDGE('',*,*,#482,.T.);
#285=ORIENTED_EDGE('',*,*,#385,.F.);
#286=ORIENTED_EDGE('',*,*,#483,.T.);
#287=ORIENTED_EDGE('',*,*,#484,.T.);
#288=ORIENTED_EDGE('',*,*,#485,.T.);
#289=ORIENTED_EDGE('',*,*,#486,.T.);
#290=ORIENTED_EDGE('',*,*,#487,.T.);
#291=ORIENTED_EDGE('',*,*,#377,.F.);
#292=ORIENTED_EDGE('',*,*,#488,.F.);
#293=ORIENTED_EDGE('',*,*,#489,.T.);
#294=ORIENTED_EDGE('',*,*,#490,.T.);
#295=ORIENTED_EDGE('',*,*,#491,.T.);
#296=ORIENTED_EDGE('',*,*,#492,.T.);
#297=ORIENTED_EDGE('',*,*,#493,.T.);
#298=ORIENTED_EDGE('',*,*,#463,.T.);
#299=ORIENTED_EDGE('',*,*,#476,.F.);
#300=ORIENTED_EDGE('',*,*,#494,.T.);
#301=ORIENTED_EDGE('',*,*,#488,.T.);
#302=ORIENTED_EDGE('',*,*,#376,.F.);
#303=ORIENTED_EDGE('',*,*,#473,.T.);
#304=ORIENTED_EDGE('',*,*,#495,.T.);
#305=ORIENTED_EDGE('',*,*,#491,.F.);
#306=ORIENTED_EDGE('',*,*,#496,.T.);
#307=ORIENTED_EDGE('',*,*,#497,.T.);
#308=ORIENTED_EDGE('',*,*,#498,.T.);
#309=ORIENTED_EDGE('',*,*,#499,.T.);
#310=ORIENTED_EDGE('',*,*,#500,.T.);
#311=ORIENTED_EDGE('',*,*,#490,.F.);
#312=ORIENTED_EDGE('',*,*,#501,.T.);
#313=ORIENTED_EDGE('',*,*,#474,.F.);
#314=ORIENTED_EDGE('',*,*,#496,.F.);
#315=ORIENTED_EDGE('',*,*,#472,.F.);
#316=ORIENTED_EDGE('',*,*,#502,.T.);
#317=ORIENTED_EDGE('',*,*,#492,.F.);
#318=ORIENTED_EDGE('',*,*,#495,.F.);
#319=ORIENTED_EDGE('',*,*,#475,.F.);
#320=ORIENTED_EDGE('',*,*,#501,.F.);
#321=ORIENTED_EDGE('',*,*,#489,.F.);
#322=ORIENTED_EDGE('',*,*,#494,.F.);
#323=ORIENTED_EDGE('',*,*,#493,.F.);
#324=ORIENTED_EDGE('',*,*,#502,.F.);
#325=ORIENTED_EDGE('',*,*,#471,.F.);
#326=ORIENTED_EDGE('',*,*,#464,.F.);
#327=ORIENTED_EDGE('',*,*,#481,.F.);
#328=ORIENTED_EDGE('',*,*,#503,.T.);
#329=ORIENTED_EDGE('',*,*,#497,.F.);
#330=ORIENTED_EDGE('',*,*,#504,.T.);
#331=ORIENTED_EDGE('',*,*,#499,.F.);
#332=ORIENTED_EDGE('',*,*,#505,.T.);
#333=ORIENTED_EDGE('',*,*,#466,.F.);
#334=ORIENTED_EDGE('',*,*,#506,.T.);
#335=ORIENTED_EDGE('',*,*,#380,.F.);
#336=ORIENTED_EDGE('',*,*,#482,.F.);
#337=ORIENTED_EDGE('',*,*,#507,.F.);
#338=ORIENTED_EDGE('',*,*,#477,.F.);
#339=ORIENTED_EDGE('',*,*,#507,.T.);
#340=ORIENTED_EDGE('',*,*,#504,.F.);
#341=ORIENTED_EDGE('',*,*,#508,.F.);
#342=ORIENTED_EDGE('',*,*,#478,.F.);
#343=ORIENTED_EDGE('',*,*,#508,.T.);
#344=ORIENTED_EDGE('',*,*,#500,.F.);
#345=ORIENTED_EDGE('',*,*,#509,.F.);
#346=ORIENTED_EDGE('',*,*,#479,.F.);
#347=ORIENTED_EDGE('',*,*,#509,.T.);
#348=ORIENTED_EDGE('',*,*,#506,.F.);
#349=ORIENTED_EDGE('',*,*,#510,.F.);
#350=ORIENTED_EDGE('',*,*,#469,.F.);
#351=ORIENTED_EDGE('',*,*,#510,.T.);
#352=ORIENTED_EDGE('',*,*,#468,.F.);
#353=ORIENTED_EDGE('',*,*,#382,.F.);
#354=ORIENTED_EDGE('',*,*,#470,.F.);
#355=ORIENTED_EDGE('',*,*,#378,.F.);
#356=ORIENTED_EDGE('',*,*,#487,.F.);
#357=ORIENTED_EDGE('',*,*,#511,.F.);
#358=ORIENTED_EDGE('',*,*,#480,.F.);
#359=ORIENTED_EDGE('',*,*,#511,.T.);
#360=ORIENTED_EDGE('',*,*,#486,.F.);
#361=ORIENTED_EDGE('',*,*,#512,.F.);
#362=ORIENTED_EDGE('',*,*,#503,.F.);
#363=ORIENTED_EDGE('',*,*,#512,.T.);
#364=ORIENTED_EDGE('',*,*,#485,.F.);
#365=ORIENTED_EDGE('',*,*,#513,.F.);
#366=ORIENTED_EDGE('',*,*,#498,.F.);
#367=ORIENTED_EDGE('',*,*,#513,.T.);
#368=ORIENTED_EDGE('',*,*,#484,.F.);
#369=ORIENTED_EDGE('',*,*,#514,.F.);
#370=ORIENTED_EDGE('',*,*,#505,.F.);
#371=ORIENTED_EDGE('',*,*,#514,.T.);
#372=ORIENTED_EDGE('',*,*,#483,.F.);
#373=ORIENTED_EDGE('',*,*,#384,.F.);
#374=ORIENTED_EDGE('',*,*,#467,.F.);
#375=EDGE_CURVE('',#515,#516,#609,.T.);
#376=EDGE_CURVE('',#515,#517,#610,.T.);
#377=EDGE_CURVE('',#517,#518,#611,.T.);
#378=EDGE_CURVE('',#518,#519,#41,.F.);
#379=EDGE_CURVE('',#520,#519,#612,.T.);
#380=EDGE_CURVE('',#520,#516,#42,.F.);
#381=EDGE_CURVE('',#521,#522,#613,.T.);
#382=EDGE_CURVE('',#521,#523,#43,.F.);
#383=EDGE_CURVE('',#523,#524,#614,.T.);
#384=EDGE_CURVE('',#524,#525,#44,.F.);
#385=EDGE_CURVE('',#525,#526,#615,.T.);
#386=EDGE_CURVE('',#522,#526,#616,.T.);
#387=EDGE_CURVE('',#527,#527,#45,.T.);
#388=EDGE_CURVE('',#528,#528,#46,.T.);
#389=EDGE_CURVE('',#529,#529,#47,.T.);
#390=EDGE_CURVE('',#530,#531,#48,.T.);
#391=EDGE_CURVE('',#531,#532,#617,.T.);
#392=EDGE_CURVE('',#532,#533,#49,.T.);
#393=EDGE_CURVE('',#533,#534,#618,.F.);
#394=EDGE_CURVE('',#534,#535,#50,.T.);
#395=EDGE_CURVE('',#535,#536,#619,.T.);
#396=EDGE_CURVE('',#536,#537,#51,.T.);
#397=EDGE_CURVE('',#537,#538,#620,.T.);
#398=EDGE_CURVE('',#538,#539,#52,.T.);
#399=EDGE_CURVE('',#540,#539,#621,.T.);
#400=EDGE_CURVE('',#540,#541,#53,.T.);
#401=EDGE_CURVE('',#541,#542,#622,.F.);
#402=EDGE_CURVE('',#542,#543,#54,.T.);
#403=EDGE_CURVE('',#544,#543,#623,.T.);
#404=EDGE_CURVE('',#544,#545,#55,.T.);
#405=EDGE_CURVE('',#545,#530,#624,.T.);
#406=EDGE_CURVE('',#546,#546,#56,.T.);
#407=EDGE_CURVE('',#547,#547,#57,.T.);
#408=EDGE_CURVE('',#548,#549,#625,.T.);
#409=EDGE_CURVE('',#548,#550,#626,.T.);
#410=EDGE_CURVE('',#551,#550,#58,.T.);
#411=EDGE_CURVE('',#551,#552,#627,.T.);
#412=EDGE_CURVE('',#553,#552,#59,.T.);
#413=EDGE_CURVE('',#549,#553,#628,.T.);
#414=EDGE_CURVE('',#554,#555,#60,.T.);
#415=EDGE_CURVE('',#531,#555,#629,.T.);
#416=EDGE_CURVE('',#530,#554,#630,.T.);
#417=EDGE_CURVE('',#555,#556,#631,.T.);
#418=EDGE_CURVE('',#532,#556,#632,.T.);
#419=EDGE_CURVE('',#556,#557,#61,.T.);
#420=EDGE_CURVE('',#533,#557,#633,.T.);
#421=EDGE_CURVE('',#557,#558,#634,.F.);
#422=EDGE_CURVE('',#534,#558,#635,.T.);
#423=EDGE_CURVE('',#558,#559,#62,.T.);
#424=EDGE_CURVE('',#535,#559,#636,.T.);
#425=EDGE_CURVE('',#559,#560,#637,.T.);
#426=EDGE_CURVE('',#536,#560,#638,.T.);
#427=EDGE_CURVE('',#560,#561,#63,.T.);
#428=EDGE_CURVE('',#537,#561,#639,.T.);
#429=EDGE_CURVE('',#561,#562,#640,.T.);
#430=EDGE_CURVE('',#538,#562,#641,.T.);
#431=EDGE_CURVE('',#562,#563,#64,.T.);
#432=EDGE_CURVE('',#539,#563,#642,.T.);
#433=EDGE_CURVE('',#564,#563,#643,.T.);
#434=EDGE_CURVE('',#540,#564,#644,.T.);
#435=EDGE_CURVE('',#564,#565,#65,.T.);
#436=EDGE_CURVE('',#541,#565,#645,.T.);
#437=EDGE_CURVE('',#565,#566,#646,.F.);
#438=EDGE_CURVE('',#542,#566,#647,.T.);
#439=EDGE_CURVE('',#566,#567,#66,.T.);
#440=EDGE_CURVE('',#543,#567,#648,.T.);
#441=EDGE_CURVE('',#568,#567,#649,.T.);
#442=EDGE_CURVE('',#544,#568,#650,.T.);
#443=EDGE_CURVE('',#568,#569,#67,.T.);
#444=EDGE_CURVE('',#545,#569,#651,.T.);
#445=EDGE_CURVE('',#570,#570,#68,.T.);
#446=EDGE_CURVE('',#569,#554,#652,.T.);
#447=EDGE_CURVE('',#571,#571,#69,.T.);
#448=EDGE_CURVE('',#572,#572,#70,.T.);
#449=EDGE_CURVE('',#573,#573,#71,.T.);
#450=EDGE_CURVE('',#574,#574,#72,.T.);
#451=EDGE_CURVE('',#575,#548,#653,.T.);
#452=EDGE_CURVE('',#575,#576,#654,.T.);
#453=EDGE_CURVE('',#576,#550,#655,.T.);
#454=EDGE_CURVE('',#577,#549,#656,.T.);
#455=EDGE_CURVE('',#575,#577,#657,.T.);
#456=EDGE_CURVE('',#578,#553,#658,.T.);
#457=EDGE_CURVE('',#577,#578,#659,.T.);
#458=EDGE_CURVE('',#579,#552,#660,.T.);
#459=EDGE_CURVE('',#578,#579,#73,.T.);
#460=EDGE_CURVE('',#580,#551,#661,.T.);
#461=EDGE_CURVE('',#580,#579,#662,.T.);
#462=EDGE_CURVE('',#580,#576,#74,.T.);
#463=EDGE_CURVE('',#581,#526,#663,.T.);
#464=EDGE_CURVE('',#581,#582,#664,.T.);
#465=EDGE_CURVE('',#582,#522,#665,.T.);
#466=EDGE_CURVE('',#583,#584,#666,.F.);
#467=EDGE_CURVE('',#584,#524,#667,.T.);
#468=EDGE_CURVE('',#523,#583,#668,.F.);
#469=EDGE_CURVE('',#585,#586,#75,.T.);
#470=EDGE_CURVE('',#586,#521,#669,.T.);
#471=EDGE_CURVE('',#582,#587,#76,.F.);
#472=EDGE_CURVE('',#587,#588,#670,.T.);
#473=EDGE_CURVE('',#589,#588,#671,.T.);
#474=EDGE_CURVE('',#589,#590,#672,.F.);
#475=EDGE_CURVE('',#590,#591,#77,.F.);
#476=EDGE_CURVE('',#591,#515,#673,.T.);
#477=EDGE_CURVE('',#516,#592,#674,.F.);
#478=EDGE_CURVE('',#592,#593,#78,.T.);
#479=EDGE_CURVE('',#593,#585,#675,.F.);
#480=EDGE_CURVE('',#519,#594,#676,.F.);
#481=EDGE_CURVE('',#594,#595,#677,.T.);
#482=EDGE_CURVE('',#595,#520,#678,.T.);
#483=EDGE_CURVE('',#525,#596,#679,.F.);
#484=EDGE_CURVE('',#596,#597,#79,.F.);
#485=EDGE_CURVE('',#597,#598,#680,.T.);
#486=EDGE_CURVE('',#598,#599,#80,.F.);
#487=EDGE_CURVE('',#599,#518,#681,.T.);
#488=EDGE_CURVE('',#600,#517,#682,.T.);
#489=EDGE_CURVE('',#600,#601,#81,.T.);
#490=EDGE_CURVE('',#601,#602,#683,.F.);
#491=EDGE_CURVE('',#602,#603,#684,.T.);
#492=EDGE_CURVE('',#603,#604,#685,.T.);
#493=EDGE_CURVE('',#604,#581,#82,.T.);
#494=EDGE_CURVE('',#591,#600,#686,.F.);
#495=EDGE_CURVE('',#588,#603,#687,.T.);
#496=EDGE_CURVE('',#602,#589,#688,.T.);
#497=EDGE_CURVE('',#605,#606,#689,.F.);
#498=EDGE_CURVE('',#606,#607,#690,.F.);
#499=EDGE_CURVE('',#607,#608,#691,.T.);
#500=EDGE_CURVE('',#608,#605,#692,.T.);
#501=EDGE_CURVE('',#601,#590,#693,.F.);
#502=EDGE_CURVE('',#587,#604,#694,.F.);
#503=EDGE_CURVE('',#594,#606,#83,.T.);
#504=EDGE_CURVE('',#605,#595,#84,.F.);
#505=EDGE_CURVE('',#607,#584,#85,.T.);
#506=EDGE_CURVE('',#583,#608,#86,.F.);
#507=EDGE_CURVE('',#592,#595,#87,.T.);
#508=EDGE_CURVE('',#593,#605,#88,.T.);
#509=EDGE_CURVE('',#585,#608,#89,.T.);
#510=EDGE_CURVE('',#586,#583,#90,.T.);
#511=EDGE_CURVE('',#594,#599,#91,.T.);
#512=EDGE_CURVE('',#606,#598,#92,.T.);
#513=EDGE_CURVE('',#607,#597,#93,.T.);
#514=EDGE_CURVE('',#584,#596,#94,.T.);
#515=VERTEX_POINT('',#1432);
#516=VERTEX_POINT('',#1433);
#517=VERTEX_POINT('',#1435);
#518=VERTEX_POINT('',#1437);
#519=VERTEX_POINT('',#1439);
#520=VERTEX_POINT('',#1441);
#521=VERTEX_POINT('',#1444);
#522=VERTEX_POINT('',#1445);
#523=VERTEX_POINT('',#1447);
#524=VERTEX_POINT('',#1449);
#525=VERTEX_POINT('',#1451);
#526=VERTEX_POINT('',#1453);
#527=VERTEX_POINT('',#1456);
#528=VERTEX_POINT('',#1458);
#529=VERTEX_POINT('',#1460);
#530=VERTEX_POINT('',#1462);
#531=VERTEX_POINT('',#1463);
#532=VERTEX_POINT('',#1465);
#533=VERTEX_POINT('',#1467);
#534=VERTEX_POINT('',#1469);
#535=VERTEX_POINT('',#1471);
#536=VERTEX_POINT('',#1473);
#537=VERTEX_POINT('',#1475);
#538=VERTEX_POINT('',#1477);
#539=VERTEX_POINT('',#1479);
#540=VERTEX_POINT('',#1481);
#541=VERTEX_POINT('',#1483);
#542=VERTEX_POINT('',#1485);
#543=VERTEX_POINT('',#1487);
#544=VERTEX_POINT('',#1489);
#545=VERTEX_POINT('',#1491);
#546=VERTEX_POINT('',#1494);
#547=VERTEX_POINT('',#1496);
#548=VERTEX_POINT('',#1498);
#549=VERTEX_POINT('',#1499);
#550=VERTEX_POINT('',#1501);
#551=VERTEX_POINT('',#1503);
#552=VERTEX_POINT('',#1505);
#553=VERTEX_POINT('',#1507);
#554=VERTEX_POINT('',#1511);
#555=VERTEX_POINT('',#1512);
#556=VERTEX_POINT('',#1517);
#557=VERTEX_POINT('',#1521);
#558=VERTEX_POINT('',#1525);
#559=VERTEX_POINT('',#1529);
#560=VERTEX_POINT('',#1533);
#561=VERTEX_POINT('',#1537);
#562=VERTEX_POINT('',#1541);
#563=VERTEX_POINT('',#1545);
#564=VERTEX_POINT('',#1549);
#565=VERTEX_POINT('',#1553);
#566=VERTEX_POINT('',#1557);
#567=VERTEX_POINT('',#1561);
#568=VERTEX_POINT('',#1565);
#569=VERTEX_POINT('',#1569);
#570=VERTEX_POINT('',#1573);
#571=VERTEX_POINT('',#1578);
#572=VERTEX_POINT('',#1581);
#573=VERTEX_POINT('',#1584);
#574=VERTEX_POINT('',#1587);
#575=VERTEX_POINT('',#1591);
#576=VERTEX_POINT('',#1593);
#577=VERTEX_POINT('',#1597);
#578=VERTEX_POINT('',#1601);
#579=VERTEX_POINT('',#1605);
#580=VERTEX_POINT('',#1609);
#581=VERTEX_POINT('',#1616);
#582=VERTEX_POINT('',#1618);
#583=VERTEX_POINT('',#1622);
#584=VERTEX_POINT('',#1623);
#585=VERTEX_POINT('',#1628);
#586=VERTEX_POINT('',#1629);
#587=VERTEX_POINT('',#1632);
#588=VERTEX_POINT('',#1634);
#589=VERTEX_POINT('',#1636);
#590=VERTEX_POINT('',#1638);
#591=VERTEX_POINT('',#1640);
#592=VERTEX_POINT('',#1643);
#593=VERTEX_POINT('',#1645);
#594=VERTEX_POINT('',#1649);
#595=VERTEX_POINT('',#1651);
#596=VERTEX_POINT('',#1655);
#597=VERTEX_POINT('',#1657);
#598=VERTEX_POINT('',#1659);
#599=VERTEX_POINT('',#1661);
#600=VERTEX_POINT('',#1664);
#601=VERTEX_POINT('',#1666);
#602=VERTEX_POINT('',#1668);
#603=VERTEX_POINT('',#1670);
#604=VERTEX_POINT('',#1672);
#605=VERTEX_POINT('',#1681);
#606=VERTEX_POINT('',#1682);
#607=VERTEX_POINT('',#1684);
#608=VERTEX_POINT('',#1686);
#609=LINE('',#1431,#695);
#610=LINE('',#1434,#696);
#611=LINE('',#1436,#697);
#612=LINE('',#1440,#698);
#613=LINE('',#1443,#699);
#614=LINE('',#1448,#700);
#615=LINE('',#1452,#701);
#616=LINE('',#1454,#702);
#617=LINE('',#1464,#703);
#618=LINE('',#1468,#704);
#619=LINE('',#1472,#705);
#620=LINE('',#1476,#706);
#621=LINE('',#1480,#707);
#622=LINE('',#1484,#708);
#623=LINE('',#1488,#709);
#624=LINE('',#1492,#710);
#625=LINE('',#1497,#711);
#626=LINE('',#1500,#712);
#627=LINE('',#1504,#713);
#628=LINE('',#1508,#714);
#629=LINE('',#1513,#715);
#630=LINE('',#1514,#716);
#631=LINE('',#1516,#717);
#632=LINE('',#1518,#718);
#633=LINE('',#1522,#719);
#634=LINE('',#1524,#720);
#635=LINE('',#1526,#721);
#636=LINE('',#1530,#722);
#637=LINE('',#1532,#723);
#638=LINE('',#1534,#724);
#639=LINE('',#1538,#725);
#640=LINE('',#1540,#726);
#641=LINE('',#1542,#727);
#642=LINE('',#1546,#728);
#643=LINE('',#1548,#729);
#644=LINE('',#1550,#730);
#645=LINE('',#1554,#731);
#646=LINE('',#1556,#732);
#647=LINE('',#1558,#733);
#648=LINE('',#1562,#734);
#649=LINE('',#1564,#735);
#650=LINE('',#1566,#736);
#651=LINE('',#1570,#737);
#652=LINE('',#1575,#738);
#653=LINE('',#1590,#739);
#654=LINE('',#1592,#740);
#655=LINE('',#1594,#741);
#656=LINE('',#1596,#742);
#657=LINE('',#1598,#743);
#658=LINE('',#1600,#744);
#659=LINE('',#1602,#745);
#660=LINE('',#1604,#746);
#661=LINE('',#1608,#747);
#662=LINE('',#1610,#748);
#663=LINE('',#1615,#749);
#664=LINE('',#1617,#750);
#665=LINE('',#1619,#751);
#666=LINE('',#1621,#752);
#667=LINE('',#1624,#753);
#668=LINE('',#1625,#754);
#669=LINE('',#1630,#755);
#670=LINE('',#1633,#756);
#671=LINE('',#1635,#757);
#672=LINE('',#1637,#758);
#673=LINE('',#1641,#759);
#674=LINE('',#1642,#760);
#675=LINE('',#1646,#761);
#676=LINE('',#1648,#762);
#677=LINE('',#1650,#763);
#678=LINE('',#1652,#764);
#679=LINE('',#1654,#765);
#680=LINE('',#1658,#766);
#681=LINE('',#1662,#767);
#682=LINE('',#1663,#768);
#683=LINE('',#1667,#769);
#684=LINE('',#1669,#770);
#685=LINE('',#1671,#771);
#686=LINE('',#1675,#772);
#687=LINE('',#1677,#773);
#688=LINE('',#1678,#774);
#689=LINE('',#1680,#775);
#690=LINE('',#1683,#776);
#691=LINE('',#1685,#777);
#692=LINE('',#1687,#778);
#693=LINE('',#1689,#779);
#694=LINE('',#1691,#780);
#695=VECTOR('',#1129,1.);
#696=VECTOR('',#1130,1.);
#697=VECTOR('',#1131,1.);
#698=VECTOR('',#1134,1.);
#699=VECTOR('',#1137,1.);
#700=VECTOR('',#1140,1.);
#701=VECTOR('',#1143,1.);
#702=VECTOR('',#1144,1.);
#703=VECTOR('',#1153,1.);
#704=VECTOR('',#1156,1.);
#705=VECTOR('',#1159,1.);
#706=VECTOR('',#1162,1.);
#707=VECTOR('',#1165,1.);
#708=VECTOR('',#1168,1.);
#709=VECTOR('',#1171,1.);
#710=VECTOR('',#1174,1.);
#711=VECTOR('',#1179,1.);
#712=VECTOR('',#1180,1.);
#713=VECTOR('',#1183,1.);
#714=VECTOR('',#1186,1.);
#715=VECTOR('',#1191,1.);
#716=VECTOR('',#1192,1.);
#717=VECTOR('',#1195,1.);
#718=VECTOR('',#1196,1.);
#719=VECTOR('',#1201,1.);
#720=VECTOR('',#1204,1.);
#721=VECTOR('',#1205,1.);
#722=VECTOR('',#1210,1.);
#723=VECTOR('',#1213,1.);
#724=VECTOR('',#1214,1.);
#725=VECTOR('',#1219,1.);
#726=VECTOR('',#1222,1.);
#727=VECTOR('',#1223,1.);
#728=VECTOR('',#1228,1.);
#729=VECTOR('',#1231,1.);
#730=VECTOR('',#1232,1.);
#731=VECTOR('',#1237,1.);
#732=VECTOR('',#1240,1.);
#733=VECTOR('',#1241,1.);
#734=VECTOR('',#1246,1.);
#735=VECTOR('',#1249,1.);
#736=VECTOR('',#1250,1.);
#737=VECTOR('',#1255,1.);
#738=VECTOR('',#1262,1.);
#739=VECTOR('',#1283,1.);
#740=VECTOR('',#1284,1.);
#741=VECTOR('',#1285,1.);
#742=VECTOR('',#1288,1.);
#743=VECTOR('',#1289,1.);
#744=VECTOR('',#1292,1.);
#745=VECTOR('',#1293,1.);
#746=VECTOR('',#1296,1.);
#747=VECTOR('',#1301,1.);
#748=VECTOR('',#1302,1.);
#749=VECTOR('',#1311,1.);
#750=VECTOR('',#1312,1.);
#751=VECTOR('',#1313,1.);
#752=VECTOR('',#1316,1.);
#753=VECTOR('',#1317,1.);
#754=VECTOR('',#1318,1.);
#755=VECTOR('',#1323,1.);
#756=VECTOR('',#1326,1.);
#757=VECTOR('',#1327,1.);
#758=VECTOR('',#1328,1.);
#759=VECTOR('',#1331,1.);
#760=VECTOR('',#1332,1.);
#761=VECTOR('',#1335,1.);
#762=VECTOR('',#1338,1.);
#763=VECTOR('',#1339,1.);
#764=VECTOR('',#1340,1.);
#765=VECTOR('',#1343,1.);
#766=VECTOR('',#1346,1.);
#767=VECTOR('',#1349,1.);
#768=VECTOR('',#1350,1.);
#769=VECTOR('',#1353,1.);
#770=VECTOR('',#1354,1.);
#771=VECTOR('',#1355,1.);
#772=VECTOR('',#1360,1.);
#773=VECTOR('',#1363,1.);
#774=VECTOR('',#1364,1.);
#775=VECTOR('',#1367,1.);
#776=VECTOR('',#1368,1.);
#777=VECTOR('',#1369,1.);
#778=VECTOR('',#1370,1.);
#779=VECTOR('',#1373,1.);
#780=VECTOR('',#1376,1.);
#781=EDGE_LOOP('',(#95,#96,#97,#98,#99,#100));
#782=EDGE_LOOP('',(#101,#102,#103,#104,#105,#106));
#783=EDGE_LOOP('',(#107));
#784=EDGE_LOOP('',(#108));
#785=EDGE_LOOP('',(#109));
#786=EDGE_LOOP('',(#110,#111,#112,#113,#114,#115,#116,#117,#118,#119,#120,
#121,#122,#123,#124,#125));
#787=EDGE_LOOP('',(#126));
#788=EDGE_LOOP('',(#127));
#789=EDGE_LOOP('',(#128,#129,#130,#131,#132,#133));
#790=EDGE_LOOP('',(#134,#135,#136,#137));
#791=EDGE_LOOP('',(#138,#139,#140,#141));
#792=EDGE_LOOP('',(#142,#143,#144,#145));
#793=EDGE_LOOP('',(#146,#147,#148,#149));
#794=EDGE_LOOP('',(#150,#151,#152,#153));
#795=EDGE_LOOP('',(#154,#155,#156,#157));
#796=EDGE_LOOP('',(#158,#159,#160,#161));
#797=EDGE_LOOP('',(#162,#163,#164,#165));
#798=EDGE_LOOP('',(#166,#167,#168,#169));
#799=EDGE_LOOP('',(#170,#171,#172,#173));
#800=EDGE_LOOP('',(#174,#175,#176,#177));
#801=EDGE_LOOP('',(#178,#179,#180,#181));
#802=EDGE_LOOP('',(#182,#183,#184,#185));
#803=EDGE_LOOP('',(#186,#187,#188,#189));
#804=EDGE_LOOP('',(#190,#191,#192,#193));
#805=EDGE_LOOP('',(#194));
#806=EDGE_LOOP('',(#195));
#807=EDGE_LOOP('',(#196,#197,#198,#199));
#808=EDGE_LOOP('',(#200));
#809=EDGE_LOOP('',(#201));
#810=EDGE_LOOP('',(#202));
#811=EDGE_LOOP('',(#203));
#812=EDGE_LOOP('',(#204));
#813=EDGE_LOOP('',(#205));
#814=EDGE_LOOP('',(#206));
#815=EDGE_LOOP('',(#207));
#816=EDGE_LOOP('',(#208));
#817=EDGE_LOOP('',(#209,#210,#211,#212,#213,#214,#215,#216,#217,#218,#219,
#220,#221,#222,#223,#224));
#818=EDGE_LOOP('',(#225));
#819=EDGE_LOOP('',(#226));
#820=EDGE_LOOP('',(#227));
#821=EDGE_LOOP('',(#228));
#822=EDGE_LOOP('',(#229,#230,#231,#232));
#823=EDGE_LOOP('',(#233,#234,#235,#236));
#824=EDGE_LOOP('',(#237,#238,#239,#240));
#825=EDGE_LOOP('',(#241,#242,#243,#244));
#826=EDGE_LOOP('',(#245,#246,#247,#248));
#827=EDGE_LOOP('',(#249,#250,#251,#252));
#828=EDGE_LOOP('',(#253,#254,#255,#256,#257,#258));
#829=EDGE_LOOP('',(#259,#260,#261,#262));
#830=EDGE_LOOP('',(#263,#264,#265,#266));
#831=EDGE_LOOP('',(#267,#268,#269,#270,#271,#272,#273,#274,#275,#276,#277,
#278,#279,#280));
#832=EDGE_LOOP('',(#281,#282,#283,#284));
#833=EDGE_LOOP('',(#285,#286,#287,#288,#289,#290,#291,#292,#293,#294,#295,
#296,#297,#298));
#834=EDGE_LOOP('',(#299,#300,#301,#302));
#835=EDGE_LOOP('',(#303,#304,#305,#306));
#836=EDGE_LOOP('',(#307,#308,#309,#310));
#837=EDGE_LOOP('',(#311,#312,#313,#314));
#838=EDGE_LOOP('',(#315,#316,#317,#318));
#839=EDGE_LOOP('',(#319,#320,#321,#322));
#840=EDGE_LOOP('',(#323,#324,#325,#326));
#841=EDGE_LOOP('',(#327,#328,#329,#330));
#842=EDGE_LOOP('',(#331,#332,#333,#334));
#843=EDGE_LOOP('',(#335,#336,#337,#338));
#844=EDGE_LOOP('',(#339,#340,#341,#342));
#845=EDGE_LOOP('',(#343,#344,#345,#346));
#846=EDGE_LOOP('',(#347,#348,#349,#350));
#847=EDGE_LOOP('',(#351,#352,#353,#354));
#848=EDGE_LOOP('',(#355,#356,#357,#358));
#849=EDGE_LOOP('',(#359,#360,#361,#362));
#850=EDGE_LOOP('',(#363,#364,#365,#366));
#851=EDGE_LOOP('',(#367,#368,#369,#370));
#852=EDGE_LOOP('',(#371,#372,#373,#374));
#853=FACE_BOUND('',#781,.T.);
#854=FACE_BOUND('',#782,.T.);
#855=FACE_BOUND('',#783,.T.);
#856=FACE_BOUND('',#784,.T.);
#857=FACE_BOUND('',#785,.T.);
#858=FACE_BOUND('',#786,.T.);
#859=FACE_BOUND('',#787,.T.);
#860=FACE_BOUND('',#788,.T.);
#861=FACE_BOUND('',#789,.T.);
#862=FACE_BOUND('',#790,.T.);
#863=FACE_BOUND('',#791,.T.);
#864=FACE_BOUND('',#792,.T.);
#865=FACE_BOUND('',#793,.T.);
#866=FACE_BOUND('',#794,.T.);
#867=FACE_BOUND('',#795,.T.);
#868=FACE_BOUND('',#796,.T.);
#869=FACE_BOUND('',#797,.T.);
#870=FACE_BOUND('',#798,.T.);
#871=FACE_BOUND('',#799,.T.);
#872=FACE_BOUND('',#800,.T.);
#873=FACE_BOUND('',#801,.T.);
#874=FACE_BOUND('',#802,.T.);
#875=FACE_BOUND('',#803,.T.);
#876=FACE_BOUND('',#804,.T.);
#877=FACE_BOUND('',#805,.T.);
#878=FACE_BOUND('',#806,.T.);
#879=FACE_BOUND('',#807,.T.);
#880=FACE_BOUND('',#808,.T.);
#881=FACE_BOUND('',#809,.T.);
#882=FACE_BOUND('',#810,.T.);
#883=FACE_BOUND('',#811,.T.);
#884=FACE_BOUND('',#812,.T.);
#885=FACE_BOUND('',#813,.T.);
#886=FACE_BOUND('',#814,.T.);
#887=FACE_BOUND('',#815,.T.);
#888=FACE_BOUND('',#816,.T.);
#889=FACE_BOUND('',#817,.T.);
#890=FACE_BOUND('',#818,.T.);
#891=FACE_BOUND('',#819,.T.);
#892=FACE_BOUND('',#820,.T.);
#893=FACE_BOUND('',#821,.T.);
#894=FACE_BOUND('',#822,.T.);
#895=FACE_BOUND('',#823,.T.);
#896=FACE_BOUND('',#824,.T.);
#897=FACE_BOUND('',#825,.T.);
#898=FACE_BOUND('',#826,.T.);
#899=FACE_BOUND('',#827,.T.);
#900=FACE_BOUND('',#828,.T.);
#901=FACE_BOUND('',#829,.T.);
#902=FACE_BOUND('',#830,.T.);
#903=FACE_BOUND('',#831,.T.);
#904=FACE_BOUND('',#832,.T.);
#905=FACE_BOUND('',#833,.T.);
#906=FACE_BOUND('',#834,.T.);
#907=FACE_BOUND('',#835,.T.);
#908=FACE_BOUND('',#836,.T.);
#909=FACE_BOUND('',#837,.T.);
#910=FACE_BOUND('',#838,.T.);
#911=FACE_BOUND('',#839,.T.);
#912=FACE_BOUND('',#840,.T.);
#913=FACE_BOUND('',#841,.T.);
#914=FACE_BOUND('',#842,.T.);
#915=FACE_BOUND('',#843,.T.);
#916=FACE_BOUND('',#844,.T.);
#917=FACE_BOUND('',#845,.T.);
#918=FACE_BOUND('',#846,.T.);
#919=FACE_BOUND('',#847,.T.);
#920=FACE_BOUND('',#848,.T.);
#921=FACE_BOUND('',#849,.T.);
#922=FACE_BOUND('',#850,.T.);
#923=FACE_BOUND('',#851,.T.);
#924=FACE_BOUND('',#852,.T.);
#925=PLANE('',#1017);
#926=PLANE('',#1039);
#927=PLANE('',#1042);
#928=PLANE('',#1045);
#929=PLANE('',#1048);
#930=PLANE('',#1051);
#931=PLANE('',#1054);
#932=PLANE('',#1057);
#933=PLANE('',#1062);
#934=PLANE('',#1069);
#935=PLANE('',#1072);
#936=PLANE('',#1073);
#937=PLANE('',#1074);
#938=PLANE('',#1077);
#939=PLANE('',#1080);
#940=PLANE('',#1081);
#941=PLANE('',#1082);
#942=PLANE('',#1083);
#943=PLANE('',#1088);
#944=PLANE('',#1089);
#945=PLANE('',#1094);
#946=PLANE('',#1095);
#947=PLANE('',#1096);
#948=PLANE('',#1097);
#949=PLANE('',#1098);
#950=ADVANCED_FACE('',(#853,#854,#855,#856,#857,#858,#859,#860,#861),#925,
 .T.);
#951=ADVANCED_FACE('',(#862),#16,.T.);
#952=ADVANCED_FACE('',(#863),#926,.F.);
#953=ADVANCED_FACE('',(#864),#17,.T.);
#954=ADVANCED_FACE('',(#865),#927,.F.);
#955=ADVANCED_FACE('',(#866),#18,.T.);
#956=ADVANCED_FACE('',(#867),#928,.F.);
#957=ADVANCED_FACE('',(#868),#19,.T.);
#958=ADVANCED_FACE('',(#869),#929,.F.);
#959=ADVANCED_FACE('',(#870),#20,.T.);
#960=ADVANCED_FACE('',(#871),#930,.T.);
#961=ADVANCED_FACE('',(#872),#21,.T.);
#962=ADVANCED_FACE('',(#873),#931,.F.);
#963=ADVANCED_FACE('',(#874),#22,.T.);
#964=ADVANCED_FACE('',(#875),#932,.T.);
#965=ADVANCED_FACE('',(#876),#23,.T.);
#966=ADVANCED_FACE('',(#877,#878),#24,.F.);
#967=ADVANCED_FACE('',(#879),#933,.F.);
#968=ADVANCED_FACE('',(#880,#881),#25,.F.);
#969=ADVANCED_FACE('',(#882,#883),#26,.F.);
#970=ADVANCED_FACE('',(#884,#885),#27,.F.);
#971=ADVANCED_FACE('',(#886,#887,#888,#889,#890,#891),#934,.F.);
#972=ADVANCED_FACE('',(#892,#893),#28,.F.);
#973=ADVANCED_FACE('',(#894),#935,.T.);
#974=ADVANCED_FACE('',(#895),#936,.F.);
#975=ADVANCED_FACE('',(#896),#937,.F.);
#976=ADVANCED_FACE('',(#897),#29,.F.);
#977=ADVANCED_FACE('',(#898),#938,.T.);
#978=ADVANCED_FACE('',(#899),#30,.F.);
#979=ADVANCED_FACE('',(#900),#939,.T.);
#980=ADVANCED_FACE('',(#901),#940,.F.);
#981=ADVANCED_FACE('',(#902),#941,.T.);
#982=ADVANCED_FACE('',(#903),#942,.F.);
#983=ADVANCED_FACE('',(#904),#943,.F.);
#984=ADVANCED_FACE('',(#905),#944,.T.);
#985=ADVANCED_FACE('',(#906),#945,.T.);
#986=ADVANCED_FACE('',(#907),#946,.T.);
#987=ADVANCED_FACE('',(#908),#947,.T.);
#988=ADVANCED_FACE('',(#909),#948,.F.);
#989=ADVANCED_FACE('',(#910),#949,.T.);
#990=ADVANCED_FACE('',(#911),#31,.T.);
#991=ADVANCED_FACE('',(#912),#32,.T.);
#992=ADVANCED_FACE('',(#913),#33,.F.);
#993=ADVANCED_FACE('',(#914),#34,.F.);
#994=ADVANCED_FACE('',(#915),#35,.T.);
#995=ADVANCED_FACE('',(#916),#12,.T.);
#996=ADVANCED_FACE('',(#917),#36,.T.);
#997=ADVANCED_FACE('',(#918),#13,.T.);
#998=ADVANCED_FACE('',(#919),#37,.T.);
#999=ADVANCED_FACE('',(#920),#38,.T.);
#1000=ADVANCED_FACE('',(#921),#14,.T.);
#1001=ADVANCED_FACE('',(#922),#39,.T.);
#1002=ADVANCED_FACE('',(#923),#15,.T.);
#1003=ADVANCED_FACE('',(#924),#40,.T.);
#1004=CLOSED_SHELL('',(#950,#951,#952,#953,#954,#955,#956,#957,#958,#959,
#960,#961,#962,#963,#964,#965,#966,#967,#968,#969,#970,#971,#972,#973,#974,
#975,#976,#977,#978,#979,#980,#981,#982,#983,#984,#985,#986,#987,#988,#989,
#990,#991,#992,#993,#994,#995,#996,#997,#998,#999,#1000,#1001,#1002,#1003));
#1005=STYLED_ITEM('',(#1006),#1013);
#1006=PRESENTATION_STYLE_ASSIGNMENT((#1007));
#1007=SURFACE_STYLE_USAGE(.BOTH.,#1008);
#1008=SURFACE_SIDE_STYLE('',(#1009));
#1009=SURFACE_STYLE_FILL_AREA(#1010);
#1010=FILL_AREA_STYLE('',(#1011));
#1011=FILL_AREA_STYLE_COLOUR('',#1012);
#1012=COLOUR_RGB('',0.647058823529412,0.647058823529412,0.647058823529412);
#1013=MANIFOLD_SOLID_BREP('Lid',#1004);
#1014=SHAPE_DEFINITION_REPRESENTATION(#1724,#1015);
#1015=SHAPE_REPRESENTATION('Lid',(#1016),#1719);
#1016=AXIS2_PLACEMENT_3D('',#1429,#1125,#1126);
#1017=AXIS2_PLACEMENT_3D('',#1430,#1127,#1128);
#1018=AXIS2_PLACEMENT_3D('',#1438,#1132,#1133);
#1019=AXIS2_PLACEMENT_3D('',#1442,#1135,#1136);
#1020=AXIS2_PLACEMENT_3D('',#1446,#1138,#1139);
#1021=AXIS2_PLACEMENT_3D('',#1450,#1141,#1142);
#1022=AXIS2_PLACEMENT_3D('',#1455,#1145,#1146);
#1023=AXIS2_PLACEMENT_3D('',#1457,#1147,#1148);
#1024=AXIS2_PLACEMENT_3D('',#1459,#1149,#1150);
#1025=AXIS2_PLACEMENT_3D('',#1461,#1151,#1152);
#1026=AXIS2_PLACEMENT_3D('',#1466,#1154,#1155);
#1027=AXIS2_PLACEMENT_3D('',#1470,#1157,#1158);
#1028=AXIS2_PLACEMENT_3D('',#1474,#1160,#1161);
#1029=AXIS2_PLACEMENT_3D('',#1478,#1163,#1164);
#1030=AXIS2_PLACEMENT_3D('',#1482,#1166,#1167);
#1031=AXIS2_PLACEMENT_3D('',#1486,#1169,#1170);
#1032=AXIS2_PLACEMENT_3D('',#1490,#1172,#1173);
#1033=AXIS2_PLACEMENT_3D('',#1493,#1175,#1176);
#1034=AXIS2_PLACEMENT_3D('',#1495,#1177,#1178);
#1035=AXIS2_PLACEMENT_3D('',#1502,#1181,#1182);
#1036=AXIS2_PLACEMENT_3D('',#1506,#1184,#1185);
#1037=AXIS2_PLACEMENT_3D('',#1509,#1187,#1188);
#1038=AXIS2_PLACEMENT_3D('',#1510,#1189,#1190);
#1039=AXIS2_PLACEMENT_3D('',#1515,#1193,#1194);
#1040=AXIS2_PLACEMENT_3D('',#1519,#1197,#1198);
#1041=AXIS2_PLACEMENT_3D('',#1520,#1199,#1200);
#1042=AXIS2_PLACEMENT_3D('',#1523,#1202,#1203);
#1043=AXIS2_PLACEMENT_3D('',#1527,#1206,#1207);
#1044=AXIS2_PLACEMENT_3D('',#1528,#1208,#1209);
#1045=AXIS2_PLACEMENT_3D('',#1531,#1211,#1212);
#1046=AXIS2_PLACEMENT_3D('',#1535,#1215,#1216);
#1047=AXIS2_PLACEMENT_3D('',#1536,#1217,#1218);
#1048=AXIS2_PLACEMENT_3D('',#1539,#1220,#1221);
#1049=AXIS2_PLACEMENT_3D('',#1543,#1224,#1225);
#1050=AXIS2_PLACEMENT_3D('',#1544,#1226,#1227);
#1051=AXIS2_PLACEMENT_3D('',#1547,#1229,#1230);
#1052=AXIS2_PLACEMENT_3D('',#1551,#1233,#1234);
#1053=AXIS2_PLACEMENT_3D('',#1552,#1235,#1236);
#1054=AXIS2_PLACEMENT_3D('',#1555,#1238,#1239);
#1055=AXIS2_PLACEMENT_3D('',#1559,#1242,#1243);
#1056=AXIS2_PLACEMENT_3D('',#1560,#1244,#1245);
#1057=AXIS2_PLACEMENT_3D('',#1563,#1247,#1248);
#1058=AXIS2_PLACEMENT_3D('',#1567,#1251,#1252);
#1059=AXIS2_PLACEMENT_3D('',#1568,#1253,#1254);
#1060=AXIS2_PLACEMENT_3D('',#1571,#1256,#1257);
#1061=AXIS2_PLACEMENT_3D('',#1572,#1258,#1259);
#1062=AXIS2_PLACEMENT_3D('',#1574,#1260,#1261);
#1063=AXIS2_PLACEMENT_3D('',#1576,#1263,#1264);
#1064=AXIS2_PLACEMENT_3D('',#1577,#1265,#1266);
#1065=AXIS2_PLACEMENT_3D('',#1579,#1267,#1268);
#1066=AXIS2_PLACEMENT_3D('',#1580,#1269,#1270);
#1067=AXIS2_PLACEMENT_3D('',#1582,#1271,#1272);
#1068=AXIS2_PLACEMENT_3D('',#1583,#1273,#1274);
#1069=AXIS2_PLACEMENT_3D('',#1585,#1275,#1276);
#1070=AXIS2_PLACEMENT_3D('',#1586,#1277,#1278);
#1071=AXIS2_PLACEMENT_3D('',#1588,#1279,#1280);
#1072=AXIS2_PLACEMENT_3D('',#1589,#1281,#1282);
#1073=AXIS2_PLACEMENT_3D('',#1595,#1286,#1287);
#1074=AXIS2_PLACEMENT_3D('',#1599,#1290,#1291);
#1075=AXIS2_PLACEMENT_3D('',#1603,#1294,#1295);
#1076=AXIS2_PLACEMENT_3D('',#1606,#1297,#1298);
#1077=AXIS2_PLACEMENT_3D('',#1607,#1299,#1300);
#1078=AXIS2_PLACEMENT_3D('',#1611,#1303,#1304);
#1079=AXIS2_PLACEMENT_3D('',#1612,#1305,#1306);
#1080=AXIS2_PLACEMENT_3D('',#1613,#1307,#1308);
#1081=AXIS2_PLACEMENT_3D('',#1614,#1309,#1310);
#1082=AXIS2_PLACEMENT_3D('',#1620,#1314,#1315);
#1083=AXIS2_PLACEMENT_3D('',#1626,#1319,#1320);
#1084=AXIS2_PLACEMENT_3D('',#1627,#1321,#1322);
#1085=AXIS2_PLACEMENT_3D('',#1631,#1324,#1325);
#1086=AXIS2_PLACEMENT_3D('',#1639,#1329,#1330);
#1087=AXIS2_PLACEMENT_3D('',#1644,#1333,#1334);
#1088=AXIS2_PLACEMENT_3D('',#1647,#1336,#1337);
#1089=AXIS2_PLACEMENT_3D('',#1653,#1341,#1342);
#1090=AXIS2_PLACEMENT_3D('',#1656,#1344,#1345);
#1091=AXIS2_PLACEMENT_3D('',#1660,#1347,#1348);
#1092=AXIS2_PLACEMENT_3D('',#1665,#1351,#1352);
#1093=AXIS2_PLACEMENT_3D('',#1673,#1356,#1357);
#1094=AXIS2_PLACEMENT_3D('',#1674,#1358,#1359);
#1095=AXIS2_PLACEMENT_3D('',#1676,#1361,#1362);
#1096=AXIS2_PLACEMENT_3D('',#1679,#1365,#1366);
#1097=AXIS2_PLACEMENT_3D('',#1688,#1371,#1372);
#1098=AXIS2_PLACEMENT_3D('',#1690,#1374,#1375);
#1099=AXIS2_PLACEMENT_3D('',#1692,#1377,#1378);
#1100=AXIS2_PLACEMENT_3D('',#1693,#1379,#1380);
#1101=AXIS2_PLACEMENT_3D('',#1694,#1381,#1382);
#1102=AXIS2_PLACEMENT_3D('',#1695,#1383,#1384);
#1103=AXIS2_PLACEMENT_3D('',#1696,#1385,#1386);
#1104=AXIS2_PLACEMENT_3D('',#1697,#1387,#1388);
#1105=AXIS2_PLACEMENT_3D('',#1698,#1389,#1390);
#1106=AXIS2_PLACEMENT_3D('',#1699,#1391,#1392);
#1107=AXIS2_PLACEMENT_3D('',#1700,#1393,#1394);
#1108=AXIS2_PLACEMENT_3D('',#1701,#1395,#1396);
#1109=AXIS2_PLACEMENT_3D('',#1702,#1397,#1398);
#1110=AXIS2_PLACEMENT_3D('',#1703,#1399,#1400);
#1111=AXIS2_PLACEMENT_3D('',#1704,#1401,#1402);
#1112=AXIS2_PLACEMENT_3D('',#1705,#1403,#1404);
#1113=AXIS2_PLACEMENT_3D('',#1706,#1405,#1406);
#1114=AXIS2_PLACEMENT_3D('',#1707,#1407,#1408);
#1115=AXIS2_PLACEMENT_3D('',#1708,#1409,#1410);
#1116=AXIS2_PLACEMENT_3D('',#1709,#1411,#1412);
#1117=AXIS2_PLACEMENT_3D('',#1710,#1413,#1414);
#1118=AXIS2_PLACEMENT_3D('',#1711,#1415,#1416);
#1119=AXIS2_PLACEMENT_3D('',#1712,#1417,#1418);
#1120=AXIS2_PLACEMENT_3D('',#1713,#1419,#1420);
#1121=AXIS2_PLACEMENT_3D('',#1714,#1421,#1422);
#1122=AXIS2_PLACEMENT_3D('',#1715,#1423,#1424);
#1123=AXIS2_PLACEMENT_3D('',#1716,#1425,#1426);
#1124=AXIS2_PLACEMENT_3D('',#1717,#1427,#1428);
#1125=DIRECTION('',(0.,0.,1.));
#1126=DIRECTION('',(1.,0.,0.));
#1127=DIRECTION('',(0.,0.,1.));
#1128=DIRECTION('',(1.,0.,0.));
#1129=DIRECTION('',(1.,0.,0.));
#1130=DIRECTION('',(0.,1.,0.));
#1131=DIRECTION('',(1.,0.,0.));
#1132=DIRECTION('',(0.,0.,1.));
#1133=DIRECTION('',(1.,0.,0.));
#1134=DIRECTION('',(-1.73472347597681E-16,1.,0.));
#1135=DIRECTION('',(0.,0.,1.));
#1136=DIRECTION('',(1.,0.,0.));
#1137=DIRECTION('',(1.,0.,0.));
#1138=DIRECTION('',(0.,0.,1.));
#1139=DIRECTION('',(1.,0.,0.));
#1140=DIRECTION('',(-1.7347234759768E-16,1.,0.));
#1141=DIRECTION('',(0.,0.,1.));
#1142=DIRECTION('',(1.,0.,0.));
#1143=DIRECTION('',(1.,0.,0.));
#1144=DIRECTION('',(0.,1.,0.));
#1145=DIRECTION('',(0.,0.,1.));
#1146=DIRECTION('',(1.,0.,0.));
#1147=DIRECTION('',(0.,0.,1.));
#1148=DIRECTION('',(1.,0.,0.));
#1149=DIRECTION('',(0.,0.,-1.));
#1150=DIRECTION('',(1.,0.,0.));
#1151=DIRECTION('',(0.,0.,1.));
#1152=DIRECTION('',(1.,0.,0.));
#1153=DIRECTION('',(-1.38777878078144E-16,-1.,0.));
#1154=DIRECTION('',(0.,0.,1.));
#1155=DIRECTION('',(1.,0.,0.));
#1156=DIRECTION('',(-0.707106781186547,0.707106781186548,0.));
#1157=DIRECTION('',(0.,0.,1.));
#1158=DIRECTION('',(1.,0.,0.));
#1159=DIRECTION('',(1.,0.,0.));
#1160=DIRECTION('',(0.,0.,1.));
#1161=DIRECTION('',(1.,0.,0.));
#1162=DIRECTION('',(0.70710678118655,0.707106781186545,0.));
#1163=DIRECTION('',(0.,0.,1.));
#1164=DIRECTION('',(1.,0.,0.));
#1165=DIRECTION('',(-1.38777878078144E-16,-1.,0.));
#1166=DIRECTION('',(0.,0.,1.));
#1167=DIRECTION('',(1.,0.,0.));
#1168=DIRECTION('',(0.707106781186549,-0.707106781186547,0.));
#1169=DIRECTION('',(0.,0.,1.));
#1170=DIRECTION('',(1.,0.,0.));
#1171=DIRECTION('',(1.,0.,0.));
#1172=DIRECTION('',(0.,0.,1.));
#1173=DIRECTION('',(1.,0.,0.));
#1174=DIRECTION('',(-0.707106781186548,-0.707106781186547,0.));
#1175=DIRECTION('',(0.,0.,1.));
#1176=DIRECTION('',(1.,0.,0.));
#1177=DIRECTION('',(0.,0.,-1.));
#1178=DIRECTION('',(1.,0.,0.));
#1179=DIRECTION('',(0.,-1.,0.));
#1180=DIRECTION('',(1.,0.,0.));
#1181=DIRECTION('',(0.,0.,1.));
#1182=DIRECTION('',(1.,0.,0.));
#1183=DIRECTION('',(0.,-1.,0.));
#1184=DIRECTION('',(0.,0.,1.));
#1185=DIRECTION('',(1.,0.,0.));
#1186=DIRECTION('',(1.,0.,0.));
#1187=DIRECTION('',(0.,0.,-1.));
#1188=DIRECTION('',(-1.,0.,0.));
#1189=DIRECTION('',(0.,0.,1.));
#1190=DIRECTION('',(1.,0.,0.));
#1191=DIRECTION('',(0.,0.,-1.));
#1192=DIRECTION('',(0.,0.,-1.));
#1193=DIRECTION('',(1.,-1.38777878078144E-16,0.));
#1194=DIRECTION('',(1.38777878078144E-16,1.,0.));
#1195=DIRECTION('',(-1.38777878078144E-16,-1.,0.));
#1196=DIRECTION('',(0.,0.,-1.));
#1197=DIRECTION('',(0.,0.,-1.));
#1198=DIRECTION('',(-1.,0.,0.));
#1199=DIRECTION('',(0.,0.,1.));
#1200=DIRECTION('',(1.,0.,0.));
#1201=DIRECTION('',(0.,0.,-1.));
#1202=DIRECTION('',(0.707106781186548,0.707106781186547,0.));
#1203=DIRECTION('',(-0.707106781186547,0.707106781186548,0.));
#1204=DIRECTION('',(-0.707106781186547,0.707106781186548,0.));
#1205=DIRECTION('',(0.,0.,-1.));
#1206=DIRECTION('',(0.,0.,-1.));
#1207=DIRECTION('',(-1.,0.,0.));
#1208=DIRECTION('',(0.,0.,1.));
#1209=DIRECTION('',(1.,0.,0.));
#1210=DIRECTION('',(0.,0.,-1.));
#1211=DIRECTION('',(0.,1.,0.));
#1212=DIRECTION('',(0.,0.,1.));
#1213=DIRECTION('',(1.,0.,0.));
#1214=DIRECTION('',(0.,0.,-1.));
#1215=DIRECTION('',(0.,0.,-1.));
#1216=DIRECTION('',(-1.,0.,0.));
#1217=DIRECTION('',(0.,0.,1.));
#1218=DIRECTION('',(1.,0.,0.));
#1219=DIRECTION('',(0.,0.,-1.));
#1220=DIRECTION('',(-0.707106781186545,0.70710678118655,0.));
#1221=DIRECTION('',(-0.70710678118655,-0.707106781186545,0.));
#1222=DIRECTION('',(0.70710678118655,0.707106781186545,0.));
#1223=DIRECTION('',(0.,0.,-1.));
#1224=DIRECTION('',(0.,0.,-1.));
#1225=DIRECTION('',(-1.,0.,0.));
#1226=DIRECTION('',(0.,0.,1.));
#1227=DIRECTION('',(1.,0.,0.));
#1228=DIRECTION('',(0.,0.,-1.));
#1229=DIRECTION('',(1.,-1.38777878078144E-16,0.));
#1230=DIRECTION('',(1.38777878078144E-16,1.,0.));
#1231=DIRECTION('',(-1.38777878078144E-16,-1.,0.));
#1232=DIRECTION('',(0.,0.,-1.));
#1233=DIRECTION('',(0.,0.,-1.));
#1234=DIRECTION('',(-1.,0.,0.));
#1235=DIRECTION('',(0.,0.,1.));
#1236=DIRECTION('',(1.,0.,0.));
#1237=DIRECTION('',(0.,0.,-1.));
#1238=DIRECTION('',(-0.707106781186547,-0.707106781186549,0.));
#1239=DIRECTION('',(0.707106781186549,-0.707106781186547,0.));
#1240=DIRECTION('',(0.707106781186549,-0.707106781186547,0.));
#1241=DIRECTION('',(0.,0.,-1.));
#1242=DIRECTION('',(0.,0.,-1.));
#1243=DIRECTION('',(-1.,0.,0.));
#1244=DIRECTION('',(0.,0.,1.));
#1245=DIRECTION('',(1.,0.,0.));
#1246=DIRECTION('',(0.,0.,-1.));
#1247=DIRECTION('',(0.,1.,0.));
#1248=DIRECTION('',(0.,0.,1.));
#1249=DIRECTION('',(1.,0.,0.));
#1250=DIRECTION('',(0.,0.,-1.));
#1251=DIRECTION('',(0.,0.,-1.));
#1252=DIRECTION('',(-1.,0.,0.));
#1253=DIRECTION('',(0.,0.,1.));
#1254=DIRECTION('',(1.,0.,0.));
#1255=DIRECTION('',(0.,0.,-1.));
#1256=DIRECTION('',(0.,0.,-1.));
#1257=DIRECTION('',(-1.,0.,0.));
#1258=DIRECTION('',(0.,0.,1.));
#1259=DIRECTION('',(1.,0.,0.));
#1260=DIRECTION('',(0.707106781186547,-0.707106781186548,0.));
#1261=DIRECTION('',(0.707106781186548,0.707106781186547,0.));
#1262=DIRECTION('',(-0.707106781186548,-0.707106781186547,0.));
#1263=DIRECTION('',(0.,0.,-1.));
#1264=DIRECTION('',(-1.,0.,0.));
#1265=DIRECTION('',(0.,0.,-1.));
#1266=DIRECTION('',(1.,0.,0.));
#1267=DIRECTION('',(0.,0.,-1.));
#1268=DIRECTION('',(-1.,0.,0.));
#1269=DIRECTION('',(0.,0.,1.));
#1270=DIRECTION('',(1.,0.,0.));
#1271=DIRECTION('',(0.,0.,-1.));
#1272=DIRECTION('',(-1.,0.,0.));
#1273=DIRECTION('',(0.,0.,-1.));
#1274=DIRECTION('',(1.,0.,0.));
#1275=DIRECTION('',(0.,0.,1.));
#1276=DIRECTION('',(1.,0.,0.));
#1277=DIRECTION('',(0.,0.,1.));
#1278=DIRECTION('',(1.,0.,0.));
#1279=DIRECTION('',(0.,0.,1.));
#1280=DIRECTION('',(1.,0.,0.));
#1281=DIRECTION('',(0.,-1.,0.));
#1282=DIRECTION('',(0.,0.,-1.));
#1283=DIRECTION('',(0.,0.,1.));
#1284=DIRECTION('',(1.,0.,0.));
#1285=DIRECTION('',(0.,0.,1.));
#1286=DIRECTION('',(-1.,0.,0.));
#1287=DIRECTION('',(0.,0.,1.));
#1288=DIRECTION('',(0.,0.,1.));
#1289=DIRECTION('',(0.,-1.,0.));
#1290=DIRECTION('',(0.,-1.,0.));
#1291=DIRECTION('',(0.,0.,-1.));
#1292=DIRECTION('',(0.,0.,1.));
#1293=DIRECTION('',(1.,0.,0.));
#1294=DIRECTION('',(0.,0.,1.));
#1295=DIRECTION('',(1.,0.,0.));
#1296=DIRECTION('',(0.,0.,1.));
#1297=DIRECTION('',(0.,0.,1.));
#1298=DIRECTION('',(1.,0.,0.));
#1299=DIRECTION('',(-1.,0.,0.));
#1300=DIRECTION('',(0.,0.,1.));
#1301=DIRECTION('',(0.,0.,1.));
#1302=DIRECTION('',(0.,-1.,0.));
#1303=DIRECTION('',(0.,0.,1.));
#1304=DIRECTION('',(1.,0.,0.));
#1305=DIRECTION('',(0.,0.,1.));
#1306=DIRECTION('',(1.,0.,0.));
#1307=DIRECTION('',(0.,0.,1.));
#1308=DIRECTION('',(1.,0.,0.));
#1309=DIRECTION('',(-1.,0.,0.));
#1310=DIRECTION('',(0.,0.,1.));
#1311=DIRECTION('',(0.,0.,-1.));
#1312=DIRECTION('',(0.,-1.,0.));
#1313=DIRECTION('',(0.,0.,-1.));
#1314=DIRECTION('',(-1.,-1.7347234759768E-16,0.));
#1315=DIRECTION('',(1.7347234759768E-16,-1.,0.));
#1316=DIRECTION('',(1.7347234759768E-16,-1.,0.));
#1317=DIRECTION('',(0.,0.,-1.));
#1318=DIRECTION('',(0.,0.,-1.));
#1319=DIRECTION('',(0.,1.,0.));
#1320=DIRECTION('',(0.,0.,1.));
#1321=DIRECTION('',(0.,1.,0.));
#1322=DIRECTION('',(0.,0.,1.));
#1323=DIRECTION('',(0.,0.,-1.));
#1324=DIRECTION('',(0.,1.,0.));
#1325=DIRECTION('',(0.,0.,1.));
#1326=DIRECTION('',(-0.832050294337843,0.,0.55470019622523));
#1327=DIRECTION('',(1.,0.,0.));
#1328=DIRECTION('',(0.832050294337843,0.,0.55470019622523));
#1329=DIRECTION('',(0.,1.,0.));
#1330=DIRECTION('',(0.,0.,1.));
#1331=DIRECTION('',(0.,0.,-1.));
#1332=DIRECTION('',(0.,0.,-1.));
#1333=DIRECTION('',(0.,1.,0.));
#1334=DIRECTION('',(0.,0.,1.));
#1335=DIRECTION('',(-1.,0.,0.));
#1336=DIRECTION('',(-1.,-1.73472347597681E-16,0.));
#1337=DIRECTION('',(1.73472347597681E-16,-1.,0.));
#1338=DIRECTION('',(0.,0.,-1.));
#1339=DIRECTION('',(1.73472347597681E-16,-1.,0.));
#1340=DIRECTION('',(0.,0.,-1.));
#1341=DIRECTION('',(0.,1.,0.));
#1342=DIRECTION('',(0.,0.,1.));
#1343=DIRECTION('',(0.,0.,-1.));
#1344=DIRECTION('',(0.,1.,0.));
#1345=DIRECTION('',(0.,0.,1.));
#1346=DIRECTION('',(-1.,0.,0.));
#1347=DIRECTION('',(0.,1.,0.));
#1348=DIRECTION('',(0.,0.,1.));
#1349=DIRECTION('',(0.,0.,-1.));
#1350=DIRECTION('',(0.,0.,-1.));
#1351=DIRECTION('',(0.,1.,0.));
#1352=DIRECTION('',(0.,0.,1.));
#1353=DIRECTION('',(-0.832050294337843,0.,-0.55470019622523));
#1354=DIRECTION('',(1.,0.,0.));
#1355=DIRECTION('',(0.832050294337843,0.,-0.55470019622523));
#1356=DIRECTION('',(0.,1.,0.));
#1357=DIRECTION('',(0.,0.,1.));
#1358=DIRECTION('',(-1.,0.,0.));
#1359=DIRECTION('',(0.,0.,1.));
#1360=DIRECTION('',(0.,-1.,0.));
#1361=DIRECTION('',(0.,0.,1.));
#1362=DIRECTION('',(1.,0.,0.));
#1363=DIRECTION('',(0.,1.,0.));
#1364=DIRECTION('',(0.,-1.,0.));
#1365=DIRECTION('',(0.,0.,-1.));
#1366=DIRECTION('',(-1.,0.,0.));
#1367=DIRECTION('',(1.73472347597681E-16,-1.,0.));
#1368=DIRECTION('',(-1.,0.,0.));
#1369=DIRECTION('',(1.7347234759768E-16,-1.,0.));
#1370=DIRECTION('',(-1.,0.,0.));
#1371=DIRECTION('',(0.55470019622523,0.,-0.832050294337843));
#1372=DIRECTION('',(0.,1.,0.));
#1373=DIRECTION('',(0.,1.,0.));
#1374=DIRECTION('',(0.55470019622523,0.,0.832050294337843));
#1375=DIRECTION('',(0.,-1.,0.));
#1376=DIRECTION('',(0.,-1.,0.));
#1377=DIRECTION('',(0.,-1.,0.));
#1378=DIRECTION('',(0.,0.,-1.));
#1379=DIRECTION('',(0.,1.,0.));
#1380=DIRECTION('',(0.,0.,1.));
#1381=DIRECTION('',(1.73472347597681E-16,-1.,0.));
#1382=DIRECTION('',(1.,1.73472347597681E-16,0.));
#1383=DIRECTION('',(0.,1.,0.));
#1384=DIRECTION('',(0.,0.,1.));
#1385=DIRECTION('',(0.,1.,0.));
#1386=DIRECTION('',(0.,0.,1.));
#1387=DIRECTION('',(-1.7347234759768E-16,1.,0.));
#1388=DIRECTION('',(-1.,-1.7347234759768E-16,0.));
#1389=DIRECTION('',(0.,1.,0.));
#1390=DIRECTION('',(0.,0.,1.));
#1391=DIRECTION('',(0.,1.,0.));
#1392=DIRECTION('',(0.,0.,1.));
#1393=DIRECTION('',(0.,0.,-1.));
#1394=DIRECTION('',(-1.,0.,0.));
#1395=DIRECTION('',(0.,0.,1.));
#1396=DIRECTION('',(1.,0.,0.));
#1397=DIRECTION('',(0.,1.,0.));
#1398=DIRECTION('',(0.,0.,1.));
#1399=DIRECTION('',(1.,0.,-1.15648231731787E-15));
#1400=DIRECTION('',(-1.15648231731787E-15,0.,-1.));
#1401=DIRECTION('',(1.,0.,0.));
#1402=DIRECTION('',(0.,0.,-1.));
#1403=DIRECTION('',(1.,0.,0.));
#1404=DIRECTION('',(0.,0.,-1.));
#1405=DIRECTION('',(0.,1.,0.));
#1406=DIRECTION('',(0.,0.,1.));
#1407=DIRECTION('',(0.,0.,-1.));
#1408=DIRECTION('',(-1.,0.,0.));
#1409=DIRECTION('',(0.,0.,1.));
#1410=DIRECTION('',(1.,0.,0.));
#1411=DIRECTION('',(0.,0.,1.));
#1412=DIRECTION('',(1.,0.,0.));
#1413=DIRECTION('',(0.,0.,1.));
#1414=DIRECTION('',(1.,0.,0.));
#1415=DIRECTION('',(0.,1.,0.));
#1416=DIRECTION('',(0.,0.,1.));
#1417=DIRECTION('',(1.,0.,-1.15648231731787E-15));
#1418=DIRECTION('',(-1.15648231731787E-15,0.,-1.));
#1419=DIRECTION('',(-1.,0.,0.));
#1420=DIRECTION('',(0.,0.,1.));
#1421=DIRECTION('',(1.,1.15648231731787E-15,0.));
#1422=DIRECTION('',(-1.15648231731787E-15,1.,0.));
#1423=DIRECTION('',(0.,1.,0.));
#1424=DIRECTION('',(0.,0.,1.));
#1425=DIRECTION('',(0.,0.,-1.));
#1426=DIRECTION('',(-1.,0.,0.));
#1427=DIRECTION('',(0.,0.,-1.));
#1428=DIRECTION('',(-1.,0.,0.));
#1429=CARTESIAN_POINT('',(0.,0.,0.));
#1430=CARTESIAN_POINT('',(1.38777878078145E-17,0.,0.1075));
#1431=CARTESIAN_POINT('',(-0.0375,-0.005,0.1075));
#1432=CARTESIAN_POINT('',(-0.045,-0.005,0.1075));
#1433=CARTESIAN_POINT('',(-0.033,-0.005,0.1075));
#1434=CARTESIAN_POINT('',(-0.045,0.005,0.1075));
#1435=CARTESIAN_POINT('',(-0.045,0.015,0.1075));
#1436=CARTESIAN_POINT('',(-0.0375,0.015,0.1075));
#1437=CARTESIAN_POINT('',(-0.033,0.015,0.1075));
#1438=CARTESIAN_POINT('',(-0.033,0.012,0.1075));
#1439=CARTESIAN_POINT('',(-0.03,0.012,0.1075));
#1440=CARTESIAN_POINT('',(-0.03,0.005,0.1075));
#1441=CARTESIAN_POINT('',(-0.03,-0.002,0.1075));
#1442=CARTESIAN_POINT('',(-0.033,-0.002,0.1075));
#1443=CARTESIAN_POINT('',(0.0375,-0.005,0.1075));
#1444=CARTESIAN_POINT('',(0.033,-0.005,0.1075));
#1445=CARTESIAN_POINT('',(0.045,-0.005,0.1075));
#1446=CARTESIAN_POINT('',(0.033,-0.002,0.1075));
#1447=CARTESIAN_POINT('',(0.03,-0.002,0.1075));
#1448=CARTESIAN_POINT('',(0.03,0.005,0.1075));
#1449=CARTESIAN_POINT('',(0.03,0.012,0.1075));
#1450=CARTESIAN_POINT('',(0.033,0.012,0.1075));
#1451=CARTESIAN_POINT('',(0.033,0.015,0.1075));
#1452=CARTESIAN_POINT('',(0.0375,0.015,0.1075));
#1453=CARTESIAN_POINT('',(0.045,0.015,0.1075));
#1454=CARTESIAN_POINT('',(0.045,0.005,0.1075));
#1455=CARTESIAN_POINT('',(0.,0.0248,0.1075));
#1456=CARTESIAN_POINT('',(0.002075,0.0248,0.1075));
#1457=CARTESIAN_POINT('',(0.0827144660940673,0.0427144660940673,0.1075));
#1458=CARTESIAN_POINT('',(0.0849644660940673,0.0427144660940673,0.1075));
#1459=CARTESIAN_POINT('',(0.0827144660940673,-0.0427144660940672,0.1075));
#1460=CARTESIAN_POINT('',(0.0849644660940673,-0.0427144660940672,0.1075));
#1461=CARTESIAN_POINT('',(-0.085,0.0404289321881346,0.1075));
#1462=CARTESIAN_POINT('',(-0.0885355339059327,0.0439644660940672,0.1075));
#1463=CARTESIAN_POINT('',(-0.09,0.0404289321881346,0.1075));
#1464=CARTESIAN_POINT('',(-0.09,3.46944695195361E-17,0.1075));
#1465=CARTESIAN_POINT('',(-0.09,-0.0404289321881346,0.1075));
#1466=CARTESIAN_POINT('',(-0.085,-0.0404289321881346,0.1075));
#1467=CARTESIAN_POINT('',(-0.0885355339059327,-0.0439644660940673,0.1075));
#1468=CARTESIAN_POINT('',(-0.06625,-0.06625,0.1075));
#1469=CARTESIAN_POINT('',(-0.0839644660940672,-0.0485355339059327,0.1075));
#1470=CARTESIAN_POINT('',(-0.0804289321881345,-0.045,0.1075));
#1471=CARTESIAN_POINT('',(-0.0804289321881345,-0.05,0.1075));
#1472=CARTESIAN_POINT('',(0.,-0.05,0.1075));
#1473=CARTESIAN_POINT('',(0.0804289321881345,-0.05,0.1075));
#1474=CARTESIAN_POINT('',(0.0804289321881345,-0.045,0.1075));
#1475=CARTESIAN_POINT('',(0.0839644660940673,-0.0485355339059328,0.1075));
#1476=CARTESIAN_POINT('',(0.06625,-0.06625,0.1075));
#1477=CARTESIAN_POINT('',(0.0885355339059327,-0.0439644660940673,0.1075));
#1478=CARTESIAN_POINT('',(0.085,-0.0404289321881346,0.1075));
#1479=CARTESIAN_POINT('',(0.09,-0.0404289321881346,0.1075));
#1480=CARTESIAN_POINT('',(0.09,0.,0.1075));
#1481=CARTESIAN_POINT('',(0.09,0.0404289321881346,0.1075));
#1482=CARTESIAN_POINT('',(0.085,0.0404289321881346,0.1075));
#1483=CARTESIAN_POINT('',(0.0885355339059328,0.0439644660940673,0.1075));
#1484=CARTESIAN_POINT('',(0.06625,0.06625,0.1075));
#1485=CARTESIAN_POINT('',(0.0839644660940673,0.0485355339059328,0.1075));
#1486=CARTESIAN_POINT('',(0.0804289321881345,0.045,0.1075));
#1487=CARTESIAN_POINT('',(0.0804289321881345,0.05,0.1075));
#1488=CARTESIAN_POINT('',(0.,0.05,0.1075));
#1489=CARTESIAN_POINT('',(-0.0804289321881345,0.05,0.1075));
#1490=CARTESIAN_POINT('',(-0.0804289321881345,0.045,0.1075));
#1491=CARTESIAN_POINT('',(-0.0839644660940672,0.0485355339059327,0.1075));
#1492=CARTESIAN_POINT('',(-0.06625,0.06625,0.1075));
#1493=CARTESIAN_POINT('',(-0.0827144660940673,-0.0427144660940672,0.1075));
#1494=CARTESIAN_POINT('',(-0.0804644660940673,-0.0427144660940672,0.1075));
#1495=CARTESIAN_POINT('',(-0.0827144660940673,0.0427144660940672,0.1075));
#1496=CARTESIAN_POINT('',(-0.0804644660940673,0.0427144660940672,0.1075));
#1497=CARTESIAN_POINT('',(-0.07,-0.020575,0.1075));
#1498=CARTESIAN_POINT('',(-0.07,-0.013,0.1075));
#1499=CARTESIAN_POINT('',(-0.07,-0.02815,0.1075));
#1500=CARTESIAN_POINT('',(-0.00149999999999997,-0.013,0.1075));
#1501=CARTESIAN_POINT('',(0.067,-0.013,0.1075));
#1502=CARTESIAN_POINT('',(0.067,-0.016,0.1075));
#1503=CARTESIAN_POINT('',(0.07,-0.016,0.1075));
#1504=CARTESIAN_POINT('',(0.07,-0.020575,0.1075));
#1505=CARTESIAN_POINT('',(0.07,-0.02515,0.1075));
#1506=CARTESIAN_POINT('',(0.067,-0.02515,0.1075));
#1507=CARTESIAN_POINT('',(0.067,-0.02815,0.1075));
#1508=CARTESIAN_POINT('',(-0.00149999999999996,-0.02815,0.1075));
#1509=CARTESIAN_POINT('',(-0.085,0.0404289321881346,0.1075));
#1510=CARTESIAN_POINT('',(-0.085,0.0404289321881346,0.1));
#1511=CARTESIAN_POINT('',(-0.0885355339059327,0.0439644660940672,0.1));
#1512=CARTESIAN_POINT('',(-0.09,0.0404289321881346,0.1));
#1513=CARTESIAN_POINT('',(-0.09,0.0404289321881346,0.1075));
#1514=CARTESIAN_POINT('',(-0.0885355339059327,0.0439644660940672,0.1075));
#1515=CARTESIAN_POINT('',(-0.09,3.46944695195361E-17,0.1075));
#1516=CARTESIAN_POINT('',(-0.09,3.46944695195361E-17,0.1));
#1517=CARTESIAN_POINT('',(-0.09,-0.0404289321881346,0.1));
#1518=CARTESIAN_POINT('',(-0.09,-0.0404289321881346,0.1075));
#1519=CARTESIAN_POINT('',(-0.085,-0.0404289321881346,0.1075));
#1520=CARTESIAN_POINT('',(-0.085,-0.0404289321881346,0.1));
#1521=CARTESIAN_POINT('',(-0.0885355339059327,-0.0439644660940673,0.1));
#1522=CARTESIAN_POINT('',(-0.0885355339059327,-0.0439644660940673,0.1075));
#1523=CARTESIAN_POINT('',(-0.06625,-0.06625,0.1075));
#1524=CARTESIAN_POINT('',(-0.06625,-0.06625,0.1));
#1525=CARTESIAN_POINT('',(-0.0839644660940672,-0.0485355339059327,0.1));
#1526=CARTESIAN_POINT('',(-0.0839644660940672,-0.0485355339059327,0.1075));
#1527=CARTESIAN_POINT('',(-0.0804289321881345,-0.045,0.1075));
#1528=CARTESIAN_POINT('',(-0.0804289321881345,-0.045,0.1));
#1529=CARTESIAN_POINT('',(-0.0804289321881345,-0.05,0.1));
#1530=CARTESIAN_POINT('',(-0.0804289321881345,-0.05,0.1075));
#1531=CARTESIAN_POINT('',(0.,-0.05,0.1075));
#1532=CARTESIAN_POINT('',(0.,-0.05,0.1));
#1533=CARTESIAN_POINT('',(0.0804289321881345,-0.05,0.1));
#1534=CARTESIAN_POINT('',(0.0804289321881345,-0.05,0.1075));
#1535=CARTESIAN_POINT('',(0.0804289321881345,-0.045,0.1075));
#1536=CARTESIAN_POINT('',(0.0804289321881345,-0.045,0.1));
#1537=CARTESIAN_POINT('',(0.0839644660940673,-0.0485355339059328,0.1));
#1538=CARTESIAN_POINT('',(0.0839644660940673,-0.0485355339059328,0.1075));
#1539=CARTESIAN_POINT('',(0.06625,-0.06625,0.1075));
#1540=CARTESIAN_POINT('',(0.06625,-0.06625,0.1));
#1541=CARTESIAN_POINT('',(0.0885355339059327,-0.0439644660940673,0.1));
#1542=CARTESIAN_POINT('',(0.0885355339059327,-0.0439644660940673,0.1075));
#1543=CARTESIAN_POINT('',(0.085,-0.0404289321881346,0.1075));
#1544=CARTESIAN_POINT('',(0.085,-0.0404289321881346,0.1));
#1545=CARTESIAN_POINT('',(0.09,-0.0404289321881346,0.1));
#1546=CARTESIAN_POINT('',(0.09,-0.0404289321881346,0.1075));
#1547=CARTESIAN_POINT('',(0.09,0.,0.1075));
#1548=CARTESIAN_POINT('',(0.09,0.,0.1));
#1549=CARTESIAN_POINT('',(0.09,0.0404289321881346,0.1));
#1550=CARTESIAN_POINT('',(0.09,0.0404289321881346,0.1075));
#1551=CARTESIAN_POINT('',(0.085,0.0404289321881346,0.1075));
#1552=CARTESIAN_POINT('',(0.085,0.0404289321881346,0.1));
#1553=CARTESIAN_POINT('',(0.0885355339059328,0.0439644660940673,0.1));
#1554=CARTESIAN_POINT('',(0.0885355339059328,0.0439644660940673,0.1075));
#1555=CARTESIAN_POINT('',(0.06625,0.06625,0.1075));
#1556=CARTESIAN_POINT('',(0.06625,0.06625,0.1));
#1557=CARTESIAN_POINT('',(0.0839644660940673,0.0485355339059328,0.1));
#1558=CARTESIAN_POINT('',(0.0839644660940673,0.0485355339059328,0.1075));
#1559=CARTESIAN_POINT('',(0.0804289321881345,0.045,0.1075));
#1560=CARTESIAN_POINT('',(0.0804289321881345,0.045,0.1));
#1561=CARTESIAN_POINT('',(0.0804289321881345,0.05,0.1));
#1562=CARTESIAN_POINT('',(0.0804289321881345,0.05,0.1075));
#1563=CARTESIAN_POINT('',(0.,0.05,0.1075));
#1564=CARTESIAN_POINT('',(0.,0.05,0.1));
#1565=CARTESIAN_POINT('',(-0.0804289321881345,0.05,0.1));
#1566=CARTESIAN_POINT('',(-0.0804289321881345,0.05,0.1075));
#1567=CARTESIAN_POINT('',(-0.0804289321881345,0.045,0.1075));
#1568=CARTESIAN_POINT('',(-0.0804289321881345,0.045,0.1));
#1569=CARTESIAN_POINT('',(-0.0839644660940672,0.0485355339059327,0.1));
#1570=CARTESIAN_POINT('',(-0.0839644660940672,0.0485355339059327,0.1075));
#1571=CARTESIAN_POINT('',(-0.0827144660940673,-0.0427144660940672,0.1075));
#1572=CARTESIAN_POINT('',(-0.0827144660940673,-0.0427144660940672,0.1));
#1573=CARTESIAN_POINT('',(-0.0804644660940673,-0.0427144660940672,0.1));
#1574=CARTESIAN_POINT('',(-0.06625,0.06625,0.1075));
#1575=CARTESIAN_POINT('',(-0.06625,0.06625,0.1));
#1576=CARTESIAN_POINT('',(0.0827144660940673,-0.0427144660940672,0.1075));
#1577=CARTESIAN_POINT('',(0.0827144660940673,-0.0427144660940672,0.1));
#1578=CARTESIAN_POINT('',(0.0849644660940673,-0.0427144660940672,0.1));
#1579=CARTESIAN_POINT('',(0.0827144660940673,0.0427144660940673,0.1075));
#1580=CARTESIAN_POINT('',(0.0827144660940673,0.0427144660940673,0.1));
#1581=CARTESIAN_POINT('',(0.0849644660940673,0.0427144660940673,0.1));
#1582=CARTESIAN_POINT('',(-0.0827144660940673,0.0427144660940672,0.1075));
#1583=CARTESIAN_POINT('',(-0.0827144660940673,0.0427144660940672,0.1));
#1584=CARTESIAN_POINT('',(-0.0804644660940673,0.0427144660940672,0.1));
#1585=CARTESIAN_POINT('',(1.38777878078145E-17,0.,0.1));
#1586=CARTESIAN_POINT('',(0.,0.0248,0.1));
#1587=CARTESIAN_POINT('',(0.002075,0.0248,0.1));
#1588=CARTESIAN_POINT('',(0.,0.0248,0.1));
#1589=CARTESIAN_POINT('',(-0.00149999999999997,-0.013,0.1045));
#1590=CARTESIAN_POINT('',(-0.07,-0.013,0.1045));
#1591=CARTESIAN_POINT('',(-0.07,-0.013,0.1045));
#1592=CARTESIAN_POINT('',(-0.00149999999999997,-0.013,0.1045));
#1593=CARTESIAN_POINT('',(0.067,-0.013,0.1045));
#1594=CARTESIAN_POINT('',(0.067,-0.013,0.1045));
#1595=CARTESIAN_POINT('',(-0.07,-0.020575,0.1045));
#1596=CARTESIAN_POINT('',(-0.07,-0.02815,0.1045));
#1597=CARTESIAN_POINT('',(-0.07,-0.02815,0.1045));
#1598=CARTESIAN_POINT('',(-0.07,-0.020575,0.1045));
#1599=CARTESIAN_POINT('',(-0.00149999999999996,-0.02815,0.1045));
#1600=CARTESIAN_POINT('',(0.067,-0.02815,0.1045));
#1601=CARTESIAN_POINT('',(0.067,-0.02815,0.1045));
#1602=CARTESIAN_POINT('',(-0.00149999999999996,-0.02815,0.1045));
#1603=CARTESIAN_POINT('',(0.067,-0.02515,0.1045));
#1604=CARTESIAN_POINT('',(0.07,-0.02515,0.1045));
#1605=CARTESIAN_POINT('',(0.07,-0.02515,0.1045));
#1606=CARTESIAN_POINT('',(0.067,-0.02515,0.1045));
#1607=CARTESIAN_POINT('',(0.07,-0.020575,0.1045));
#1608=CARTESIAN_POINT('',(0.07,-0.016,0.1045));
#1609=CARTESIAN_POINT('',(0.07,-0.016,0.1045));
#1610=CARTESIAN_POINT('',(0.07,-0.020575,0.1045));
#1611=CARTESIAN_POINT('',(0.067,-0.016,0.1045));
#1612=CARTESIAN_POINT('',(0.067,-0.016,0.1045));
#1613=CARTESIAN_POINT('',(0.,0.,0.1045));
#1614=CARTESIAN_POINT('',(0.045,0.005,0.1425));
#1615=CARTESIAN_POINT('',(0.045,0.015,0.1425));
#1616=CARTESIAN_POINT('',(0.045,0.015,0.130894448724536));
#1617=CARTESIAN_POINT('',(0.045,-0.005,0.130894448724536));
#1618=CARTESIAN_POINT('',(0.045,-0.005,0.130894448724536));
#1619=CARTESIAN_POINT('',(0.045,-0.005,0.1425));
#1620=CARTESIAN_POINT('',(0.03,0.005,0.1425));
#1621=CARTESIAN_POINT('',(0.03,0.015,0.1245));
#1622=CARTESIAN_POINT('',(0.03,-0.002,0.1245));
#1623=CARTESIAN_POINT('',(0.03,0.012,0.1245));
#1624=CARTESIAN_POINT('',(0.03,0.012,0.1425));
#1625=CARTESIAN_POINT('',(0.03,-0.002,0.1245));
#1626=CARTESIAN_POINT('',(-0.0375,-0.005,0.1425));
#1627=CARTESIAN_POINT('',(0.027,-0.005,0.1245));
#1628=CARTESIAN_POINT('',(0.027,-0.005,0.1305));
#1629=CARTESIAN_POINT('',(0.033,-0.005,0.1245));
#1630=CARTESIAN_POINT('',(0.033,-0.005,0.1075));
#1631=CARTESIAN_POINT('',(0.042,-0.005,0.130894448724536));
#1632=CARTESIAN_POINT('',(0.0436641005886757,-0.005,0.133390599607549));
#1633=CARTESIAN_POINT('',(0.03,-0.005,0.1425));
#1634=CARTESIAN_POINT('',(0.03,-0.005,0.1425));
#1635=CARTESIAN_POINT('',(-0.0375,-0.005,0.1425));
#1636=CARTESIAN_POINT('',(-0.03,-0.005,0.1425));
#1637=CARTESIAN_POINT('',(-0.045,-0.005,0.1325));
#1638=CARTESIAN_POINT('',(-0.0436641005886756,-0.005,0.13339059960755));
#1639=CARTESIAN_POINT('',(-0.042,-0.005,0.130894448724536));
#1640=CARTESIAN_POINT('',(-0.045,-0.005,0.130894448724536));
#1641=CARTESIAN_POINT('',(-0.045,-0.005,0.1425));
#1642=CARTESIAN_POINT('',(-0.033,-0.005,0.1425));
#1643=CARTESIAN_POINT('',(-0.033,-0.005,0.1245));
#1644=CARTESIAN_POINT('',(-0.027,-0.005,0.1245));
#1645=CARTESIAN_POINT('',(-0.027,-0.005,0.1305));
#1646=CARTESIAN_POINT('',(0.027,-0.005,0.1305));
#1647=CARTESIAN_POINT('',(-0.03,0.005,0.1425));
#1648=CARTESIAN_POINT('',(-0.03,0.012,0.1245));
#1649=CARTESIAN_POINT('',(-0.03,0.012,0.1245));
#1650=CARTESIAN_POINT('',(-0.03,0.005,0.1245));
#1651=CARTESIAN_POINT('',(-0.03,-0.002,0.1245));
#1652=CARTESIAN_POINT('',(-0.03,-0.002,0.1425));
#1653=CARTESIAN_POINT('',(-0.0375,0.015,0.1425));
#1654=CARTESIAN_POINT('',(0.033,0.015,0.1425));
#1655=CARTESIAN_POINT('',(0.033,0.015,0.1245));
#1656=CARTESIAN_POINT('',(0.027,0.015,0.1245));
#1657=CARTESIAN_POINT('',(0.027,0.015,0.1305));
#1658=CARTESIAN_POINT('',(-0.0375,0.015,0.1305));
#1659=CARTESIAN_POINT('',(-0.027,0.015,0.1305));
#1660=CARTESIAN_POINT('',(-0.027,0.015,0.1245));
#1661=CARTESIAN_POINT('',(-0.033,0.015,0.1245));
#1662=CARTESIAN_POINT('',(-0.033,0.015,0.1075));
#1663=CARTESIAN_POINT('',(-0.045,0.015,0.1425));
#1664=CARTESIAN_POINT('',(-0.045,0.015,0.130894448724536));
#1665=CARTESIAN_POINT('',(-0.042,0.015,0.130894448724536));
#1666=CARTESIAN_POINT('',(-0.0436641005886756,0.015,0.13339059960755));
#1667=CARTESIAN_POINT('',(-0.0351923076923077,0.015,0.139038461538462));
#1668=CARTESIAN_POINT('',(-0.03,0.015,0.1425));
#1669=CARTESIAN_POINT('',(-0.0375,0.015,0.1425));
#1670=CARTESIAN_POINT('',(0.03,0.015,0.1425));
#1671=CARTESIAN_POINT('',(-0.0167307692307692,0.015,0.173653846153846));
#1672=CARTESIAN_POINT('',(0.0436641005886757,0.015,0.133390599607549));
#1673=CARTESIAN_POINT('',(0.042,0.015,0.130894448724536));
#1674=CARTESIAN_POINT('',(-0.045,0.005,0.1425));
#1675=CARTESIAN_POINT('',(-0.045,0.005,0.130894448724536));
#1676=CARTESIAN_POINT('',(1.38777878078145E-17,0.,0.1425));
#1677=CARTESIAN_POINT('',(0.03,0.015,0.1425));
#1678=CARTESIAN_POINT('',(-0.03,0.,0.1425));
#1679=CARTESIAN_POINT('',(0.04,0.005,0.1275));
#1680=CARTESIAN_POINT('',(-0.027,0.005,0.1275));
#1681=CARTESIAN_POINT('',(-0.027,-0.002,0.1275));
#1682=CARTESIAN_POINT('',(-0.027,0.012,0.1275));
#1683=CARTESIAN_POINT('',(0.04,0.012,0.1275));
#1684=CARTESIAN_POINT('',(0.027,0.012,0.1275));
#1685=CARTESIAN_POINT('',(0.027,-0.005,0.1275));
#1686=CARTESIAN_POINT('',(0.027,-0.002,0.1275));
#1687=CARTESIAN_POINT('',(-0.027,-0.002,0.1275));
#1688=CARTESIAN_POINT('',(-0.045,0.005,0.1325));
#1689=CARTESIAN_POINT('',(-0.0436641005886756,0.005,0.13339059960755));
#1690=CARTESIAN_POINT('',(0.03,0.,0.1425));
#1691=CARTESIAN_POINT('',(0.0436641005886757,0.015,0.133390599607549));
#1692=CARTESIAN_POINT('',(-0.042,0.005,0.130894448724536));
#1693=CARTESIAN_POINT('',(0.042,0.005,0.130894448724536));
#1694=CARTESIAN_POINT('',(-0.027,0.005,0.1245));
#1695=CARTESIAN_POINT('',(-0.027,0.012,0.1245));
#1696=CARTESIAN_POINT('',(-0.027,-0.002,0.1245));
#1697=CARTESIAN_POINT('',(0.027,0.005,0.1245));
#1698=CARTESIAN_POINT('',(0.027,0.012,0.1245));
#1699=CARTESIAN_POINT('',(0.027,-0.002,0.1245));
#1700=CARTESIAN_POINT('',(-0.033,-0.002,0.1425));
#1701=CARTESIAN_POINT('',(-0.033,-0.002,0.1245));
#1702=CARTESIAN_POINT('',(-0.027,-0.002,0.1245));
#1703=CARTESIAN_POINT('',(-0.027,-0.002,0.1305));
#1704=CARTESIAN_POINT('',(0.04,-0.002,0.1305));
#1705=CARTESIAN_POINT('',(0.027,-0.002,0.1305));
#1706=CARTESIAN_POINT('',(0.027,-0.002,0.1245));
#1707=CARTESIAN_POINT('',(0.033,-0.002,0.1245));
#1708=CARTESIAN_POINT('',(0.033,-0.002,0.1425));
#1709=CARTESIAN_POINT('',(-0.033,0.012,0.1425));
#1710=CARTESIAN_POINT('',(-0.033,0.012,0.1245));
#1711=CARTESIAN_POINT('',(-0.027,0.012,0.1245));
#1712=CARTESIAN_POINT('',(-0.027,0.012,0.1305));
#1713=CARTESIAN_POINT('',(-0.0375,0.012,0.1305));
#1714=CARTESIAN_POINT('',(0.027,0.012,0.1305));
#1715=CARTESIAN_POINT('',(0.027,0.012,0.1245));
#1716=CARTESIAN_POINT('',(0.033,0.012,0.1245));
#1717=CARTESIAN_POINT('',(0.033,0.012,0.1425));
#1718=MECHANICAL_DESIGN_GEOMETRIC_PRESENTATION_REPRESENTATION('',(#1005),
#1719);
#1719=(
GEOMETRIC_REPRESENTATION_CONTEXT(3)
GLOBAL_UNCERTAINTY_ASSIGNED_CONTEXT((#1720))
GLOBAL_UNIT_ASSIGNED_CONTEXT((#1723,#1722,#1721))
REPRESENTATION_CONTEXT('Lid','TOP_LEVEL_ASSEMBLY_PART')
);
#1720=UNCERTAINTY_MEASURE_WITH_UNIT(LENGTH_MEASURE(1.E-8),#1723,
'DISTANCE_ACCURACY_VALUE','Maximum Tolerance applied to model');
#1721=(
NAMED_UNIT(*)
SI_UNIT($,.STERADIAN.)
SOLID_ANGLE_UNIT()
);
#1722=(
NAMED_UNIT(*)
PLANE_ANGLE_UNIT()
SI_UNIT($,.RADIAN.)
);
#1723=(
LENGTH_UNIT()
NAMED_UNIT(*)
SI_UNIT($,.METRE.)
);
#1724=PRODUCT_DEFINITION_SHAPE('','',#1725);
#1725=PRODUCT_DEFINITION('','',#1727,#1726);
#1726=PRODUCT_DEFINITION_CONTEXT('',#1733,'design');
#1727=PRODUCT_DEFINITION_FORMATION_WITH_SPECIFIED_SOURCE('','',#1729,
 .NOT_KNOWN.);
#1728=PRODUCT_RELATED_PRODUCT_CATEGORY('','',(#1729));
#1729=PRODUCT('Lid','Lid','Lid',(#1731));
#1730=PRODUCT_CATEGORY('','');
#1731=PRODUCT_CONTEXT('',#1733,'mechanical');
#1732=APPLICATION_PROTOCOL_DEFINITION('international standard',
'ap242_managed_model_based_3d_engineering',2020,#1733);
#1733=APPLICATION_CONTEXT('managed model based 3d engineering');
ENDSEC;
END-ISO-10303-21;
