ISO-10303-21;
HEADER;
/* Generated by software containing ST-Developer
 * from STEP Tools, Inc. (www.steptools.com) 
 */
/* OPTION: using custom renumber hook */

FILE_DESCRIPTION(
/* description */ ('STEP AP242 Edition 2',
'CAx-IF Rec.Pracs.---Representation and Presentation of Product Manufa
cturing Information (PMI)---4.0---2014-10-13',
'CAx-IF Rec.Pracs.---3D Tessellated Geometry---0.4---2014-09-14','2;1',
'CAx-IF Rec.Pracs.---User Defined Attributes---1.5---2016-08-15'),
/* implementation_level */ '2;1');

FILE_NAME(
/* name */ 'Smart Scalpel - Mechanical Retraction - Slider',
/* time_stamp */ '2026-06-10T17:54:50Z',
/* author */ (''),
/* organization */ (''),
/* preprocessor_version */ 'ST-DEVELOPER v20',
/* originating_system */ 'ONSHAPE BY PTC INC, 1.216',
/* authorisation */ '  ');

FILE_SCHEMA (('AP242_MANAGED_MODEL_BASED_3D_ENGINEERING_MIM_LF { 1 0 10303 442 3 1 4 }'));
ENDSEC;

DATA;
#10=SHAPE_REPRESENTATION_RELATIONSHIP('','',#300,#11);
#11=ADVANCED_BREP_SHAPE_REPRESENTATION('',(#298),#479);
#12=CYLINDRICAL_SURFACE('',#305,0.00075);
#13=CYLINDRICAL_SURFACE('',#322,0.00075);
#14=CIRCLE('',#303,0.00075);
#15=CIRCLE('',#304,0.00075);
#16=CIRCLE('',#306,0.00075);
#17=CIRCLE('',#308,0.00075);
#18=CIRCLE('',#310,0.00075);
#19=ORIENTED_EDGE('',*,*,#93,.F.);
#20=ORIENTED_EDGE('',*,*,#94,.T.);
#21=ORIENTED_EDGE('',*,*,#95,.T.);
#22=ORIENTED_EDGE('',*,*,#96,.F.);
#23=ORIENTED_EDGE('',*,*,#97,.F.);
#24=ORIENTED_EDGE('',*,*,#98,.T.);
#25=ORIENTED_EDGE('',*,*,#99,.F.);
#26=ORIENTED_EDGE('',*,*,#97,.T.);
#27=ORIENTED_EDGE('',*,*,#100,.F.);
#28=ORIENTED_EDGE('',*,*,#101,.F.);
#29=ORIENTED_EDGE('',*,*,#101,.T.);
#30=ORIENTED_EDGE('',*,*,#102,.T.);
#31=ORIENTED_EDGE('',*,*,#103,.F.);
#32=ORIENTED_EDGE('',*,*,#104,.F.);
#33=ORIENTED_EDGE('',*,*,#105,.T.);
#34=ORIENTED_EDGE('',*,*,#106,.T.);
#35=ORIENTED_EDGE('',*,*,#107,.F.);
#36=ORIENTED_EDGE('',*,*,#108,.F.);
#37=ORIENTED_EDGE('',*,*,#109,.T.);
#38=ORIENTED_EDGE('',*,*,#104,.T.);
#39=ORIENTED_EDGE('',*,*,#110,.F.);
#40=ORIENTED_EDGE('',*,*,#95,.F.);
#41=ORIENTED_EDGE('',*,*,#111,.T.);
#42=ORIENTED_EDGE('',*,*,#108,.T.);
#43=ORIENTED_EDGE('',*,*,#112,.F.);
#44=ORIENTED_EDGE('',*,*,#113,.F.);
#45=ORIENTED_EDGE('',*,*,#93,.T.);
#46=ORIENTED_EDGE('',*,*,#114,.T.);
#47=ORIENTED_EDGE('',*,*,#115,.F.);
#48=ORIENTED_EDGE('',*,*,#116,.F.);
#49=ORIENTED_EDGE('',*,*,#115,.T.);
#50=ORIENTED_EDGE('',*,*,#117,.T.);
#51=ORIENTED_EDGE('',*,*,#106,.F.);
#52=ORIENTED_EDGE('',*,*,#107,.T.);
#53=ORIENTED_EDGE('',*,*,#117,.F.);
#54=ORIENTED_EDGE('',*,*,#114,.F.);
#55=ORIENTED_EDGE('',*,*,#96,.T.);
#56=ORIENTED_EDGE('',*,*,#112,.T.);
#57=ORIENTED_EDGE('',*,*,#110,.T.);
#58=ORIENTED_EDGE('',*,*,#118,.F.);
#59=ORIENTED_EDGE('',*,*,#119,.F.);
#60=ORIENTED_EDGE('',*,*,#120,.T.);
#61=ORIENTED_EDGE('',*,*,#121,.T.);
#62=ORIENTED_EDGE('',*,*,#105,.F.);
#63=ORIENTED_EDGE('',*,*,#109,.F.);
#64=ORIENTED_EDGE('',*,*,#111,.F.);
#65=ORIENTED_EDGE('',*,*,#94,.F.);
#66=ORIENTED_EDGE('',*,*,#113,.T.);
#67=ORIENTED_EDGE('',*,*,#116,.T.);
#68=ORIENTED_EDGE('',*,*,#122,.T.);
#69=ORIENTED_EDGE('',*,*,#118,.T.);
#70=ORIENTED_EDGE('',*,*,#123,.F.);
#71=ORIENTED_EDGE('',*,*,#124,.T.);
#72=ORIENTED_EDGE('',*,*,#121,.F.);
#73=ORIENTED_EDGE('',*,*,#125,.F.);
#74=ORIENTED_EDGE('',*,*,#126,.F.);
#75=ORIENTED_EDGE('',*,*,#123,.T.);
#76=ORIENTED_EDGE('',*,*,#120,.F.);
#77=ORIENTED_EDGE('',*,*,#127,.F.);
#78=ORIENTED_EDGE('',*,*,#128,.F.);
#79=ORIENTED_EDGE('',*,*,#125,.T.);
#80=ORIENTED_EDGE('',*,*,#127,.T.);
#81=ORIENTED_EDGE('',*,*,#119,.T.);
#82=ORIENTED_EDGE('',*,*,#122,.F.);
#83=ORIENTED_EDGE('',*,*,#129,.T.);
#84=ORIENTED_EDGE('',*,*,#124,.F.);
#85=ORIENTED_EDGE('',*,*,#126,.T.);
#86=ORIENTED_EDGE('',*,*,#128,.T.);
#87=ORIENTED_EDGE('',*,*,#129,.F.);
#88=ORIENTED_EDGE('',*,*,#103,.T.);
#89=ORIENTED_EDGE('',*,*,#100,.T.);
#90=ORIENTED_EDGE('',*,*,#98,.F.);
#91=ORIENTED_EDGE('',*,*,#99,.T.);
#92=ORIENTED_EDGE('',*,*,#102,.F.);
#93=EDGE_CURVE('',#130,#131,#155,.T.);
#94=EDGE_CURVE('',#130,#132,#156,.T.);
#95=EDGE_CURVE('',#132,#133,#157,.T.);
#96=EDGE_CURVE('',#131,#133,#158,.T.);
#97=EDGE_CURVE('',#134,#135,#14,.T.);
#98=EDGE_CURVE('',#134,#135,#15,.F.);
#99=EDGE_CURVE('',#134,#136,#159,.F.);
#100=EDGE_CURVE('',#137,#135,#160,.T.);
#101=EDGE_CURVE('',#136,#137,#16,.T.);
#102=EDGE_CURVE('',#137,#136,#17,.F.);
#103=EDGE_CURVE('',#138,#138,#18,.T.);
#104=EDGE_CURVE('',#139,#140,#161,.T.);
#105=EDGE_CURVE('',#139,#141,#162,.T.);
#106=EDGE_CURVE('',#141,#142,#163,.T.);
#107=EDGE_CURVE('',#140,#142,#164,.T.);
#108=EDGE_CURVE('',#143,#144,#165,.T.);
#109=EDGE_CURVE('',#143,#139,#166,.T.);
#110=EDGE_CURVE('',#144,#140,#167,.T.);
#111=EDGE_CURVE('',#132,#143,#168,.T.);
#112=EDGE_CURVE('',#133,#144,#169,.T.);
#113=EDGE_CURVE('',#130,#145,#170,.T.);
#114=EDGE_CURVE('',#131,#146,#171,.T.);
#115=EDGE_CURVE('',#145,#146,#172,.T.);
#116=EDGE_CURVE('',#145,#141,#173,.T.);
#117=EDGE_CURVE('',#146,#142,#174,.T.);
#118=EDGE_CURVE('',#147,#148,#175,.T.);
#119=EDGE_CURVE('',#149,#147,#176,.T.);
#120=EDGE_CURVE('',#149,#150,#177,.T.);
#121=EDGE_CURVE('',#150,#148,#178,.T.);
#122=EDGE_CURVE('',#151,#147,#179,.T.);
#123=EDGE_CURVE('',#152,#148,#180,.T.);
#124=EDGE_CURVE('',#152,#151,#181,.T.);
#125=EDGE_CURVE('',#153,#150,#182,.T.);
#126=EDGE_CURVE('',#152,#153,#183,.T.);
#127=EDGE_CURVE('',#154,#149,#184,.T.);
#128=EDGE_CURVE('',#153,#154,#185,.T.);
#129=EDGE_CURVE('',#151,#154,#186,.T.);
#130=VERTEX_POINT('',#402);
#131=VERTEX_POINT('',#403);
#132=VERTEX_POINT('',#405);
#133=VERTEX_POINT('',#407);
#134=VERTEX_POINT('',#410);
#135=VERTEX_POINT('',#411);
#136=VERTEX_POINT('',#415);
#137=VERTEX_POINT('',#417);
#138=VERTEX_POINT('',#423);
#139=VERTEX_POINT('',#425);
#140=VERTEX_POINT('',#426);
#141=VERTEX_POINT('',#428);
#142=VERTEX_POINT('',#430);
#143=VERTEX_POINT('',#434);
#144=VERTEX_POINT('',#435);
#145=VERTEX_POINT('',#443);
#146=VERTEX_POINT('',#445);
#147=VERTEX_POINT('',#453);
#148=VERTEX_POINT('',#454);
#149=VERTEX_POINT('',#456);
#150=VERTEX_POINT('',#458);
#151=VERTEX_POINT('',#462);
#152=VERTEX_POINT('',#464);
#153=VERTEX_POINT('',#468);
#154=VERTEX_POINT('',#472);
#155=LINE('',#401,#187);
#156=LINE('',#404,#188);
#157=LINE('',#406,#189);
#158=LINE('',#408,#190);
#159=LINE('',#414,#191);
#160=LINE('',#416,#192);
#161=LINE('',#424,#193);
#162=LINE('',#427,#194);
#163=LINE('',#429,#195);
#164=LINE('',#431,#196);
#165=LINE('',#433,#197);
#166=LINE('',#436,#198);
#167=LINE('',#437,#199);
#168=LINE('',#439,#200);
#169=LINE('',#440,#201);
#170=LINE('',#442,#202);
#171=LINE('',#444,#203);
#172=LINE('',#446,#204);
#173=LINE('',#448,#205);
#174=LINE('',#449,#206);
#175=LINE('',#452,#207);
#176=LINE('',#455,#208);
#177=LINE('',#457,#209);
#178=LINE('',#459,#210);
#179=LINE('',#461,#211);
#180=LINE('',#463,#212);
#181=LINE('',#465,#213);
#182=LINE('',#467,#214);
#183=LINE('',#469,#215);
#184=LINE('',#471,#216);
#185=LINE('',#473,#217);
#186=LINE('',#475,#218);
#187=VECTOR('',#327,1.);
#188=VECTOR('',#328,1.);
#189=VECTOR('',#329,1.);
#190=VECTOR('',#330,1.);
#191=VECTOR('',#337,1.);
#192=VECTOR('',#338,1.);
#193=VECTOR('',#349,1.);
#194=VECTOR('',#350,1.);
#195=VECTOR('',#351,1.);
#196=VECTOR('',#352,1.);
#197=VECTOR('',#355,1.);
#198=VECTOR('',#356,1.);
#199=VECTOR('',#357,1.);
#200=VECTOR('',#360,1.);
#201=VECTOR('',#361,1.);
#202=VECTOR('',#364,1.);
#203=VECTOR('',#365,1.);
#204=VECTOR('',#366,1.);
#205=VECTOR('',#369,1.);
#206=VECTOR('',#370,1.);
#207=VECTOR('',#375,1.);
#208=VECTOR('',#376,1.);
#209=VECTOR('',#377,1.);
#210=VECTOR('',#378,1.);
#211=VECTOR('',#381,1.);
#212=VECTOR('',#382,1.);
#213=VECTOR('',#383,1.);
#214=VECTOR('',#386,1.);
#215=VECTOR('',#387,1.);
#216=VECTOR('',#390,1.);
#217=VECTOR('',#391,1.);
#218=VECTOR('',#394,1.);
#219=EDGE_LOOP('',(#19,#20,#21,#22));
#220=EDGE_LOOP('',(#23,#24));
#221=EDGE_LOOP('',(#25,#26,#27,#28));
#222=EDGE_LOOP('',(#29,#30));
#223=EDGE_LOOP('',(#31));
#224=EDGE_LOOP('',(#32,#33,#34,#35));
#225=EDGE_LOOP('',(#36,#37,#38,#39));
#226=EDGE_LOOP('',(#40,#41,#42,#43));
#227=EDGE_LOOP('',(#44,#45,#46,#47));
#228=EDGE_LOOP('',(#48,#49,#50,#51));
#229=EDGE_LOOP('',(#52,#53,#54,#55,#56,#57));
#230=EDGE_LOOP('',(#58,#59,#60,#61));
#231=EDGE_LOOP('',(#62,#63,#64,#65,#66,#67));
#232=EDGE_LOOP('',(#68,#69,#70,#71));
#233=EDGE_LOOP('',(#72,#73,#74,#75));
#234=EDGE_LOOP('',(#76,#77,#78,#79));
#235=EDGE_LOOP('',(#80,#81,#82,#83));
#236=EDGE_LOOP('',(#84,#85,#86,#87));
#237=EDGE_LOOP('',(#88));
#238=EDGE_LOOP('',(#89,#90,#91,#92));
#239=FACE_BOUND('',#219,.T.);
#240=FACE_BOUND('',#220,.T.);
#241=FACE_BOUND('',#221,.T.);
#242=FACE_BOUND('',#222,.T.);
#243=FACE_BOUND('',#223,.T.);
#244=FACE_BOUND('',#224,.T.);
#245=FACE_BOUND('',#225,.T.);
#246=FACE_BOUND('',#226,.T.);
#247=FACE_BOUND('',#227,.T.);
#248=FACE_BOUND('',#228,.T.);
#249=FACE_BOUND('',#229,.T.);
#250=FACE_BOUND('',#230,.T.);
#251=FACE_BOUND('',#231,.T.);
#252=FACE_BOUND('',#232,.T.);
#253=FACE_BOUND('',#233,.T.);
#254=FACE_BOUND('',#234,.T.);
#255=FACE_BOUND('',#235,.T.);
#256=FACE_BOUND('',#236,.T.);
#257=FACE_BOUND('',#237,.T.);
#258=FACE_BOUND('',#238,.T.);
#259=PLANE('',#302);
#260=PLANE('',#307);
#261=PLANE('',#309);
#262=PLANE('',#311);
#263=PLANE('',#312);
#264=PLANE('',#313);
#265=PLANE('',#314);
#266=PLANE('',#315);
#267=PLANE('',#316);
#268=PLANE('',#317);
#269=PLANE('',#318);
#270=PLANE('',#319);
#271=PLANE('',#320);
#272=PLANE('',#321);
#273=ADVANCED_FACE('',(#239,#240),#259,.T.);
#274=ADVANCED_FACE('',(#241),#12,.F.);
#275=ADVANCED_FACE('',(#242),#260,.T.);
#276=ADVANCED_FACE('',(#243,#244),#261,.T.);
#277=ADVANCED_FACE('',(#245),#262,.T.);
#278=ADVANCED_FACE('',(#246),#263,.T.);
#279=ADVANCED_FACE('',(#247),#264,.F.);
#280=ADVANCED_FACE('',(#248),#265,.F.);
#281=ADVANCED_FACE('',(#249),#266,.F.);
#282=ADVANCED_FACE('',(#250,#251),#267,.T.);
#283=ADVANCED_FACE('',(#252),#268,.T.);
#284=ADVANCED_FACE('',(#253),#269,.F.);
#285=ADVANCED_FACE('',(#254),#270,.F.);
#286=ADVANCED_FACE('',(#255),#271,.T.);
#287=ADVANCED_FACE('',(#256),#272,.T.);
#288=ADVANCED_FACE('',(#257,#258),#13,.F.);
#289=CLOSED_SHELL('',(#273,#274,#275,#276,#277,#278,#279,#280,#281,#282,
#283,#284,#285,#286,#287,#288));
#290=STYLED_ITEM('',(#291),#298);
#291=PRESENTATION_STYLE_ASSIGNMENT((#292));
#292=SURFACE_STYLE_USAGE(.BOTH.,#293);
#293=SURFACE_SIDE_STYLE('',(#294));
#294=SURFACE_STYLE_FILL_AREA(#295);
#295=FILL_AREA_STYLE('',(#296));
#296=FILL_AREA_STYLE_COLOUR('',#297);
#297=COLOUR_RGB('',0.647058823529412,0.647058823529412,0.647058823529412);
#298=MANIFOLD_SOLID_BREP('Slider',#289);
#299=SHAPE_DEFINITION_REPRESENTATION(#484,#300);
#300=SHAPE_REPRESENTATION('Slider',(#301),#479);
#301=AXIS2_PLACEMENT_3D('',#399,#323,#324);
#302=AXIS2_PLACEMENT_3D('',#400,#325,#326);
#303=AXIS2_PLACEMENT_3D('',#409,#331,#332);
#304=AXIS2_PLACEMENT_3D('',#412,#333,#334);
#305=AXIS2_PLACEMENT_3D('',#413,#335,#336);
#306=AXIS2_PLACEMENT_3D('',#418,#339,#340);
#307=AXIS2_PLACEMENT_3D('',#419,#341,#342);
#308=AXIS2_PLACEMENT_3D('',#420,#343,#344);
#309=AXIS2_PLACEMENT_3D('',#421,#345,#346);
#310=AXIS2_PLACEMENT_3D('',#422,#347,#348);
#311=AXIS2_PLACEMENT_3D('',#432,#353,#354);
#312=AXIS2_PLACEMENT_3D('',#438,#358,#359);
#313=AXIS2_PLACEMENT_3D('',#441,#362,#363);
#314=AXIS2_PLACEMENT_3D('',#447,#367,#368);
#315=AXIS2_PLACEMENT_3D('',#450,#371,#372);
#316=AXIS2_PLACEMENT_3D('',#451,#373,#374);
#317=AXIS2_PLACEMENT_3D('',#460,#379,#380);
#318=AXIS2_PLACEMENT_3D('',#466,#384,#385);
#319=AXIS2_PLACEMENT_3D('',#470,#388,#389);
#320=AXIS2_PLACEMENT_3D('',#474,#392,#393);
#321=AXIS2_PLACEMENT_3D('',#476,#395,#396);
#322=AXIS2_PLACEMENT_3D('',#477,#397,#398);
#323=DIRECTION('',(0.,0.,1.));
#324=DIRECTION('',(1.,0.,0.));
#325=DIRECTION('',(0.,1.,0.));
#326=DIRECTION('',(0.,0.,1.));
#327=DIRECTION('',(0.,0.,-1.));
#328=DIRECTION('',(1.,0.,0.));
#329=DIRECTION('',(0.,0.,-1.));
#330=DIRECTION('',(1.,0.,0.));
#331=DIRECTION('',(0.,1.,0.));
#332=DIRECTION('',(0.,0.,1.));
#333=DIRECTION('',(0.,1.,0.));
#334=DIRECTION('',(0.,0.,1.));
#335=DIRECTION('',(0.,1.,0.));
#336=DIRECTION('',(0.,0.,1.));
#337=DIRECTION('',(0.,1.,0.));
#338=DIRECTION('',(0.,1.,0.));
#339=DIRECTION('',(0.,1.,0.));
#340=DIRECTION('',(0.,0.,1.));
#341=DIRECTION('',(0.,1.,0.));
#342=DIRECTION('',(-1.,0.,0.));
#343=DIRECTION('',(0.,1.,0.));
#344=DIRECTION('',(0.,0.,1.));
#345=DIRECTION('',(0.,-1.,0.));
#346=DIRECTION('',(0.,0.,-1.));
#347=DIRECTION('',(0.,-1.,0.));
#348=DIRECTION('',(0.,0.,-1.));
#349=DIRECTION('',(0.,0.,-1.));
#350=DIRECTION('',(-1.,0.,0.));
#351=DIRECTION('',(0.,0.,-1.));
#352=DIRECTION('',(-1.,0.,0.));
#353=DIRECTION('',(1.,1.37208461396086E-16,0.));
#354=DIRECTION('',(-1.37208461396086E-16,1.,0.));
#355=DIRECTION('',(0.,0.,-1.));
#356=DIRECTION('',(1.37208461396086E-16,-1.,0.));
#357=DIRECTION('',(1.37208461396086E-16,-1.,0.));
#358=DIRECTION('',(0.707106781186548,0.707106781186548,0.));
#359=DIRECTION('',(-0.707106781186548,0.707106781186548,0.));
#360=DIRECTION('',(0.707106781186548,-0.707106781186548,0.));
#361=DIRECTION('',(0.707106781186548,-0.707106781186548,0.));
#362=DIRECTION('',(0.707106781186548,-0.707106781186548,0.));
#363=DIRECTION('',(0.707106781186548,0.707106781186548,0.));
#364=DIRECTION('',(-0.707106781186548,-0.707106781186548,0.));
#365=DIRECTION('',(-0.707106781186548,-0.707106781186548,0.));
#366=DIRECTION('',(0.,0.,-1.));
#367=DIRECTION('',(1.,1.37208461396086E-16,0.));
#368=DIRECTION('',(-1.37208461396086E-16,1.,0.));
#369=DIRECTION('',(1.37208461396086E-16,-1.,0.));
#370=DIRECTION('',(1.37208461396086E-16,-1.,0.));
#371=DIRECTION('',(0.,0.,1.));
#372=DIRECTION('',(1.,0.,0.));
#373=DIRECTION('',(0.,0.,1.));
#374=DIRECTION('',(1.,0.,0.));
#375=DIRECTION('',(-1.,0.,0.));
#376=DIRECTION('',(0.,1.,0.));
#377=DIRECTION('',(-1.,0.,0.));
#378=DIRECTION('',(0.,1.,0.));
#379=DIRECTION('',(0.,1.,0.));
#380=DIRECTION('',(0.,0.,1.));
#381=DIRECTION('',(0.,0.,-1.));
#382=DIRECTION('',(0.,0.,-1.));
#383=DIRECTION('',(1.,0.,0.));
#384=DIRECTION('',(1.,0.,0.));
#385=DIRECTION('',(0.,0.,-1.));
#386=DIRECTION('',(0.,0.,-1.));
#387=DIRECTION('',(0.,-1.,0.));
#388=DIRECTION('',(0.,1.,0.));
#389=DIRECTION('',(0.,0.,1.));
#390=DIRECTION('',(0.,0.,-1.));
#391=DIRECTION('',(1.,0.,0.));
#392=DIRECTION('',(1.,0.,0.));
#393=DIRECTION('',(0.,0.,-1.));
#394=DIRECTION('',(0.,-1.,0.));
#395=DIRECTION('',(0.,0.,1.));
#396=DIRECTION('',(1.,0.,0.));
#397=DIRECTION('',(0.,-1.,0.));
#398=DIRECTION('',(0.,0.,-1.));
#399=CARTESIAN_POINT('',(0.,0.,0.));
#400=CARTESIAN_POINT('',(-6.93889390390723E-18,0.0475,0.264736093108393));
#401=CARTESIAN_POINT('',(-0.00146446609406727,0.0475,0.264736093108393));
#402=CARTESIAN_POINT('',(-0.00146446609406727,0.0475,0.007));
#403=CARTESIAN_POINT('',(-0.00146446609406727,0.0475,0.0025));
#404=CARTESIAN_POINT('',(-6.93889390390723E-18,0.0475,0.007));
#405=CARTESIAN_POINT('',(0.00146446609406725,0.0475,0.007));
#406=CARTESIAN_POINT('',(0.00146446609406725,0.0475,0.264736093108393));
#407=CARTESIAN_POINT('',(0.00146446609406725,0.0475,0.0025));
#408=CARTESIAN_POINT('',(-6.93889390390723E-18,0.0475,0.0025));
#409=CARTESIAN_POINT('',(0.,0.0475,0.005));
#410=CARTESIAN_POINT('',(-0.000739509972887452,0.0475,0.004875));
#411=CARTESIAN_POINT('',(0.000739509972887448,0.0475,0.004875));
#412=CARTESIAN_POINT('',(-3.46944695195361E-18,0.0475,0.00475));
#413=CARTESIAN_POINT('',(0.,0.045,0.005));
#414=CARTESIAN_POINT('',(-0.000739509972887452,0.04625,0.004875));
#415=CARTESIAN_POINT('',(-0.000739509972887452,0.045,0.004875));
#416=CARTESIAN_POINT('',(0.000739509972887448,0.04625,0.004875));
#417=CARTESIAN_POINT('',(0.000739509972887448,0.045,0.004875));
#418=CARTESIAN_POINT('',(0.,0.045,0.005));
#419=CARTESIAN_POINT('',(-6.07153216591882E-18,0.045,0.006));
#420=CARTESIAN_POINT('',(-3.46944695195361E-18,0.045,0.00475));
#421=CARTESIAN_POINT('',(-3.46944695195361E-18,0.0275,0.264736093108393));
#422=CARTESIAN_POINT('',(-3.46944695195361E-18,0.0275,0.00475));
#423=CARTESIAN_POINT('',(-3.46944695195361E-18,0.0275,0.004));
#424=CARTESIAN_POINT('',(0.0025,0.0275,0.264736093108393));
#425=CARTESIAN_POINT('',(0.0025,0.0275,0.007));
#426=CARTESIAN_POINT('',(0.0025,0.0275,0.0025));
#427=CARTESIAN_POINT('',(-3.46944695195361E-18,0.0275,0.007));
#428=CARTESIAN_POINT('',(-0.0025,0.0275,0.007));
#429=CARTESIAN_POINT('',(-0.0025,0.0275,0.264736093108393));
#430=CARTESIAN_POINT('',(-0.0025,0.0275,0.0025));
#431=CARTESIAN_POINT('',(-3.46944695195361E-18,0.0275,0.0025));
#432=CARTESIAN_POINT('',(0.0025,0.0369822330470337,0.264736093108393));
#433=CARTESIAN_POINT('',(0.0025,0.0464644660940673,0.264736093108393));
#434=CARTESIAN_POINT('',(0.0025,0.0464644660940673,0.007));
#435=CARTESIAN_POINT('',(0.0025,0.0464644660940673,0.0025));
#436=CARTESIAN_POINT('',(0.0025,0.0369822330470337,0.007));
#437=CARTESIAN_POINT('',(0.0025,0.0369822330470337,0.0025));
#438=CARTESIAN_POINT('',(0.00198223304703363,0.0469822330470336,0.264736093108393));
#439=CARTESIAN_POINT('',(0.00198223304703363,0.0469822330470336,0.007));
#440=CARTESIAN_POINT('',(0.00198223304703363,0.0469822330470336,0.0025));
#441=CARTESIAN_POINT('',(-0.00198223304703364,0.0469822330470336,0.264736093108393));
#442=CARTESIAN_POINT('',(-0.00198223304703364,0.0469822330470336,0.007));
#443=CARTESIAN_POINT('',(-0.0025,0.0464644660940673,0.007));
#444=CARTESIAN_POINT('',(-0.00198223304703364,0.0469822330470336,0.0025));
#445=CARTESIAN_POINT('',(-0.0025,0.0464644660940673,0.0025));
#446=CARTESIAN_POINT('',(-0.0025,0.0464644660940673,0.264736093108393));
#447=CARTESIAN_POINT('',(-0.0025,0.0369822330470337,0.264736093108393));
#448=CARTESIAN_POINT('',(-0.0025,0.0369822330470337,0.007));
#449=CARTESIAN_POINT('',(-0.0025,0.0369822330470337,0.0025));
#450=CARTESIAN_POINT('',(0.,-0.0025,0.0025));
#451=CARTESIAN_POINT('',(-8.67361737988404E-19,0.0125,0.007));
#452=CARTESIAN_POINT('',(-8.67361737988404E-19,0.0425,0.007));
#453=CARTESIAN_POINT('',(0.0017,0.0425,0.007));
#454=CARTESIAN_POINT('',(-0.0017,0.0425,0.007));
#455=CARTESIAN_POINT('',(0.0017,0.0125,0.007));
#456=CARTESIAN_POINT('',(0.0017,0.0325,0.007));
#457=CARTESIAN_POINT('',(-8.67361737988404E-19,0.0325,0.007));
#458=CARTESIAN_POINT('',(-0.0017,0.0325,0.007));
#459=CARTESIAN_POINT('',(-0.0017,0.0125,0.007));
#460=CARTESIAN_POINT('',(-1.66967134562767E-17,0.0425,0.011));
#461=CARTESIAN_POINT('',(0.0017,0.0425,0.011));
#462=CARTESIAN_POINT('',(0.0017,0.0425,0.011));
#463=CARTESIAN_POINT('',(-0.0017,0.0425,0.011));
#464=CARTESIAN_POINT('',(-0.0017,0.0425,0.011));
#465=CARTESIAN_POINT('',(-1.66967134562767E-17,0.0425,0.011));
#466=CARTESIAN_POINT('',(-0.0017,0.0375,0.011));
#467=CARTESIAN_POINT('',(-0.0017,0.0325,0.011));
#468=CARTESIAN_POINT('',(-0.0017,0.0325,0.011));
#469=CARTESIAN_POINT('',(-0.0017,0.0375,0.011));
#470=CARTESIAN_POINT('',(-1.66967134562767E-17,0.0325,0.011));
#471=CARTESIAN_POINT('',(0.0017,0.0325,0.011));
#472=CARTESIAN_POINT('',(0.0017,0.0325,0.011));
#473=CARTESIAN_POINT('',(-1.66967134562767E-17,0.0325,0.011));
#474=CARTESIAN_POINT('',(0.0017,0.0375,0.011));
#475=CARTESIAN_POINT('',(0.0017,0.0375,0.011));
#476=CARTESIAN_POINT('',(0.,-0.0025,0.011));
#477=CARTESIAN_POINT('',(-3.46944695195361E-18,0.047502,0.00475));
#478=MECHANICAL_DESIGN_GEOMETRIC_PRESENTATION_REPRESENTATION('',(#290),
#479);
#479=(
GEOMETRIC_REPRESENTATION_CONTEXT(3)
GLOBAL_UNCERTAINTY_ASSIGNED_CONTEXT((#480))
GLOBAL_UNIT_ASSIGNED_CONTEXT((#483,#482,#481))
REPRESENTATION_CONTEXT('Slider','TOP_LEVEL_ASSEMBLY_PART')
);
#480=UNCERTAINTY_MEASURE_WITH_UNIT(LENGTH_MEASURE(1.E-8),#483,
'DISTANCE_ACCURACY_VALUE','Maximum Tolerance applied to model');
#481=(
NAMED_UNIT(*)
SI_UNIT($,.STERADIAN.)
SOLID_ANGLE_UNIT()
);
#482=(
NAMED_UNIT(*)
PLANE_ANGLE_UNIT()
SI_UNIT($,.RADIAN.)
);
#483=(
LENGTH_UNIT()
NAMED_UNIT(*)
SI_UNIT($,.METRE.)
);
#484=PRODUCT_DEFINITION_SHAPE('','',#485);
#485=PRODUCT_DEFINITION('','',#487,#486);
#486=PRODUCT_DEFINITION_CONTEXT('',#493,'design');
#487=PRODUCT_DEFINITION_FORMATION_WITH_SPECIFIED_SOURCE('','',#489,
 .NOT_KNOWN.);
#488=PRODUCT_RELATED_PRODUCT_CATEGORY('','',(#489));
#489=PRODUCT('Slider','Slider','Slider',(#491));
#490=PRODUCT_CATEGORY('','');
#491=PRODUCT_CONTEXT('',#493,'mechanical');
#492=APPLICATION_PROTOCOL_DEFINITION('international standard',
'ap242_managed_model_based_3d_engineering',2020,#493);
#493=APPLICATION_CONTEXT('managed model based 3d engineering');
ENDSEC;
END-ISO-10303-21;
